<svg width="71" height="71" viewBox="0 0 71 71" fill="none" xmlns="http://www.w3.org/2000/svg">
<path opacity="0.997" fill-rule="evenodd" clip-rule="evenodd" d="M32.8042 0.5C34.8095 0.5 36.8146 0.5 38.8198 0.5C46.2066 1.21376 52.7236 3.94813 58.3706 8.70312C58.2696 8.68521 58.1784 8.70801 58.0972 8.77148C65.2097 18.3347 67.1466 28.8849 63.9077 40.4219C59.8613 52.3525 51.8177 60.1683 39.7769 63.8691C29.4683 66.5032 19.8523 64.9537 10.9292 59.2207C10.2519 58.7716 9.61392 58.2702 9.01514 57.7168C8.88706 57.6222 8.79592 57.645 8.7417 57.7852C4.17945 52.1686 1.53621 45.7428 0.812012 38.5078C0.812012 36.5026 0.812012 34.4974 0.812012 32.4922C2.51855 18.7786 9.62792 9.00318 22.1401 3.16602C25.5837 1.75827 29.1384 0.869595 32.8042 0.5Z" fill="#E14A4A"/>
<path fill-rule="evenodd" clip-rule="evenodd" d="M58.3706 8.70318C65.6867 14.9489 69.8338 22.8786 70.812 32.4922C70.812 34.4975 70.812 36.5026 70.812 38.5079C69.1055 52.2214 61.9961 61.9968 49.4839 67.834C46.0404 69.2418 42.4857 70.1305 38.8198 70.5001C36.8146 70.5001 34.8095 70.5001 32.8042 70.5001C23.0495 69.4969 15.0287 65.2587 8.7417 57.7852C8.79592 57.6451 8.88706 57.6222 9.01514 57.7169C9.61392 58.2703 10.2519 58.7716 10.9292 59.2208C19.8523 64.9538 29.4683 66.5032 39.7769 63.8692C51.8177 60.1684 59.8613 52.3526 63.9077 40.4219C67.1466 28.8849 65.2097 18.3347 58.0972 8.77154C58.1784 8.70806 58.2696 8.68527 58.3706 8.70318Z" fill="#D03F3F"/>
<path fill-rule="evenodd" clip-rule="evenodd" d="M17.0815 24.4258C21.6526 24.1721 25.4124 25.7672 28.3608 29.2109C30.4563 32.0891 30.4563 34.9602 28.3608 37.8242C25.3831 40.5959 22.4663 40.5504 19.6108 37.6875C17.643 34.3555 18.2128 31.5528 21.3198 29.2793C21.7186 29.0704 22.1288 28.8881 22.5503 28.7324C20.7313 27.9119 18.8172 27.5473 16.8081 27.6386C15.4624 26.4419 15.5536 25.371 17.0815 24.4258Z" fill="#3F4347"/>
<path fill-rule="evenodd" clip-rule="evenodd" d="M51.6714 24.4258C52.7314 24.3716 53.7796 24.44 54.8159 24.6309C55.8938 25.3436 56.0532 26.2322 55.2944 27.2969C55.1004 27.4281 54.8954 27.542 54.6792 27.6387C52.7054 27.4957 50.8369 27.8603 49.0737 28.7324C52.2762 30.0094 53.5751 32.3563 52.9702 35.7734C51.6391 39.0707 49.2465 40.324 45.7925 39.5332C43.1708 38.3935 41.8036 36.3883 41.6909 33.5176C41.8157 31.6047 42.5222 29.9414 43.8101 28.5273C45.9775 26.2703 48.5979 24.9031 51.6714 24.4258Z" fill="#3F4347"/>
<path fill-rule="evenodd" clip-rule="evenodd" d="M26.5151 30.8516C27.4809 30.9522 27.9823 31.4991 28.019 32.4922C27.9579 33.3542 27.5478 33.6049 26.7886 33.2441C26.01 32.5123 25.9188 31.7148 26.5151 30.8516Z" fill="#595E62"/>
<path fill-rule="evenodd" clip-rule="evenodd" d="M49.2104 31.2618C50.2581 31.2151 50.8505 31.7165 50.9878 32.7657C50.986 33.5175 50.6214 33.7681 49.894 33.5176C48.9631 32.9595 48.7353 32.2076 49.2104 31.2618Z" fill="#595E62"/>
<path fill-rule="evenodd" clip-rule="evenodd" d="M33.3511 47.3946C38.2174 46.9705 42.6836 48.087 46.7495 50.7442C47.5883 51.4461 48.3859 52.198 49.1421 53C50.0302 54.7768 49.5062 55.9162 47.5698 56.418C44.6599 55.5162 41.6976 54.8554 38.6831 54.4356C33.7704 54.1438 28.9852 54.7819 24.3276 56.3496C23.1714 56.4262 22.4195 55.9022 22.0718 54.7774C21.9806 54.4127 21.9806 54.0483 22.0718 53.6836C24.0293 51.0968 26.5586 49.2967 29.6597 48.2832C30.8901 47.9185 32.1206 47.6223 33.3511 47.3946Z" fill="#3F4347"/>
</svg>
