<svg width="82" height="81" viewBox="0 0 82 81" fill="none" xmlns="http://www.w3.org/2000/svg">
<path opacity="0.969" fill-rule="evenodd" clip-rule="evenodd" d="M21.9768 5.53069C22.6636 5.42718 23.2706 5.58548 23.7972 6.0056C24.0809 6.7761 24.2919 7.56761 24.4304 8.38012C24.8444 9.05811 25.3193 9.69132 25.8552 10.2797C27.031 12.3651 27.1893 14.5286 26.3301 16.7701C25.7584 17.711 25.1252 18.6081 24.4304 19.4612C24.2576 20.1957 24.0993 20.9345 23.9555 21.6774C23.1648 22.6697 22.3206 22.7226 21.4227 21.8357C21.0442 20.337 21.2554 18.9122 22.0559 17.5616C22.7146 16.7723 23.2949 15.9281 23.7972 15.0288C24.0673 14.0515 23.9617 13.1017 23.4806 12.1794C21.8569 10.621 21.1181 8.72134 21.2644 6.4805C21.4194 6.08988 21.6568 5.77328 21.9768 5.53069Z" fill="#BDC3C7"/>
<path opacity="0.969" fill-rule="evenodd" clip-rule="evenodd" d="M30.3668 5.53069C31.0536 5.42718 31.6606 5.58548 32.1872 6.0056C32.4866 6.65639 32.6449 7.34236 32.6622 8.06352C33.4009 9.22439 34.1396 10.3853 34.8784 11.5462C35.438 13.305 35.3853 15.0463 34.7201 16.7701C34.1484 17.711 33.5152 18.6081 32.8205 19.4612C32.6476 20.1957 32.4893 20.9345 32.3455 21.6774C31.5548 22.6697 30.7106 22.7226 29.8127 21.8357C29.3932 19.5572 30.0264 17.6047 31.7123 15.9786C32.4124 14.8487 32.5178 13.6879 32.0289 12.496C31.615 11.818 31.1401 11.1848 30.6042 10.5963C29.7879 9.3362 29.4713 7.96425 29.6544 6.4805C29.8094 6.08988 30.0469 5.77328 30.3668 5.53069Z" fill="#BDC3C7"/>
<path opacity="0.971" fill-rule="evenodd" clip-rule="evenodd" d="M38.7568 5.53069C39.4436 5.42718 40.0506 5.58548 40.5772 6.0056C40.8522 6.66247 41.0105 7.34844 41.0521 8.06352C41.7909 9.22439 42.5296 10.3853 43.2684 11.5462C43.8705 13.4351 43.7651 15.2819 42.9518 17.0867C42.3713 17.8782 41.7909 18.6697 41.2104 19.4612C41.0376 20.1957 40.8793 20.9345 40.7355 21.6774C39.9448 22.6697 39.1006 22.7226 38.2027 21.8357C37.8169 20.3327 38.028 18.908 38.8359 17.5616C39.4946 16.7723 40.0749 15.9281 40.5772 15.0288C40.7101 14.1706 40.6573 13.3263 40.4189 12.496C39.8384 11.7045 39.2581 10.9129 38.6776 10.1214C38.061 8.92166 37.8499 7.65524 38.0444 6.3222C38.2607 6.02749 38.4981 5.76367 38.7568 5.53069Z" fill="#BDC3C7"/>
<path opacity="0.998" fill-rule="evenodd" clip-rule="evenodd" d="M50.6294 46.2142C49.873 45.6461 49.0288 45.4615 48.0966 45.6602C47.6357 45.9389 47.1608 46.1764 46.6718 46.3725C45.7117 45.2452 44.7882 44.0844 43.9016 42.8899C42.653 41.1736 41.0438 40.6722 39.0734 41.386C38.7237 41.6825 38.4335 42.0256 38.2027 42.415C38.0971 43.3648 38.0971 44.3146 38.2027 45.2644C38.7756 47.2212 39.488 49.1208 40.3398 50.9633C40.1593 51.3242 39.9746 51.6937 39.7857 52.0714C39.6801 52.5463 39.6801 53.0212 39.7857 53.4961C41.7197 56.9336 44.3317 59.7303 47.6217 61.8861C45.4794 64.5408 42.7354 66.2294 39.39 66.9517C34.7465 67.1627 30.1029 67.1627 25.4594 66.9517C19.7981 65.512 16.1571 61.9764 14.5366 56.3455C14.5795 54.3082 14.474 52.3031 14.22 50.33C14.22 46.8474 14.22 43.3648 14.22 39.8821C14.22 37.6132 14.22 35.3441 14.22 33.0752C14.1937 31.5968 14.2201 30.1192 14.2992 28.6427C14.5434 28.3455 14.8336 28.108 15.1698 27.9304C26.6731 27.8248 38.1763 27.8248 49.6796 27.9304C50.0158 28.108 50.306 28.3455 50.5502 28.6427C50.6294 34.4996 50.6558 40.3567 50.6294 46.2142Z" fill="#F2D45B"/>
<path opacity="0.986" fill-rule="evenodd" clip-rule="evenodd" d="M79.1237 36.2412C76.5476 36.3797 73.9621 36.6436 71.3669 37.0327C71.4269 35.08 71.506 33.1275 71.6043 31.1755C71.8535 29.2908 72.9089 28.1827 74.7704 27.8512C75.7689 28.0043 76.5077 28.5319 76.9866 29.4342C78.0657 31.5868 78.7781 33.8557 79.1237 36.2412Z" fill="#A56A43"/>
<path opacity="0.983" fill-rule="evenodd" clip-rule="evenodd" d="M14.22 33.0751C14.22 35.3441 14.22 37.6132 14.22 39.8821C12.2656 38.0083 9.99657 37.4542 7.41307 38.2199C6.88283 38.779 6.53985 39.4387 6.38411 40.1987C5.86313 43.1027 5.86313 46.0049 6.38411 48.9053C6.83681 51.0491 8.12961 51.9198 10.2625 51.5172C11.6383 51.2923 12.9574 50.8965 14.22 50.33C14.474 52.3031 14.5795 54.3081 14.5366 56.3454C6.51729 59.1452 1.76824 56.4012 0.289505 48.1138C0.289505 45.8975 0.289505 43.6813 0.289505 41.4651C1.48304 33.0539 6.12654 30.2572 14.22 33.0751Z" fill="#F0C419"/>
<path opacity="0.994" fill-rule="evenodd" clip-rule="evenodd" d="M79.1237 36.2412C80.3749 36.3846 81.1137 37.0706 81.3399 38.2991C81.3399 40.3043 81.3399 42.3094 81.3399 44.3146C80.7874 48.2395 79.3627 51.8277 77.0657 55.0791C76.0539 53.5326 75.0776 51.9496 74.1372 50.33C72.0286 47.2454 69.4693 44.6071 66.4595 42.415C67.4784 41.0647 68.2962 39.5872 68.9132 37.9825C69.5909 37.3178 70.4089 37.0012 71.3669 37.0327C73.9621 36.6436 76.5476 36.3797 79.1237 36.2412Z" fill="#CA8252"/>
<path fill-rule="evenodd" clip-rule="evenodd" d="M46.6718 46.3725C44.562 47.9017 42.4513 49.4318 40.3398 50.9632C39.4879 49.1208 38.7756 47.2212 38.2027 45.2644C38.0971 44.3146 38.0971 43.3648 38.2027 42.415C38.4335 42.0255 38.7236 41.6825 39.0733 41.386C41.0437 40.6722 42.653 41.1736 43.9015 42.8899C44.7882 44.0844 45.7117 45.2452 46.6718 46.3725Z" fill="#A56A43"/>
<path opacity="0.997" fill-rule="evenodd" clip-rule="evenodd" d="M66.4595 42.415C69.4693 44.6071 72.0286 47.2454 74.1371 50.33C75.0776 51.9496 76.0539 53.5326 77.0657 55.0791C77.2338 55.5565 77.4186 56.0314 77.6198 56.5038C77.7254 56.8731 77.7254 57.2426 77.6198 57.6119C75.4256 60.8886 72.497 63.2896 68.8341 64.8146C66.6769 65.7714 64.4607 66.4838 62.1854 66.9517C60.0214 67.1543 57.8581 67.1543 55.695 66.9517C55.0653 66.7671 54.4584 66.5034 53.8746 66.1602C53.5796 65.5034 53.3949 64.8175 53.3205 64.1023C52.5211 59.3037 52.4948 54.5019 53.2414 49.6968C53.4063 48.8779 53.6438 48.0864 53.9537 47.3223C54.248 46.1268 54.7758 45.0452 55.5367 44.0771C58.1099 42.988 60.7219 42.0118 63.3727 41.1486C64.4683 41.4197 65.4972 41.8418 66.4595 42.415Z" fill="#CE9669"/>
<path opacity="0.998" fill-rule="evenodd" clip-rule="evenodd" d="M50.6294 46.2142C51.7043 46.678 52.8124 47.0473 53.9537 47.3223C53.6438 48.0864 53.4063 48.8779 53.2414 49.6968C52.4948 54.5019 52.5211 59.3037 53.3205 64.1022C51.316 63.6275 49.4163 62.8887 47.6217 61.886C44.3317 59.7303 41.7197 56.9336 39.7857 53.496C39.6802 53.0211 39.6802 52.5462 39.7857 52.0713C39.9746 51.6936 40.1593 51.3241 40.3398 50.9632C42.4514 49.4318 44.562 47.9017 46.6719 46.3725C47.1609 46.1763 47.6358 45.9389 48.0966 45.6601C49.0288 45.4615 49.873 45.646 50.6294 46.2142Z" fill="#CB8252"/>
<path opacity="0.982" fill-rule="evenodd" clip-rule="evenodd" d="M25.4594 66.9516C30.1029 67.1626 34.7465 67.1626 39.3899 66.9516C44.8249 66.9516 50.26 66.9516 55.695 66.9516C57.858 67.1542 60.0214 67.1542 62.1854 66.9516C68.0955 66.9251 74.0054 66.9516 79.9151 67.0307C80.4997 67.1637 80.9746 67.4539 81.3398 67.9014C81.3398 69.3788 81.3398 70.8564 81.3398 72.3338C80.4364 74.0547 79.0117 75.0837 77.0657 75.4207C54.7979 75.5263 32.5303 75.5263 10.2625 75.4207C6.24092 74.4812 4.78982 71.9748 5.90918 67.9014C6.2417 67.4317 6.69021 67.1415 7.25475 67.0307C13.3227 66.9516 19.3909 66.9251 25.4594 66.9516Z" fill="#66B8CB"/>
</svg>
