<svg width="81" height="71" viewBox="0 0 81 71" fill="none" xmlns="http://www.w3.org/2000/svg">
<path d="M21.4036 0.959169C21.0442 1.33423 20.9504 1.55301 20.9504 2.09997C20.9504 3.49082 21.6224 5.19421 22.5913 6.2725C23.3414 7.10076 23.7633 8.08529 23.7633 9.06981C23.7633 10.1169 23.5289 10.6794 22.4819 12.0547C21.5599 13.2736 21.1379 14.2581 20.9973 15.524C20.9035 16.5866 21.1067 17.1492 21.7318 17.4618C22.6538 17.9306 23.7633 17.2899 23.7633 16.2897C23.7633 15.4614 24.2165 14.3831 24.951 13.508C27.1545 10.8357 27.2014 7.49144 25.0604 4.78789C24.2009 3.72523 23.9509 3.20952 23.8258 2.20936C23.6227 0.630993 22.3725 -0.00973129 21.4036 0.959169Z" fill="black"/>
<path d="M29.9831 0.990438C29.5299 1.44364 29.5142 1.50615 29.5767 2.53756C29.6705 3.78775 30.28 5.20985 31.1864 6.28814C32.7804 8.17906 32.7804 9.86683 31.1864 11.8515C30.1862 13.0861 29.7018 14.2425 29.5924 15.6021C29.4986 16.7116 29.6549 17.118 30.3425 17.4774C31.2489 17.9306 32.3584 17.2586 32.3584 16.2428C32.3584 15.4146 32.7804 14.3832 33.4524 13.5862C34.8276 11.914 35.2495 10.6951 35.1401 8.64789C35.062 7.03826 34.7338 6.24126 33.5461 4.66289C32.7179 3.56897 32.3584 2.74071 32.3584 1.86558C32.3584 1.58428 32.1865 1.25611 31.9052 0.959185C31.2801 0.334087 30.6238 0.349714 29.9831 0.990438Z" fill="black"/>
<path d="M38.6094 0.927931C38.1093 1.33424 38.1093 1.3655 38.1875 2.44379C38.2812 3.91277 38.7501 5.0692 39.7033 6.22563C41.3755 8.2572 41.3755 9.83557 39.6877 11.9453C38.7188 13.1642 38.2656 14.2738 38.1718 15.5708C38.1093 16.5241 38.1562 16.7429 38.4375 17.1023C38.8751 17.6337 39.5471 17.7899 40.1565 17.4774C40.7504 17.1648 40.7816 17.1023 40.9692 15.9615C41.1567 14.8364 41.3598 14.3988 42.1412 13.4611C43.1257 12.3047 43.6571 10.9451 43.7352 9.49177C43.8446 7.49146 43.407 6.25689 41.9381 4.45973C41.2661 3.61585 40.9535 2.83448 40.9535 1.94372C40.9535 1.56866 40.8129 1.28736 40.5003 0.959187C39.9065 0.38097 39.2658 0.365343 38.6094 0.927931Z" fill="black"/>
<path d="M16.3247 24.8379C16.1371 24.8692 15.8246 25.0724 15.6214 25.2911L15.2464 25.6974V38.215C15.2464 49.67 15.2776 50.842 15.5277 51.8265C16.856 57.0305 20.5753 60.6717 25.5761 61.6875C26.6544 61.9062 27.7483 61.9375 32.921 61.8906C38.6563 61.8281 39.0626 61.8125 40.1409 61.4843C41.9849 60.9217 44.4853 59.5152 45.3761 58.5307C45.6418 58.2338 45.6261 58.2025 45.0167 57.7806C44.079 57.1242 41.1567 54.03 40.1409 52.6235C38.375 50.1231 38.0625 49.1542 38.5625 47.6696L38.8595 46.7789L38.1718 45.1692C36.8748 42.1063 36.4216 39.4809 36.9217 37.7931C37.2029 36.8711 38.2344 35.9022 39.2501 35.6053C41.813 34.8395 43.5789 35.7146 46.2356 39.0745C47.0795 40.1372 47.3295 40.356 47.5952 40.2779C47.7671 40.2153 48.2828 40.1372 48.736 40.0903L49.5486 40.0122V32.9798C49.5486 25.088 49.5643 25.1974 48.4547 24.8848C47.9234 24.7285 17.0592 24.6973 16.3247 24.8379Z" fill="black"/>
<path d="M75.2557 24.9473C75.0057 25.0567 74.6463 25.3067 74.49 25.4943C74.0524 25.9787 73.7711 27.5102 73.7711 29.4011V31.0264L74.5056 30.917C74.9119 30.8701 75.9277 30.7763 76.7716 30.7138L78.3187 30.6201L78.2093 30.1356C77.803 28.1822 76.756 25.6974 76.0996 25.0879C75.7558 24.791 75.6777 24.7754 75.2557 24.9473Z" fill="black"/>
<path d="M6.26059 29.3387C2.86943 30.3076 1.21292 33.5425 0.994136 39.7309C0.775352 45.8413 2.24433 49.67 5.4167 51.2484C6.44811 51.7484 6.77629 51.8266 7.94835 51.8891C9.26105 51.9516 12.1365 51.5765 12.3865 51.3265C12.4647 51.2484 12.4647 50.5607 12.4178 49.7794L12.3084 48.3573L11.6833 48.5761C11.3239 48.7011 10.3862 48.8886 9.58923 48.9824C7.76082 49.2168 6.77629 48.9667 5.80739 47.9978C4.36966 46.5601 3.86959 44.6223 3.85396 40.5904C3.85396 35.5115 4.54157 33.3706 6.47937 32.3391C7.57329 31.7609 10.1674 31.9016 12.1209 32.6361C12.3397 32.7298 12.3553 32.5423 12.324 31.1983L12.2772 29.6669L11.4958 29.4637C10.2456 29.1199 7.27637 29.0574 6.26059 29.3387Z" fill="black"/>
<path d="M75.1464 33.7143C71.1301 34.1987 70.9582 34.2768 70.4269 35.6677C70.2706 36.0584 69.9424 36.746 69.6768 37.2148C69.3798 37.7618 69.2704 38.0899 69.3798 38.1525C69.4736 38.215 70.13 38.7619 70.8332 39.387C73.0992 41.3405 75.3808 44.0753 77.0685 46.8257C77.5061 47.5602 77.9437 48.1228 78.0218 48.0759C78.1 48.029 78.4594 47.3726 78.8344 46.6382C80.4128 43.4814 81.0535 40.3559 80.9285 36.2615C80.8816 34.7144 80.7879 33.8862 80.6472 33.7143C80.3972 33.4173 77.6311 33.4173 75.1464 33.7143Z" fill="black"/>
<path d="M40.0627 38.3244C39.8752 38.4026 39.672 38.6526 39.6095 38.8714C39.3907 39.7465 39.8908 42.0281 40.7347 43.9034L41.0941 44.7473L42.6256 43.6065C43.4695 42.9814 44.329 42.3563 44.5478 42.2157L44.9229 41.9656L43.7039 40.481C43.0319 39.6684 42.2818 38.8401 42.0162 38.637C41.4848 38.2463 40.5784 38.1056 40.0627 38.3244Z" fill="black"/>
<path d="M60.4878 39.7309L56.9716 41.0905L56.5497 41.8563C55.5496 43.6534 54.7994 46.7008 54.5338 50.0607C54.2837 53.1862 54.6275 57.5775 55.3464 60.703L55.5183 61.4375L56.581 61.6719C57.8312 61.9688 60.2534 62 61.9881 61.75C67.7546 60.953 74.2243 57.4368 76.7247 53.7487L77.2404 52.9986L76.1153 50.9358C72.8335 44.888 68.6922 40.4029 64.8479 38.7464L64.004 38.387L60.4878 39.7309Z" fill="black"/>
<path d="M47.4858 43.6847C45.923 44.6693 43.4226 46.4977 42.1724 47.5916C41.016 48.5761 41.016 48.8105 42.1099 50.4358C43.7195 52.7799 45.8761 54.9834 47.8296 56.2336C48.9078 56.9212 51.4551 58.1558 51.8146 58.1714C51.9239 58.1714 51.9083 57.5932 51.7677 56.4055C51.3926 53.2331 51.6739 48.373 52.4553 44.763C52.549 44.3098 52.5178 44.2317 52.1896 44.1536C51.9865 44.0911 51.2832 43.7785 50.6269 43.4503C49.9705 43.1222 49.2985 42.8565 49.1266 42.8565C48.9547 42.8565 48.2202 43.2315 47.4858 43.6847Z" fill="black"/>
<path d="M6.93257 64.8442C6.79193 64.8911 6.72942 65.3912 6.72942 66.5789C6.72942 68.501 6.91695 68.9855 7.93273 69.6418C9.37045 70.5795 7.05759 70.517 44.1571 70.4857L78.0687 70.4388L78.8501 70.0794C80.5378 69.298 80.9598 68.5792 80.9598 66.4851C80.9598 65.0005 80.9442 64.9223 80.616 64.8286C80.1784 64.7192 7.19824 64.7192 6.93257 64.8442Z" fill="black"/>
</svg>
