<svg width="51" height="71" viewBox="0 0 51 71" fill="none" xmlns="http://www.w3.org/2000/svg">
<path opacity="0.989" fill-rule="evenodd" clip-rule="evenodd" d="M24.633 0.5C25.1799 0.5 25.7268 0.5 26.2737 0.5C26.863 0.793494 27.296 1.24922 27.5725 1.86719C27.618 7.33594 27.6637 12.8047 27.7092 18.2734C30.5575 15.4252 33.4059 12.5768 36.2541 9.72852C37.4253 9.00633 38.4963 9.12025 39.467 10.0703C45.8767 20.2293 49.7048 31.3036 50.9514 43.293C51.3136 53.7589 47.0981 61.757 38.3049 67.2871C35.427 68.9108 32.3736 69.9817 29.1447 70.5C28.7801 70.5 28.4156 70.5 28.051 70.5C33.1171 68.6421 35.6464 64.9962 35.6389 59.5625C35.2205 57.4872 34.5826 55.482 33.7248 53.5469C31.7831 49.2527 29.5956 45.1056 27.1623 41.1055C26.1188 39.8921 25.025 39.8464 23.8811 40.9688C21.2737 45.2714 18.9495 49.7376 16.9084 54.3672C16.2701 55.8721 15.7689 57.4215 15.4045 59.0156C15.127 64.7258 17.6563 68.5539 22.9924 70.5C22.5822 70.5 22.1721 70.5 21.7619 70.5C12.7025 68.8525 6.16287 63.885 2.14279 55.5977C-0.21786 49.7707 -0.628016 43.8006 0.912326 37.6875C4.46633 24.352 11.1427 12.8903 20.9416 3.30273C22.1584 2.33468 23.3889 1.40043 24.633 0.5Z" fill="black"/>
<path opacity="0.974" fill-rule="evenodd" clip-rule="evenodd" d="M25.4534 46.4375C27.669 50.1856 29.5603 54.105 31.1272 58.1953C32.1604 61.7966 30.9983 64.417 27.6409 66.0566C24.2042 67.0086 21.6294 65.9376 19.9163 62.8437C19.4041 61.5519 19.3129 60.2304 19.6428 58.8789C21.2124 54.5552 23.1493 50.4081 25.4534 46.4375Z" fill="black"/>
</svg>
