<svg width="71" height="71" viewBox="0 0 71 71" fill="none" xmlns="http://www.w3.org/2000/svg">
<path opacity="0.984" fill-rule="evenodd" clip-rule="evenodd" d="M44.0393 0.5C44.5406 0.5 45.0418 0.5 45.5432 0.5C47.6914 2.26092 49.5827 4.26614 51.217 6.51563C53.3632 10.2409 53.9785 14.2058 53.0627 18.4102C57.9109 17.379 62.3316 18.3132 66.3244 21.2129C67.9968 22.68 69.5462 24.2523 70.9729 25.9297C70.9729 26.431 70.9729 26.9323 70.9729 27.4336C69.4584 29.1988 67.8178 30.8622 66.051 32.4238C64.1229 33.7867 62.0037 34.7209 59.6936 35.2266C57.6253 32.9285 55.2782 30.9916 52.6526 29.416C50.0364 28.067 47.2565 27.3378 44.3127 27.2285C44.0685 22.8487 42.5875 18.9523 39.8694 15.5391C38.7115 14.2443 37.5037 12.991 36.2463 11.7793C36.7518 9.46981 37.686 7.35066 39.049 5.42188C40.6106 3.65505 42.2741 2.01442 44.0393 0.5Z" fill="black"/>
<path opacity="0.981" fill-rule="evenodd" clip-rule="evenodd" d="M64.2737 0.5C66.0966 0.5 67.9196 0.5 69.7424 0.5C69.9457 0.67822 70.1737 0.837725 70.426 0.978516C70.5897 1.25405 70.7719 1.5047 70.9729 1.73047C70.9729 3.59896 70.9729 5.46744 70.9729 7.33594C70.4691 10.8274 69.0564 13.9035 66.7346 16.5645C66.5979 16.6556 66.4612 16.6556 66.3245 16.5645C63.5794 14.978 60.6171 14.1349 57.4377 14.0352C57.3003 10.8666 56.4573 7.90436 54.9085 5.14844C54.8173 5.01172 54.8173 4.875 54.9085 4.73828C57.6398 2.44951 60.7615 1.03676 64.2737 0.5Z" fill="black"/>
<path opacity="0.984" fill-rule="evenodd" clip-rule="evenodd" d="M31.051 13.625C31.6772 13.5721 32.2697 13.6861 32.8283 13.9668C34.7851 15.7402 36.5396 17.6771 38.092 19.7773C40.193 23.5402 40.8082 27.5051 39.9377 31.6719C45.0675 30.4875 49.6703 31.5584 53.7463 34.8848C54.9996 36.1381 56.2528 37.3912 57.5061 38.6445C57.9618 39.4648 57.9618 40.2852 57.5061 41.1055C56.1617 42.4498 54.8172 43.7943 53.4729 45.1387C51.4467 46.7781 49.1452 47.8491 46.5686 48.3516C45.2259 47.1 43.8814 45.8467 42.5354 44.5918C39.1535 41.9984 35.3254 40.6084 31.051 40.4219C30.8645 36.1475 29.4745 32.3194 26.8811 28.9375C25.6261 27.5915 24.3728 26.247 23.1213 24.9043C23.6237 22.3277 24.6948 20.0262 26.3342 18C27.6786 16.6556 29.023 15.3111 30.3674 13.9668C30.6155 13.8633 30.8433 13.7494 31.051 13.625Z" fill="black"/>
<path opacity="0.987" fill-rule="evenodd" clip-rule="evenodd" d="M18.0627 26.75C18.5885 26.7562 19.0899 26.87 19.5666 27.0918C21.4264 28.8142 23.1354 30.6599 24.6936 32.6289C26.9761 36.4156 27.637 40.4715 26.676 44.7969C31.7245 43.7053 36.2817 44.7307 40.3479 47.8731C41.7875 49.267 43.1775 50.7026 44.5178 52.1797C44.7967 52.8828 44.7512 53.5664 44.3811 54.2305C42.6587 56.0903 40.813 57.7992 38.8439 59.3574C33.7732 62.2869 28.5779 62.5147 23.258 60.041C22.1163 59.3335 21.0225 58.5587 19.9768 57.7168C17.2521 55.1293 14.6772 52.4177 12.2521 49.582C9.61616 45.3483 9.0237 40.8365 10.4748 36.0469C11.105 34.2386 12.0165 32.598 13.2092 31.125C14.5536 29.7806 15.898 28.4362 17.2424 27.0918C17.531 26.9763 17.8044 26.8624 18.0627 26.75Z" fill="black"/>
<path opacity="0.936" fill-rule="evenodd" clip-rule="evenodd" d="M3.84396 70.5C3.29709 70.5 2.75021 70.5 2.20334 70.5C2.00005 70.3218 1.77218 70.1623 1.51974 70.0215C1.35615 69.746 1.17386 69.4953 0.97287 69.2696C0.97287 68.7227 0.97287 68.1758 0.97287 67.6289C4.72011 63.6764 8.54824 59.7799 12.4572 55.9395C12.5484 55.8483 12.6395 55.8483 12.7307 55.9395C13.6649 56.8737 14.5992 57.808 15.5334 58.7422C15.6246 58.8334 15.6246 58.9245 15.5334 59.0157C11.693 62.9247 7.79649 66.7528 3.84396 70.5Z" fill="black"/>
</svg>
