<svg width="71" height="71" viewBox="0 0 71 71" fill="none" xmlns="http://www.w3.org/2000/svg">
<path opacity="0.978" fill-rule="evenodd" clip-rule="evenodd" d="M23.8191 0.5C24.3204 0.5 24.8217 0.5 25.323 0.5C27.5384 1.422 28.3359 3.06263 27.7156 5.42188C27.3775 6.28032 26.9673 7.10063 26.4851 7.88281C25.857 9.34008 25.857 10.7984 26.4851 12.2578C27.7493 13.9046 27.9771 15.6819 27.1687 17.5898C26.2088 19.0382 24.8644 19.699 23.1355 19.5723C23.0539 19.4271 23.0084 19.2677 22.9988 19.0938C23.6924 17.4172 23.7152 15.7309 23.0671 14.0352C21.6336 12.1083 21.3145 10.012 22.1101 7.74609C22.7141 6.81136 23.17 5.80876 23.4773 4.73828C23.5874 3.67808 23.519 2.6299 23.2722 1.59375C23.2424 1.10624 23.4248 0.741656 23.8191 0.5Z" fill="#C2EAFB"/>
<path opacity="0.978" fill-rule="evenodd" clip-rule="evenodd" d="M34.3464 0.5C34.8478 0.5 35.349 0.5 35.8503 0.5C38.0221 1.37982 38.8196 2.97487 38.2429 5.28516C37.907 6.13933 37.4968 6.95965 37.0124 7.74609C36.1894 9.90021 36.4628 11.9054 37.8328 13.7617C38.6565 16.3517 37.8589 18.2429 35.4402 19.4355C34.8576 19.6219 34.2651 19.6674 33.6628 19.5723C33.5716 19.4355 33.4806 19.2988 33.3894 19.1621C34.1337 17.6365 34.2476 16.0642 33.7312 14.4453C33.321 13.6706 32.9109 12.8958 32.5007 12.1211C32.045 10.7532 32.045 9.38601 32.5007 8.01953C33.0167 7.09271 33.4725 6.13568 33.8679 5.14844C34.1373 3.98168 34.1144 2.81957 33.7996 1.66211C33.7495 1.14754 33.9318 0.76017 34.3464 0.5Z" fill="#DAF2FD"/>
<path opacity="0.978" fill-rule="evenodd" clip-rule="evenodd" d="M44.7371 0.5C45.2839 0.5 45.8308 0.5 46.3777 0.5C48.6997 1.51161 49.4517 3.24337 48.6336 5.69531C48.2583 6.4917 47.8481 7.26643 47.4031 8.01953C46.7184 10.106 47.0374 12.02 48.3601 13.7617C49.1577 16.2013 48.4514 18.047 46.241 19.2988C45.5843 19.5996 44.9007 19.6908 44.1902 19.5723C44.0434 19.4712 43.9522 19.3345 43.9168 19.1621C44.7283 17.5276 44.7967 15.8642 44.1218 14.1719C42.2656 11.549 42.2201 8.90581 43.9851 6.24219C44.7137 4.69933 44.7821 3.12706 44.1902 1.52539C44.2577 1.11413 44.44 0.772337 44.7371 0.5Z" fill="#DAF2FD"/>
<path opacity="0.985" fill-rule="evenodd" clip-rule="evenodd" d="M70.3035 31.1249C70.3035 31.8541 70.3035 32.5833 70.3035 33.3124C69.3552 35.8609 67.5322 36.8863 64.8347 36.3886C64.0903 36.1305 63.4067 35.7659 62.7839 35.2949C62.2242 35.19 61.6773 35.2355 61.1433 35.4316C60.4559 35.8659 59.7723 36.2989 59.0925 36.7304C58.926 34.3015 57.7867 32.4785 55.6746 31.2617C56.28 30.798 56.9179 30.3651 57.5886 29.9628C58.1313 29.403 58.3363 28.7421 58.2039 27.9804C57.3665 25.8321 57.7994 23.9864 59.5027 22.4433C61.6814 21.2394 63.6639 21.49 65.45 23.1953C66.2037 24.2314 66.5455 25.3936 66.4753 26.6816C66.5313 26.9989 66.6453 27.295 66.8171 27.5703C67.3978 28.0088 68.013 28.3963 68.6628 28.7324C69.4357 29.3941 69.9826 30.1916 70.3035 31.1249Z" fill="#FAF097"/>
<path fill-rule="evenodd" clip-rule="evenodd" d="M34.6199 25.793C27.3727 32.5432 25.5042 40.5641 29.0144 49.8555C29.0769 49.9646 29.1681 50.0101 29.2878 49.9922C29.2878 50.0834 29.2423 50.1289 29.1511 50.1289C28.6021 50.2989 28.0552 50.2989 27.5105 50.1289C26.8949 48.7701 25.8466 47.9269 24.366 47.5996C22.9233 47.756 21.8979 47.1865 21.2898 45.8906C21.1986 45.526 21.1986 45.1615 21.2898 44.7969C21.9782 43.6952 22.6161 42.5559 23.2039 41.3789C23.6676 39.8682 23.1434 38.8883 21.6316 38.4395C21.3126 38.3483 20.9935 38.3483 20.6746 38.4395C17.2868 39.6314 14.1878 41.3175 11.3777 43.4981C10.3841 44.4226 9.47264 45.4023 8.64332 46.4375C7.01013 45.8871 5.82524 46.3884 5.08863 47.9414C4.56386 44.4353 5.27023 41.1995 7.20777 38.2344C10.2338 33.9496 14.1759 30.7823 19.0339 28.7324C24.0116 26.6204 29.2069 25.6405 34.6199 25.793Z" fill="#AF602D"/>
<path opacity="0.997" fill-rule="evenodd" clip-rule="evenodd" d="M34.6199 25.793C39.6374 25.9308 44.3771 27.1384 48.8386 29.416C49.5886 29.8712 50.3179 30.3497 51.0261 30.8516C49.3905 31.7822 47.6589 32.5342 45.8308 33.1074C43.6205 33.7135 41.3873 34.2148 39.1316 34.6113C34.5836 36.4045 32.3506 39.7541 32.4324 44.6602C32.0222 44.9566 31.6804 45.3211 31.407 45.7539C30.8152 46.9369 30.3596 48.1674 30.0398 49.4453C29.844 49.7104 29.5934 49.8927 29.2878 49.9922C29.1681 50.0101 29.0769 49.9646 29.0144 49.8555C25.5041 40.5641 27.3727 32.5432 34.6199 25.793Z" fill="#C66C32"/>
<path opacity="0.999" fill-rule="evenodd" clip-rule="evenodd" d="M55.6746 31.2618C57.7867 32.4786 58.926 34.3016 59.0925 36.7305C59.1137 37.9014 58.8403 38.9951 58.2722 40.0118C56.4936 41.6339 54.7618 43.3202 53.0769 45.0703C51.6712 44.9186 50.6458 45.4655 50.0007 46.711C49.7462 47.2468 49.5183 47.7936 49.3171 48.3516C49.0239 48.7943 48.6137 49.0222 48.0867 49.0352C47.2542 48.7527 46.4112 48.7071 45.5574 48.8985C44.6847 47.9378 43.5909 47.3682 42.2761 47.1895C40.8596 47.0194 39.5836 47.3612 38.448 48.2149C38.0676 46.1999 36.9284 44.81 35.03 44.045C34.0611 43.8444 33.1953 44.0495 32.4324 44.6602C32.3506 39.7542 34.5836 36.4046 39.1316 34.6114C41.3873 34.2149 43.6205 33.7135 45.8308 33.1075C47.6589 32.5342 49.3906 31.7822 51.0261 30.8516C52.6259 30.4487 54.1753 30.5854 55.6746 31.2618Z" fill="#AF602D"/>
<path fill-rule="evenodd" clip-rule="evenodd" d="M27.5105 50.1289C25.6049 49.9635 24.2833 50.7382 23.5457 52.4532C21.4524 51.0037 19.356 51.0037 17.2566 52.4532C17.152 50.8071 16.3774 49.5994 14.9324 48.8301C14.597 48.7292 14.2552 48.6609 13.907 48.625C13.26 48.7318 12.6448 48.9369 12.0613 49.2403C11.7878 49.3315 11.5144 49.3315 11.241 49.2403C10.4535 48.2366 9.58767 47.3024 8.64331 46.4375C9.47263 45.4023 10.3841 44.4226 11.3777 43.4981C14.1878 41.3176 17.2868 39.6314 20.6746 38.4395C20.9935 38.3483 21.3126 38.3483 21.6316 38.4395C23.1434 38.8883 23.6676 39.8682 23.2039 41.3789C22.6161 42.556 21.9782 43.6952 21.2898 44.7969C21.1986 45.1615 21.1986 45.526 21.2898 45.8907C21.8979 47.1865 22.9233 47.7561 24.366 47.5996C25.8466 47.9269 26.8949 48.7701 27.5105 50.1289Z" fill="#9F5423"/>
<path opacity="0.994" fill-rule="evenodd" clip-rule="evenodd" d="M58.2722 40.0117C63.7533 43.1371 65.9179 47.8312 64.7664 54.0938C64.4993 54.9919 64.1575 55.8577 63.741 56.6914C62.3738 56.6914 61.0066 56.6914 59.6394 56.6914C60.8799 54.7212 61.0393 52.6704 60.1179 50.5391C59.1973 49.4195 58.0351 49.055 56.6316 49.4453C56.0355 49.3415 55.6025 49.0226 55.3328 48.4883C55.1184 46.9584 54.3664 45.819 53.0769 45.0703C54.7618 43.3202 56.4936 41.6339 58.2722 40.0117Z" fill="#C66D33"/>
<path fill-rule="evenodd" clip-rule="evenodd" d="M38.448 48.2149C36.2873 50.1157 35.8088 52.3944 37.0125 55.0508C37.3247 55.6591 37.7577 56.1604 38.3113 56.5547C36.5126 56.6909 34.6896 56.7364 32.8425 56.6914C31.3885 54.6412 30.1581 52.4537 29.1511 50.1289C29.2423 50.1289 29.2878 50.0834 29.2878 49.9922C29.5934 49.8927 29.844 49.7104 30.0398 49.4453C30.3596 48.1674 30.8153 46.937 31.407 45.7539C31.6804 45.3211 32.0222 44.9566 32.4324 44.6602C33.1953 44.0495 34.0611 43.8444 35.03 44.045C36.9284 44.81 38.0676 46.1999 38.448 48.2149Z" fill="#06C654"/>
<path fill-rule="evenodd" clip-rule="evenodd" d="M53.0769 45.0703C54.3664 45.8189 55.1184 46.9583 55.3328 48.4882C55.6025 49.0225 56.0355 49.3415 56.6316 49.4453C58.0351 49.0549 59.1972 49.4194 60.1179 50.539C61.0393 52.6703 60.8798 54.7211 59.6394 56.6913C54.672 56.6913 49.7045 56.6913 44.7371 56.6913C43.3126 54.5435 43.153 52.3105 44.2585 49.9921C44.6379 49.5437 45.0709 49.1792 45.5574 48.8984C46.4112 48.707 47.2542 48.7526 48.0867 49.0351C48.6137 49.0221 49.0239 48.7942 49.3171 48.3515C49.5182 47.7936 49.7462 47.2467 50.0007 46.7109C50.6458 45.4654 51.6712 44.9185 53.0769 45.0703Z" fill="#04C654"/>
<path opacity="0.995" fill-rule="evenodd" clip-rule="evenodd" d="M8.64331 46.4375C9.58767 47.3024 10.4535 48.2366 11.241 49.2402C11.5144 49.3314 11.7878 49.3314 12.0613 49.2402C12.6448 48.9368 13.26 48.7318 13.907 48.625C14.2552 48.6608 14.597 48.7292 14.9324 48.8301C16.3774 49.5994 17.152 50.807 17.2566 52.4531C15.8816 53.5172 15.198 54.9299 15.2058 56.6914C11.0584 56.6686 6.91129 56.6914 2.7644 56.7597C2.12654 56.9875 1.53409 57.2838 0.987061 57.6484C0.729007 57.0548 0.501142 56.4624 0.303467 55.8711C0.303467 55.0963 0.303467 54.3216 0.303467 53.5469C1.00936 51.8924 2.2854 51.0949 4.13159 51.1543C4.2911 50.9947 4.4506 50.8353 4.61011 50.6758C4.76066 49.7625 4.92017 48.8511 5.08862 47.9414C5.82524 46.3884 7.01012 45.8871 8.64331 46.4375Z" fill="#02B62F"/>
<path fill-rule="evenodd" clip-rule="evenodd" d="M45.5574 48.8985C45.0709 49.1793 44.638 49.5438 44.2586 49.9922C43.1531 52.3106 43.3126 54.5436 44.7371 56.6914C42.6863 56.6914 40.6355 56.6914 38.5847 56.6914C38.4935 56.6459 38.4025 56.6002 38.3113 56.5547C37.7577 56.1604 37.3247 55.6591 37.0125 55.0508C35.8088 52.3944 36.2873 50.1157 38.448 48.2149C39.5836 47.3612 40.8596 47.0194 42.2761 47.1895C43.591 47.3682 44.6847 47.9377 45.5574 48.8985Z" fill="#F75646"/>
<path fill-rule="evenodd" clip-rule="evenodd" d="M27.5105 50.1289C28.0552 50.2988 28.6021 50.2988 29.1511 50.1289C30.1581 52.4537 31.3885 54.6412 32.8425 56.6914C30.4728 56.6914 28.1029 56.6914 25.7332 56.6914C25.6901 54.9188 24.9608 53.5061 23.5457 52.4531C24.2833 50.7381 25.6049 49.9635 27.5105 50.1289Z" fill="#04B630"/>
<path fill-rule="evenodd" clip-rule="evenodd" d="M23.5457 52.4531C24.9608 53.5061 25.6901 54.9188 25.7332 56.6914C22.224 56.6914 18.715 56.6914 15.2058 56.6914C15.198 54.9299 15.8816 53.5172 17.2566 52.4531C19.356 51.0036 21.4524 51.0036 23.5457 52.4531Z" fill="#E63826"/>
<path fill-rule="evenodd" clip-rule="evenodd" d="M38.3113 56.5547C38.4025 56.6002 38.4935 56.6459 38.5847 56.6914C36.6492 56.8276 34.6896 56.8731 32.7058 56.8281C30.3577 56.8732 28.0334 56.8277 25.7332 56.6914C28.1029 56.6914 30.4728 56.6914 32.8425 56.6914C34.6896 56.7364 36.5126 56.6909 38.3113 56.5547Z" fill="#99DDDD"/>
<path opacity="0.998" fill-rule="evenodd" clip-rule="evenodd" d="M38.5847 56.6914C40.6355 56.6914 42.6863 56.6914 44.7371 56.6914C49.7045 56.6914 54.672 56.6914 59.6394 56.6914C61.0066 56.6914 62.3738 56.6914 63.741 56.6914C65.1545 56.6687 66.5672 56.6914 67.9792 56.7597C69.1303 57.0682 69.9049 57.7746 70.3035 58.8789C70.3035 59.5625 70.3035 60.2461 70.3035 60.9296C69.413 62.7421 67.9546 63.4713 65.9285 63.1171C54.0339 63.1171 42.1394 63.1171 30.2449 63.1171C30.3953 60.7507 31.2156 58.6544 32.7058 56.8281C34.6896 56.8731 36.6492 56.8275 38.5847 56.6914Z" fill="#C1E9FA"/>
<path fill-rule="evenodd" clip-rule="evenodd" d="M15.2058 56.6914C18.715 56.6914 22.224 56.6914 25.7332 56.6914C28.0334 56.8277 30.3577 56.8733 32.7058 56.8281C31.2156 58.6544 30.3953 60.7507 30.2449 63.1172C21.7228 63.1172 13.2006 63.1172 4.67847 63.1172C2.65228 63.4713 1.19395 62.7422 0.303467 60.9297C0.303467 60.2461 0.303467 59.5625 0.303467 58.8789C0.565525 58.4919 0.793389 58.0817 0.987061 57.6485C1.53409 57.2838 2.12654 56.9876 2.7644 56.7598C6.91129 56.6914 11.0584 56.6686 15.2058 56.6914Z" fill="#A8E0F5"/>
<path fill-rule="evenodd" clip-rule="evenodd" d="M4.67847 63.1172C13.2006 63.1172 21.7228 63.1172 30.2449 63.1172C30.3385 65.7716 31.0678 68.2325 32.4324 70.5C25.5964 70.5 18.7605 70.5 11.9246 70.5C9.54187 69.9647 7.6506 68.6887 6.25073 66.6719C5.63276 65.5228 5.10867 64.3378 4.67847 63.1172Z" fill="#C2EAFB"/>
<path opacity="0.998" fill-rule="evenodd" clip-rule="evenodd" d="M30.2449 63.1172C42.1394 63.1172 54.0339 63.1172 65.9285 63.1172C65.3946 64.7318 64.6426 66.2357 63.6726 67.6289C62.3164 69.1381 60.653 70.0952 58.6824 70.5C49.9324 70.5 41.1824 70.5 32.4324 70.5C31.0678 68.2325 30.3385 65.7716 30.2449 63.1172Z" fill="#DAF2FD"/>
</svg>
