<svg width="88" height="55" viewBox="0 0 88 55" fill="none" xmlns="http://www.w3.org/2000/svg">
<path d="M42.5764 0.471611C41.0144 0.879093 39.6391 1.99968 38.926 3.45982C38.5864 4.15594 38.5015 4.56343 38.5185 5.75192C38.5185 6.54991 38.6034 7.36488 38.7223 7.55164C38.909 7.90819 38.8751 7.92517 37.2621 8.2138C23.9 10.6078 12.7791 20.71 9.06083 33.8853C8.60241 35.4813 7.85536 39.2844 7.85536 39.9806C7.85536 40.1843 13.1017 40.2183 43.8667 40.2183H79.8611L79.7593 39.4033C79.2499 35.5492 77.9765 31.2027 76.3806 27.9428C75.1751 25.4809 72.8151 21.9154 71.0663 19.929C65.8539 14.0035 58.7059 9.8777 51.0317 8.34963C48.8754 7.90819 48.8075 7.89121 48.9942 7.55164C49.0961 7.3479 49.181 6.54991 49.198 5.75192C49.198 4.4276 49.1471 4.22386 48.6207 3.23911C47.9755 2.05061 47.4322 1.52428 46.1928 0.896072C45.276 0.437653 43.4932 0.216934 42.5764 0.471611ZM42.7462 14.9882C43.3574 15.2429 43.8498 15.99 43.8498 16.6521C43.8498 17.2973 43.2555 18.0953 42.6273 18.282C42.3217 18.3839 41.5067 18.5028 40.8446 18.5707C37.9073 18.8254 33.9004 20.1667 31.1329 21.7966C26.0393 24.8018 22.338 29.1822 20.0799 34.8531C19.4686 36.3811 18.416 36.8565 17.2445 36.1434C16.4974 35.702 16.2767 34.8531 16.6163 33.7834C17.6519 30.6763 20.2666 26.4827 22.8643 23.8001C28.0428 18.4179 34.0192 15.5825 41.9482 14.7675C42.067 14.7675 42.4236 14.8524 42.7462 14.9882Z" fill="black"/>
<path d="M0.962095 44.361C0.554612 44.7685 0.384827 45.0911 0.384827 45.4646C0.384827 47.1285 3.52585 50.9317 6.17449 52.4937C6.76874 52.8333 7.85536 53.3596 8.56846 53.6313C11.336 54.7009 9.723 54.667 44.5289 54.616L76.1938 54.5651L77.5521 54.1746C79.1141 53.7332 81.0157 52.8842 82.1702 52.0862C84.6321 50.4054 87.3147 46.9587 87.3147 45.4646C87.3147 45.0911 87.1449 44.7685 86.7374 44.361L86.1602 43.7838H43.8498H1.53936L0.962095 44.361Z" fill="black"/>
</svg>
