<svg width="31" height="31" viewBox="0 0 31 31" fill="none" xmlns="http://www.w3.org/2000/svg">
<path opacity="0.977" fill-rule="evenodd" clip-rule="evenodd" d="M14.666 0.0992499C20.8241 -0.0406072 25.5079 2.48685 28.7175 7.68163C30.8462 11.6803 31.2073 15.8326 29.8007 20.1384C28.7231 22.4882 26.8876 23.5413 24.2945 23.2977C22.5829 22.9997 21.3192 22.087 20.5033 20.5597C18.4688 22.2565 16.1619 22.7681 13.5828 22.0942C11.1913 21.2874 9.57657 19.6927 8.73853 17.3101C7.93895 14.2388 8.71127 11.6412 11.0554 9.51705C13.3196 7.81926 15.7868 7.4582 18.4572 8.43386C19.003 8.67144 19.5145 8.96228 19.9918 9.30643C20.1695 8.22666 20.8014 7.77533 21.8874 7.95244C22.3788 8.12292 22.7098 8.4539 22.8803 8.94537C22.8823 12.2165 22.9225 15.4861 23.0006 18.7543C23.3257 19.781 24.0278 20.3426 25.1069 20.4393C26.2471 20.2822 26.9492 19.6403 27.2131 18.5136C28.3604 14.038 27.3775 10.1064 24.2644 6.71879C20.8613 3.49893 16.8795 2.46588 12.3191 3.61964C8.44619 4.88487 5.78834 7.42233 4.34556 11.2321C3.01072 15.581 3.77297 19.5127 6.63232 23.0269C9.63392 26.2743 13.3348 27.5882 17.7351 26.9686C19.3244 26.6751 20.8087 26.1134 22.1882 25.2836C23.3239 25.0981 23.9658 25.5694 24.1139 26.6978C24.0624 27.452 23.6813 27.9635 22.9705 28.2323C19.2436 30.211 15.3521 30.6122 11.2961 29.4359C6.28153 27.7511 2.96173 24.3912 1.33668 19.3561C-0.0401621 14.2044 0.922678 9.55063 4.22521 5.39488C6.99765 2.24842 10.478 0.483207 14.666 0.0992499ZM15.6891 10.8109C17.7448 10.9607 19.1189 12.0038 19.8112 13.9401C20.2917 16.1915 19.5395 17.8865 17.5546 19.0251C15.5558 19.8248 13.8207 19.4337 12.3492 17.8517C11.2892 16.3861 11.1287 14.8215 11.8678 13.1578C12.7253 11.6913 13.9991 10.909 15.6891 10.8109Z" fill="black"/>
</svg>
