<svg width="31" height="31" viewBox="0 0 31 31" fill="none" xmlns="http://www.w3.org/2000/svg">
<path opacity="0.986" fill-rule="evenodd" clip-rule="evenodd" d="M14.4399 0.09375C15.2993 0.09375 16.1586 0.09375 17.018 0.09375C22.775 0.827689 26.9254 3.79644 29.4692 9C30.1462 10.5418 30.5662 12.1434 30.7289 13.8047C30.7289 14.6641 30.7289 15.5234 30.7289 16.3828C29.995 22.1398 27.0262 26.2902 21.8227 28.834C20.2809 29.511 18.6793 29.931 17.018 30.0938C16.1586 30.0938 15.2993 30.0938 14.4399 30.0938C8.68287 29.3598 4.53249 26.391 1.98871 21.1875C1.31164 19.6457 0.891718 18.0441 0.728943 16.3828C0.728943 15.5234 0.728943 14.6641 0.728943 13.8047C1.46288 8.04768 4.43163 3.8973 9.63519 1.35352C11.177 0.676447 12.7786 0.256525 14.4399 0.09375ZM14.6743 5.48438C18.7619 5.26727 21.8967 6.86883 24.0786 10.2891C25.3214 12.5303 25.6534 14.8937 25.0746 17.3789C24.0972 19.1699 22.6226 19.7852 20.6508 19.2246C19.9853 18.9601 19.4385 18.5402 19.0102 17.9648C17.3661 19.593 15.5106 19.8762 13.4438 18.8145C11.6492 17.538 11.0339 15.829 11.5981 13.6875C12.4941 11.5446 14.1054 10.5778 16.4321 10.7871C17.1307 10.9364 17.7655 11.2196 18.3364 11.6367C18.9272 11.5789 19.5229 11.5594 20.1235 11.5781C20.1333 12.7502 20.1235 13.9221 20.0942 15.0938C20.0772 15.3494 20.0479 15.6033 20.0063 15.8555C20.2409 17.3115 21.0808 17.9071 22.5258 17.6426C23.4743 17.1513 23.8454 16.3701 23.6391 15.2988C23.5694 11.5979 21.8311 9.03932 18.4243 7.62305C15.0548 6.60258 12.1544 7.35451 9.72308 9.87891C7.82031 12.2449 7.33199 14.8816 8.25824 17.7891C9.06748 19.9069 10.503 21.4402 12.5649 22.3887C15.0113 23.3267 17.3942 23.1899 19.7133 21.9785C19.9924 21.8146 20.2561 21.6291 20.5043 21.4219C20.8746 21.85 21.2164 22.2993 21.5297 22.7695C18.571 24.8752 15.3874 25.2756 11.9789 23.9707C8.65099 22.4056 6.70767 19.7982 6.14886 16.1484C5.89879 12.2056 7.39293 9.12943 10.6313 6.91992C11.8875 6.166 13.2352 5.68749 14.6743 5.48438Z" fill="black"/>
<path opacity="0.974" fill-rule="evenodd" clip-rule="evenodd" d="M15.143 12.457C16.7622 12.294 17.8266 12.9777 18.3364 14.5078C18.5278 16.1281 17.854 17.1925 16.3149 17.7011C14.6946 17.8926 13.6301 17.2187 13.1215 15.6797C12.9372 14.0543 13.611 12.9801 15.143 12.457Z" fill="black"/>
</svg>
