<svg width="71" height="71" viewBox="0 0 71 71" fill="none" xmlns="http://www.w3.org/2000/svg">
<g clip-path="url(#clip0_41_505)">
<path opacity="0.981" fill-rule="evenodd" clip-rule="evenodd" d="M42.7404 0.431641C43.4696 0.431641 44.1988 0.431641 44.9279 0.431641C45.8966 0.783961 46.6942 1.37641 47.3205 2.20898C50.2154 7.08874 53.3144 11.8283 56.6174 16.4277C59.2097 20.2889 61.4883 24.345 63.4533 28.5957C65.4876 33.0988 66.1712 37.7929 65.5041 42.6777C64.0561 49.4103 60.3191 54.4232 54.2932 57.7168C54.9441 56.0365 55.491 54.3047 55.9338 52.5215C56.9427 47.1915 56.4413 41.9962 54.4299 36.9355C52.4211 31.9146 49.9146 27.1751 46.9104 22.7168C43.4528 17.8299 40.1487 12.8396 36.9983 7.74609C38.1766 5.82279 39.3387 3.88595 40.4846 1.93555C41.1179 1.23004 41.8698 0.728733 42.7404 0.431641Z" fill="black"/>
<path opacity="0.989" fill-rule="evenodd" clip-rule="evenodd" d="M32.76 70.4316C30.9826 70.4316 29.2053 70.4316 27.4279 70.4316C18.3441 69.1841 11.8044 64.4444 7.80879 56.2129C5.62631 50.8784 5.39844 45.4553 7.1252 39.9433C8.83187 34.8441 11.1561 30.059 14.0979 25.5879C17.2879 20.8482 20.4781 16.1088 23.6682 11.3691C24.6597 9.79674 25.6167 8.20169 26.5393 6.58397C28.1664 4.92981 30.0576 4.54245 32.2131 5.42187C32.7708 5.70557 33.2493 6.09294 33.6486 6.58397C37.2156 12.3975 40.9526 18.0942 44.8596 23.6738C47.3263 27.4209 49.5138 31.3402 51.4221 35.4316C53.1315 39.2614 54.0657 43.2719 54.2248 47.4629C53.874 55.3898 50.5015 61.6561 44.1076 66.2617C40.6488 68.5613 36.8663 69.9512 32.76 70.4316ZM15.6701 38.5762C18.3247 38.34 20.0336 39.4793 20.7971 41.9941C21.1149 46.4547 22.71 50.374 25.5822 53.7519C26.5734 54.7437 27.6444 55.6324 28.7951 56.418C31.19 58.864 31.1445 61.2794 28.6584 63.664C27.4214 64.433 26.0997 64.6152 24.6936 64.2109C17.7839 61.6283 13.7052 56.6837 12.4572 49.3769C12.0189 46.6847 12.0189 43.9958 12.4572 41.3105C13.0919 39.8681 14.1628 38.9566 15.6701 38.5762Z" fill="black"/>
<path opacity="0.965" fill-rule="evenodd" clip-rule="evenodd" d="M16.3537 40.7637C17.3463 40.792 18.0526 41.2477 18.4729 42.1309C19.0971 49.1233 22.2416 54.6376 27.9064 58.6738C28.6732 60.4778 28.1263 61.6628 26.2658 62.2285C20.0446 60.4726 16.262 56.4166 14.9182 50.0605C14.411 47.3822 14.3199 44.6934 14.6447 41.9941C15.0156 41.2777 15.5854 40.8676 16.3537 40.7637Z" fill="black"/>
</g>
<defs>
<clipPath id="clip0_41_505">
<rect width="70" height="70" fill="white" transform="translate(0.97287 0.5)"/>
</clipPath>
</defs>
</svg>
