<svg width="34" height="31" viewBox="0 0 34 31" fill="none" xmlns="http://www.w3.org/2000/svg">
<path opacity="0.981" fill-rule="evenodd" clip-rule="evenodd" d="M28.1499 0.096753C30.3184 0.0335031 31.8742 0.969393 32.8177 2.90443C33.5569 5.2023 32.9602 7.06239 31.0278 8.48468C29.1732 9.46955 27.395 9.35254 25.6932 8.13372C24.3085 6.83363 23.8288 5.25431 24.2543 3.39577C24.9004 1.52103 26.1989 0.421362 28.1499 0.096753Z" fill="black"/>
<path opacity="0.987" fill-rule="evenodd" clip-rule="evenodd" d="M1.26644 3.11498C7.51358 3.10328 13.7607 3.11498 20.0077 3.15008C20.941 3.45996 21.3037 4.10339 21.0956 5.08036C20.9435 5.6068 20.6043 5.94603 20.0779 6.09814C13.784 6.14496 7.49014 6.14496 1.19624 6.09814C0.374585 5.75406 0.0353196 5.13405 0.178462 4.23805C0.366927 3.68703 0.729587 3.31268 1.26644 3.11498Z" fill="black"/>
<path opacity="0.98" fill-rule="evenodd" clip-rule="evenodd" d="M9.82985 10.6255C12.1441 10.3957 13.817 11.3082 14.8486 13.363C15.6008 15.6445 15.0276 17.5046 13.1289 18.9432C10.8853 20.105 8.88486 19.7892 7.12747 17.9956C6.82333 17.5974 6.57765 17.1646 6.39045 16.6971C4.72924 16.6737 3.06804 16.6503 1.40683 16.6269C0.245173 16.257 -0.117487 15.4967 0.318854 14.3456C0.566378 13.9349 0.929032 13.6892 1.40683 13.6086C3.06804 13.5853 4.72924 13.5618 6.39045 13.5384C7.04268 11.9738 8.18912 11.0028 9.82985 10.6255Z" fill="black"/>
<path opacity="0.965" fill-rule="evenodd" clip-rule="evenodd" d="M19.3759 13.5736C23.5407 13.5619 27.7055 13.5736 31.8701 13.6087C33.0318 13.9785 33.3944 14.7389 32.9581 15.8899C32.7106 16.3007 32.3479 16.5464 31.8701 16.627C27.7054 16.6738 23.5406 16.6738 19.3759 16.627C18.3987 16.3506 17.9893 15.7072 18.1476 14.6967C18.3484 14.0862 18.7578 13.7117 19.3759 13.5736Z" fill="black"/>
<path opacity="0.983" fill-rule="evenodd" clip-rule="evenodd" d="M21.973 21.0841C24.3021 20.936 25.9399 21.9187 26.8865 24.0322C28.692 24.0692 30.4936 24.1276 32.2913 24.2077C33.0487 24.6777 33.2944 25.3446 33.0283 26.2081C32.8187 26.6517 32.4794 26.9442 32.0105 27.0855C30.3025 27.1089 28.5945 27.1324 26.8865 27.1557C25.872 29.3946 24.1406 30.3539 21.6923 30.0336C19.8207 29.5658 18.6508 28.3959 18.1827 26.524C17.8494 24.313 18.6449 22.6517 20.5692 21.5404C21.0338 21.3504 21.5018 21.1983 21.973 21.0841Z" fill="black"/>
<path opacity="0.985" fill-rule="evenodd" clip-rule="evenodd" d="M1.19626 24.1023C5.50142 24.0906 9.80656 24.1023 14.1116 24.1374C14.9332 24.4815 15.2725 25.1015 15.1293 25.9975C14.9539 26.5473 14.5912 26.91 14.0414 27.0855C9.78304 27.1323 5.52476 27.1323 1.26645 27.0855C0.29995 26.7083 -0.0393089 26.0181 0.248667 25.0148C0.440305 24.5753 0.756169 24.271 1.19626 24.1023Z" fill="black"/>
</svg>
