<svg width="79" height="81" viewBox="0 0 79 81" fill="none" xmlns="http://www.w3.org/2000/svg">
<path opacity="0.986" fill-rule="evenodd" clip-rule="evenodd" d="M31.3242 0C32.4317 0 33.5391 0 34.6465 0C35.0127 0.17155 35.3027 0.435222 35.5166 0.791016C35.5957 3.63818 35.6221 6.48584 35.5957 9.33398C33.9082 9.33398 32.2208 9.33398 30.5332 9.33398C30.5068 6.48584 30.5332 3.63818 30.6123 0.791016C30.7745 0.445033 31.0118 0.181361 31.3242 0Z" fill="#FD7F86"/>
<path fill-rule="evenodd" clip-rule="evenodd" d="M34.6465 0C36.1758 0 37.705 0 39.2344 0C39.566 0.305856 39.8033 0.674996 39.9463 1.10742C40.0254 3.8491 40.0518 6.5913 40.0254 9.33398C39.9727 9.33398 39.9199 9.33398 39.8672 9.33398C38.4434 9.33398 37.0195 9.33398 35.5957 9.33398C35.6221 6.48584 35.5957 3.63818 35.5166 0.791016C35.3027 0.435222 35.0127 0.17155 34.6465 0Z" fill="#FE646F"/>
<path opacity="0.998" fill-rule="evenodd" clip-rule="evenodd" d="M14.2383 12.8145C14.0971 13.5956 14.0444 14.3866 14.0801 15.1875C12.6017 14.7804 11.1252 14.7804 9.65039 15.1875C9.67609 14.3891 9.62337 13.598 9.49218 12.8145C9.46583 9.49178 9.49218 6.16951 9.57128 2.84766C9.70312 2.50488 9.94042 2.26758 10.2832 2.13575C11.3379 2.03027 12.3926 2.03027 13.4473 2.13575C13.8577 2.34758 14.095 2.69034 14.1592 3.16407C14.2383 6.38043 14.2646 9.59722 14.2383 12.8145Z" fill="#97DA7A"/>
<path opacity="0.973" fill-rule="evenodd" clip-rule="evenodd" d="M9.49219 12.8145C9.62337 13.598 9.6761 14.389 9.65039 15.1875C9.0377 15.3353 8.45762 15.5726 7.91016 15.8994C7.24964 16.3248 6.61683 16.7732 6.01172 17.2441C4.87392 13.6521 2.89638 10.5935 0.079102 8.06836C-0.0263673 7.75195 -0.0263673 7.43555 0.079102 7.11914C1.13073 6.58021 2.21177 6.1056 3.32227 5.69531C3.65601 5.78302 3.97242 5.91485 4.27148 6.09082C6.45477 8.01402 8.195 10.2552 9.49219 12.8145Z" fill="#68CA44"/>
<path opacity="0.977" fill-rule="evenodd" clip-rule="evenodd" d="M17.5606 17.2441C16.559 16.2963 15.3989 15.6108 14.0801 15.1875C14.0444 14.3866 14.0971 13.5956 14.2383 12.8145C15.5163 10.2409 17.2565 7.99965 19.459 6.09082C19.758 5.91485 20.0744 5.78302 20.4082 5.69531C21.5186 6.1056 22.5998 6.58021 23.6514 7.11914C23.7569 7.43555 23.7569 7.75195 23.6514 8.06836C20.789 10.5767 18.7588 13.6353 17.5606 17.2441Z" fill="#68CA44"/>
<path opacity="0.996" fill-rule="evenodd" clip-rule="evenodd" d="M30.5332 9.33398C32.2207 9.33398 33.9081 9.33398 35.5957 9.33398C37.0195 9.33398 38.4434 9.33398 39.8672 9.33398C38.4721 9.49113 37.0483 9.54386 35.5957 9.49219C35.5338 10.6662 35.6129 11.8263 35.833 12.9727C37.5685 14.8665 39.3616 16.7123 41.2119 18.5098C41.5723 19.3641 41.7041 20.2604 41.6074 21.1992C43.0839 21.1992 44.5606 21.1992 46.0371 21.1992C45.7038 21.3524 45.3345 21.4052 44.9297 21.3574C38.1001 21.4099 31.2973 21.3573 24.5215 21.1992C24.4952 20.2486 24.5216 19.2994 24.6006 18.3516C24.6751 18.0753 24.7806 17.8116 24.917 17.5605C26.5998 15.7195 28.34 13.9265 30.1377 12.1816C30.5008 11.2739 30.6325 10.3247 30.5332 9.33398Z" fill="#8E9BA7"/>
<path fill-rule="evenodd" clip-rule="evenodd" d="M39.8672 9.33398C39.9198 9.33398 39.9727 9.33398 40.0254 9.33398C39.9991 10.1268 40.0255 10.9178 40.1045 11.707C41.7817 13.7011 43.5747 15.5995 45.4834 17.4023C45.7305 17.791 45.8887 18.213 45.958 18.668C46.0369 19.5101 46.0633 20.3538 46.0371 21.1992C44.5606 21.1992 43.0839 21.1992 41.6074 21.1992C41.7041 20.2604 41.5723 19.3641 41.2119 18.5098C39.3615 16.7123 37.5685 14.8665 35.833 12.9727C35.6129 11.8263 35.5338 10.6662 35.5957 9.49219C37.0483 9.54386 38.4721 9.49113 39.8672 9.33398Z" fill="#7A8C98"/>
<path opacity="0.995" fill-rule="evenodd" clip-rule="evenodd" d="M14.0801 15.1875C15.3989 15.6108 16.559 16.2963 17.5605 17.2441C18.7009 18.3115 19.3864 19.6298 19.6172 21.1992C14.4119 21.4095 9.19124 21.4095 3.95508 21.1992C4.35022 19.7232 5.03576 18.4049 6.01172 17.2441C6.61683 16.7732 7.24964 16.3248 7.91016 15.8994C8.45762 15.5726 9.0377 15.3353 9.65039 15.1875C11.1252 14.7804 12.6017 14.7804 14.0801 15.1875Z" fill="#FD9738"/>
<path opacity="0.998" fill-rule="evenodd" clip-rule="evenodd" d="M3.95507 21.1993C9.19123 21.4095 14.4119 21.4095 19.6172 21.1993C21.2519 21.1993 22.8868 21.1993 24.5215 21.1993C31.2973 21.3573 38.1 21.41 44.9297 21.3575C45.2946 21.5911 45.5846 21.9075 45.7998 22.3067C45.8789 25.5758 45.9053 28.8454 45.8789 32.1153C44.8303 31.9145 44.0657 32.2836 43.5849 33.2227C43.5058 35.4896 43.4794 37.7573 43.5058 40.0254C43.5585 51.0736 43.5057 62.0951 43.3476 73.0899C29.3729 73.1163 15.3984 73.0899 1.42382 73.0108C1.14127 72.8866 0.903962 72.7021 0.711903 72.4571C0.448941 55.7531 0.396207 39.0362 0.5537 22.3067C0.685531 21.753 1.02831 21.4102 1.58202 21.2784C2.37128 21.1994 3.1623 21.173 3.95507 21.1993Z" fill="#E19974"/>
<path fill-rule="evenodd" clip-rule="evenodd" d="M46.0371 21.1992C47.0931 21.1729 48.1479 21.1992 49.2012 21.2783C49.6889 21.4026 50.0316 21.6926 50.2295 22.1484C50.3086 25.4702 50.335 28.7924 50.3086 32.1152C48.8321 32.1152 47.3554 32.1152 45.8789 32.1152C45.9053 28.8453 45.8789 25.5757 45.7998 22.3066C45.5846 21.9074 45.2947 21.591 44.9297 21.3574C45.3345 21.4052 45.7038 21.3523 46.0371 21.1992Z" fill="#DC8758"/>
<path fill-rule="evenodd" clip-rule="evenodd" d="M14.5547 25.629C14.9275 25.6032 15.2966 25.6294 15.6621 25.7081C15.9521 25.7872 16.1367 25.9718 16.2158 26.2618C16.2685 29.4258 16.3213 32.5899 16.374 35.754C17.3797 40.636 20.3591 43.3254 25.3125 43.8223C29.6069 43.5887 32.5337 41.4793 34.0927 37.4942C34.2152 36.9172 34.3207 36.3371 34.4092 35.754C34.4618 32.5899 34.5147 29.4258 34.5674 26.2618C35.4229 25.3898 36.2139 25.4424 36.9404 26.42C37.0856 29.8001 37.0328 33.1753 36.7822 36.545C35.6472 41.9535 32.3514 45.1439 26.8945 46.1163C21.9301 46.5475 18.1068 44.6755 15.4248 40.5001C14.8701 39.4434 14.4483 38.336 14.1591 37.1778C13.9094 33.5437 13.8566 29.905 14.0009 26.2618C14.2186 26.0711 14.4031 25.8603 14.5547 25.629Z" fill="#FDEFD8"/>
<path opacity="0.998" fill-rule="evenodd" clip-rule="evenodd" d="M45.8789 32.1153C47.3554 32.1153 48.832 32.1153 50.3086 32.1153C57.9023 32.1153 65.4961 32.1153 73.0898 32.1153C73.6013 32.336 73.9968 32.7051 74.2763 33.2227C74.3554 35.4896 74.3818 37.7573 74.3554 40.0255C64.0722 40.0255 53.789 40.0255 43.5058 40.0255C43.4794 37.7573 43.5058 35.4896 43.5849 33.2227C44.0657 32.2836 44.8303 31.9145 45.8789 32.1153Z" fill="#FD8087"/>
<path fill-rule="evenodd" clip-rule="evenodd" d="M73.0898 32.1153C74.6728 32.0891 76.2549 32.1153 77.8359 32.1944C78.1185 32.3186 78.3558 32.5031 78.5479 32.7481C78.7801 35.1587 78.8592 37.5844 78.7852 40.0255C77.3086 40.0255 75.832 40.0255 74.3555 40.0255C74.3819 37.7573 74.3555 35.4896 74.2764 33.2227C73.9968 32.7051 73.6013 32.336 73.0898 32.1153Z" fill="#FD646F"/>
<path opacity="0.999" fill-rule="evenodd" clip-rule="evenodd" d="M43.5059 40.0254C53.7891 40.0254 64.0723 40.0254 74.3555 40.0254C74.3819 52.84 74.3555 65.6545 74.2764 78.4688C73.8516 79.7106 73.0341 80.5545 71.8242 81C63.123 81 54.4219 81 45.7207 81C44.722 80.5548 44.01 79.8165 43.585 78.7852C43.3611 76.8965 43.282 74.9981 43.3477 73.0898C43.5057 62.095 43.5585 51.0735 43.5059 40.0254Z" fill="#FDF0D9"/>
<path fill-rule="evenodd" clip-rule="evenodd" d="M74.3555 40.0254C75.832 40.0254 77.3086 40.0254 78.7852 40.0254C78.8116 52.9454 78.7852 65.8653 78.7061 78.7852C78.281 79.8165 77.569 80.5548 76.5703 81C74.9883 81 73.4062 81 71.8242 81C73.0342 80.5545 73.8516 79.7106 74.2764 78.4688C74.3555 65.6545 74.3819 52.84 74.3555 40.0254Z" fill="#FAE2C0"/>
<path fill-rule="evenodd" clip-rule="evenodd" d="M59.959 46.0371C61.2257 46.0108 62.4914 46.0371 63.7559 46.1162C65.0046 46.8929 65.0046 47.684 63.7559 48.4892C62.4902 48.5947 61.2246 48.5947 59.959 48.4892C59.2116 48.104 58.9743 47.4974 59.2471 46.6699C59.4681 46.4215 59.7054 46.2105 59.959 46.0371Z" fill="#909EA9"/>
<path fill-rule="evenodd" clip-rule="evenodd" d="M52.3652 46.1953C54.79 46.3 55.6601 47.513 54.9756 49.834C53.699 51.227 52.3806 51.2796 51.0205 49.9922C50.1814 48.2467 50.6296 46.9811 52.3652 46.1953Z" fill="#98DA7C"/>
<path fill-rule="evenodd" clip-rule="evenodd" d="M59.8008 50.625C63.8617 50.5986 67.9221 50.625 71.9824 50.7041C72.9021 51.0408 73.1394 51.6472 72.6943 52.5235C72.5023 52.7685 72.265 52.953 71.9824 53.0772C67.9747 53.1827 63.9668 53.1827 59.959 53.0772C59.2116 52.6919 58.9743 52.0854 59.2471 51.2578C59.4648 51.0672 59.6492 50.8563 59.8008 50.625Z" fill="#909EA9"/>
<path fill-rule="evenodd" clip-rule="evenodd" d="M59.6426 57.5859C61.12 57.5596 62.5967 57.5859 64.0723 57.665C64.987 58.5724 64.8816 59.3106 63.7559 59.8798C62.4376 59.9854 61.1191 59.9854 59.8008 59.8798C59.0219 59.161 58.9693 58.3964 59.6426 57.5859Z" fill="#8E9CA8"/>
<path fill-rule="evenodd" clip-rule="evenodd" d="M52.0488 57.7442C54.6241 57.5708 55.5997 58.7311 54.9756 61.2247C54.2534 62.2217 53.2777 62.5645 52.0488 62.253C50.8661 61.5545 50.4179 60.5262 50.7041 59.168C51.0778 58.61 51.5261 58.1354 52.0488 57.7442Z" fill="#98DA7C"/>
<path fill-rule="evenodd" clip-rule="evenodd" d="M59.959 62.0156C63.9672 61.9892 67.975 62.0156 71.9824 62.0947C73.246 62.894 73.246 63.685 71.9824 64.4678C67.9218 64.5733 63.8614 64.5733 59.8008 64.4678C58.921 63.5744 58.9737 62.757 59.959 62.0156Z" fill="#909EA9"/>
<path fill-rule="evenodd" clip-rule="evenodd" d="M59.8008 68.9765C61.1729 68.9503 62.544 68.9765 63.9141 69.0556C64.9688 69.794 64.9688 70.5321 63.9141 71.2705C62.5429 71.376 61.1719 71.376 59.8008 71.2705C59.3474 71.0501 59.1365 70.681 59.168 70.163C59.1569 69.6305 59.3678 69.235 59.8008 68.9765Z" fill="#8E9CA8"/>
<path fill-rule="evenodd" clip-rule="evenodd" d="M52.207 69.1348C54.8715 69.1868 55.7416 70.4524 54.8174 72.9316C53.1017 74.382 51.7305 74.1183 50.7041 72.1406C50.4508 70.7486 50.9519 69.7467 52.207 69.1348Z" fill="#98DA7C"/>
<path fill-rule="evenodd" clip-rule="evenodd" d="M59.8008 73.5645C63.9144 73.5381 68.0276 73.5645 72.1406 73.6436C73.1953 74.3819 73.1953 75.1201 72.1406 75.8584C68.0273 75.9639 63.914 75.9639 59.8008 75.8584C59.3236 75.6165 59.1127 75.221 59.168 74.6719C59.12 74.1429 59.3309 73.7736 59.8008 73.5645Z" fill="#8D9CA8"/>
</svg>
