<svg width="82" height="81" viewBox="0 0 82 81" fill="none" xmlns="http://www.w3.org/2000/svg">
<path opacity="0.993" fill-rule="evenodd" clip-rule="evenodd" d="M35.9331 0C36.5132 0 37.0932 0 37.6733 0C37.6733 2.53125 37.6733 5.0625 37.6733 7.59375C36.7768 7.59375 35.8804 7.59375 34.9839 7.59375C34.9839 6.75001 34.9839 5.90624 34.9839 5.0625C35.8276 5.0625 36.6714 5.0625 37.5151 5.0625C37.5151 4.21876 37.5151 3.37499 37.5151 2.53125C36.6714 2.53125 35.8276 2.53125 34.9839 2.53125C34.9405 1.77773 34.9932 1.03945 35.1421 0.316406C35.4278 0.233488 35.6914 0.128019 35.9331 0Z" fill="#F8C46E"/>
<path fill-rule="evenodd" clip-rule="evenodd" d="M37.6733 0C38.5699 0 39.4663 0 40.3628 0C40.3628 0.84375 40.3628 1.68751 40.3628 2.53125C40.1552 2.88613 40.0499 3.308 40.0464 3.79688C40.0499 4.28575 40.1552 4.70762 40.3628 5.0625C40.3628 5.90624 40.3628 6.75001 40.3628 7.59375C39.4663 7.59375 38.5699 7.59375 37.6733 7.59375C37.6733 5.0625 37.6733 2.53125 37.6733 0Z" fill="#F8BE71"/>
<path opacity="0.999" fill-rule="evenodd" clip-rule="evenodd" d="M40.3628 0C42.3139 0 44.2652 0 46.2163 0C46.2163 0.84375 46.2163 1.68751 46.2163 2.53125C45.8472 2.53125 45.478 2.53125 45.1089 2.53125C45.1089 3.37499 45.1089 4.21876 45.1089 5.0625C45.478 5.0625 45.8472 5.0625 46.2163 5.0625C46.2163 5.90624 46.2163 6.75001 46.2163 7.59375C44.2652 7.59375 42.3139 7.59375 40.3628 7.59375C40.3628 6.75001 40.3628 5.90624 40.3628 5.0625C41.1011 5.0625 41.8393 5.0625 42.5776 5.0625C42.5776 4.21876 42.5776 3.37499 42.5776 2.53125C41.8393 2.53125 41.1011 2.53125 40.3628 2.53125C40.3628 1.68751 40.3628 0.84375 40.3628 0Z" fill="#FAB378"/>
<path opacity="0.989" fill-rule="evenodd" clip-rule="evenodd" d="M46.2163 0C46.3745 0 46.5327 0 46.6909 0C47.1951 0.194712 47.7224 0.379283 48.2729 0.553711C48.6026 0.664016 48.8664 0.848586 49.064 1.10742C48.9064 3.24155 48.8537 5.40367 48.9058 7.59375C48.0092 7.59375 47.1128 7.59375 46.2163 7.59375C46.2163 6.75001 46.2163 5.90624 46.2163 5.0625C46.6909 5.0625 47.1655 5.0625 47.6401 5.0625C47.6401 4.21876 47.6401 3.37499 47.6401 2.53125C47.1655 2.53125 46.6909 2.53125 46.2163 2.53125C46.2163 1.68751 46.2163 0.84375 46.2163 0Z" fill="#FBAB7D"/>
<path opacity="0.987" fill-rule="evenodd" clip-rule="evenodd" d="M35.1421 0.316406C34.9932 1.03945 34.9405 1.77773 34.9839 2.53125C34.9839 3.37499 34.9839 4.21876 34.9839 5.0625C34.9839 5.90624 34.9839 6.75001 34.9839 7.59375C33.2963 7.59375 31.6089 7.59375 29.9214 7.59375C30.0332 3.99379 31.7735 1.568 35.1421 0.316406Z" fill="#F6CC69"/>
<path opacity="0.983" fill-rule="evenodd" clip-rule="evenodd" d="M49.064 1.10742C51.5405 2.53623 52.7534 4.69835 52.7026 7.59375C51.437 7.59375 50.1714 7.59375 48.9058 7.59375C48.8537 5.40367 48.9064 3.24155 49.064 1.10742Z" fill="#FCA581"/>
<path fill-rule="evenodd" clip-rule="evenodd" d="M34.9839 2.53125C35.8276 2.53125 36.6714 2.53125 37.5151 2.53125C37.5151 3.37499 37.5151 4.21876 37.5151 5.0625C36.6714 5.0625 35.8276 5.0625 34.9839 5.0625C34.9839 4.21876 34.9839 3.37499 34.9839 2.53125Z" fill="#D59C7C"/>
<path fill-rule="evenodd" clip-rule="evenodd" d="M40.3628 2.53125C41.1011 2.53125 41.8393 2.53125 42.5776 2.53125C42.5776 3.37499 42.5776 4.21876 42.5776 5.0625C41.8393 5.0625 41.1011 5.0625 40.3628 5.0625C40.1552 4.70762 40.0499 4.28575 40.0464 3.79688C40.0499 3.308 40.1552 2.88613 40.3628 2.53125Z" fill="#D59C7C"/>
<path fill-rule="evenodd" clip-rule="evenodd" d="M46.2163 2.53125C46.6909 2.53125 47.1655 2.53125 47.6401 2.53125C47.6401 3.37499 47.6401 4.21876 47.6401 5.0625C47.1655 5.0625 46.6909 5.0625 46.2163 5.0625C45.8472 5.0625 45.478 5.0625 45.1089 5.0625C45.1089 4.21876 45.1089 3.37499 45.1089 2.53125C45.478 2.53125 45.8472 2.53125 46.2163 2.53125Z" fill="#D59C7C"/>
<path fill-rule="evenodd" clip-rule="evenodd" d="M31.8198 8.85944C31.8198 9.70318 31.8198 10.5469 31.8198 11.3907C31.5034 11.3907 31.187 11.3907 30.8706 11.3907C29.1862 11.7813 28.4743 11.1485 28.7349 9.49225C28.814 9.20222 28.9986 9.01764 29.2886 8.93854C30.1307 8.85953 30.9744 8.83318 31.8198 8.85944Z" fill="#FF1D4E"/>
<path fill-rule="evenodd" clip-rule="evenodd" d="M31.8198 8.85938C32.6635 8.85938 33.5074 8.85938 34.3511 8.85938C34.3511 9.70312 34.3511 10.5469 34.3511 11.3906C33.5074 11.3906 32.6635 11.3906 31.8198 11.3906C31.8198 10.5469 31.8198 9.70312 31.8198 8.85938Z" fill="#FF365A"/>
<path fill-rule="evenodd" clip-rule="evenodd" d="M34.3511 8.85938C35.2476 8.85938 36.144 8.85938 37.0405 8.85938C37.0405 9.70312 37.0405 10.5469 37.0405 11.3906C36.144 11.3906 35.2476 11.3906 34.3511 11.3906C34.3511 10.5469 34.3511 9.70312 34.3511 8.85938Z" fill="#FF4E67"/>
<path fill-rule="evenodd" clip-rule="evenodd" d="M37.0405 8.85938C37.8842 8.85938 38.7281 8.85938 39.5718 8.85938C39.5718 9.70312 39.5718 10.5469 39.5718 11.3906C39.0972 11.3906 38.6226 11.3906 38.1479 11.3906C37.7789 11.3906 37.4096 11.3906 37.0405 11.3906C37.0405 10.5469 37.0405 9.70312 37.0405 8.85938Z" fill="#FF6773"/>
<path fill-rule="evenodd" clip-rule="evenodd" d="M39.5718 8.85938C40.4683 8.85938 41.3647 8.85938 42.2612 8.85938C42.2612 9.70312 42.2612 10.5469 42.2612 11.3906C41.3647 11.3906 40.4683 11.3906 39.5718 11.3906C39.5718 10.5469 39.5718 9.70312 39.5718 8.85938Z" fill="#FF8080"/>
<path fill-rule="evenodd" clip-rule="evenodd" d="M42.2612 8.85934C43.4226 8.83303 44.5827 8.85939 45.7417 8.93845C46.2896 9.27852 46.5004 9.77948 46.3745 10.4414C46.2446 10.9134 45.9282 11.2034 45.4253 11.3115C44.372 11.3905 43.3172 11.4169 42.2612 11.3906C42.2612 10.5468 42.2612 9.70309 42.2612 8.85934Z" fill="#FE9D8F"/>
<path fill-rule="evenodd" clip-rule="evenodd" d="M51.1206 8.85941C51.1206 9.70316 51.1206 10.5469 51.1206 11.3907C51.0679 11.3907 51.0151 11.3907 50.9624 11.3907C50.1565 11.5229 49.471 11.3119 48.9058 10.7579C48.7237 9.1039 49.462 8.47109 51.1206 8.85941Z" fill="#70E174"/>
<path fill-rule="evenodd" clip-rule="evenodd" d="M51.1206 8.85942C51.8608 8.83319 52.599 8.85955 53.3354 8.93852C53.6254 9.01762 53.8101 9.2022 53.8892 9.49223C54.0361 10.0846 53.957 10.6383 53.6519 11.1534C52.9874 11.3697 52.3019 11.4488 51.5952 11.3907C51.437 11.3907 51.2788 11.3907 51.1206 11.3907C51.1206 10.5469 51.1206 9.70317 51.1206 8.85942Z" fill="#31E296"/>
<path opacity="0.993" fill-rule="evenodd" clip-rule="evenodd" d="M30.8706 11.3906C31.187 11.3906 31.5034 11.3906 31.8198 11.3906C32.6635 11.3906 33.5074 11.3906 34.3511 11.3906C35.2476 11.3906 36.144 11.3906 37.0405 11.3906C37.4096 11.3906 37.7789 11.3906 38.1479 11.3906C38.1479 11.8125 38.1479 12.2344 38.1479 12.6562C37.6207 12.6562 37.0932 12.6562 36.5659 12.6562C34.1922 12.6299 31.8192 12.6563 29.4468 12.7354C28.645 13.2072 28.4604 13.8664 28.8931 14.7129C29.0359 14.903 29.2204 15.0348 29.4468 15.1084C31.8192 15.1875 34.1922 15.2139 36.5659 15.1875C37.0932 15.1875 37.6207 15.1875 38.1479 15.1875C38.1479 15.6094 38.1479 16.0312 38.1479 16.4531C37.5678 16.4531 36.9878 16.4531 36.4077 16.4531C35.5112 16.4531 34.6148 16.4531 33.7183 16.4531C32.4526 16.4531 31.187 16.4531 29.9214 16.4531C29.8951 17.5091 29.9214 18.5639 30.0005 19.6172C30.6903 21.2676 31.9296 21.9004 33.7183 21.5156C33.7183 22.5175 33.7183 23.5196 33.7183 24.5215C31.2103 24.1431 28.8901 23.2992 26.7573 21.9902C26.9151 19.1174 26.9677 16.2171 26.9155 13.2891C27.3272 12.9237 27.8018 12.6336 28.3394 12.4189C29.2152 12.1115 30.0589 11.7687 30.8706 11.3906Z" fill="#A8CBFC"/>
<path fill-rule="evenodd" clip-rule="evenodd" d="M46.3745 10.4414C47.2279 10.4782 48.0716 10.5837 48.9058 10.7578C49.471 11.3119 50.1565 11.5228 50.9624 11.3906C50.9624 11.8125 50.9624 12.2344 50.9624 12.6562C50.3823 12.6562 49.8023 12.6562 49.2222 12.6562C45.5308 12.6562 41.8393 12.6562 38.1479 12.6562C38.1479 12.2344 38.1479 11.8125 38.1479 11.3906C38.6226 11.3906 39.0972 11.3906 39.5718 11.3906C40.4683 11.3906 41.3647 11.3906 42.2612 11.3906C43.3172 11.4169 44.372 11.3906 45.4253 11.3115C45.9282 11.2035 46.2446 10.9134 46.3745 10.4414Z" fill="#B4D9FB"/>
<path opacity="0.993" fill-rule="evenodd" clip-rule="evenodd" d="M50.9624 11.3906C51.0151 11.3906 51.0679 11.3906 51.1206 11.3906C51.2788 11.3906 51.437 11.3906 51.5952 11.3906C54.2026 12.0751 56.4438 13.3935 58.3188 15.3457C59.2855 16.9994 59.259 18.6343 58.2397 20.25C56.1364 22.0931 53.7107 23.3587 50.9624 24.0469C51.0132 23.1726 50.9605 22.3288 50.8042 21.5156C51.5179 21.2517 52.0716 20.7771 52.4653 20.0918C52.6862 18.8926 52.7653 17.6797 52.7026 16.4531C52.1225 16.4531 51.5425 16.4531 50.9624 16.4531C50.9624 16.0312 50.9624 15.6094 50.9624 15.1875C51.8214 15.2411 52.6653 15.162 53.4937 14.9502C54.1073 14.259 54.1073 13.5734 53.4937 12.8936C52.6653 12.6817 51.8214 12.6026 50.9624 12.6562C50.9624 12.2344 50.9624 11.8125 50.9624 11.3906Z" fill="#BEE4FA"/>
<path fill-rule="evenodd" clip-rule="evenodd" d="M36.5659 12.6562C36.5659 13.5 36.5659 14.3437 36.5659 15.1875C34.1922 15.2139 31.8192 15.1875 29.4468 15.1084C29.2204 15.0348 29.0359 14.9029 28.8931 14.7129C28.4604 13.8664 28.645 13.2072 29.4468 12.7353C31.8192 12.6563 34.1922 12.6299 36.5659 12.6562Z" fill="#CA9380"/>
<path fill-rule="evenodd" clip-rule="evenodd" d="M36.5659 12.6562C37.0932 12.6562 37.6207 12.6562 38.1479 12.6562C41.8393 12.6562 45.5308 12.6562 49.2222 12.6562C49.2222 13.5 49.2222 14.3438 49.2222 15.1875C45.5308 15.1875 41.8393 15.1875 38.1479 15.1875C37.6207 15.1875 37.0932 15.1875 36.5659 15.1875C36.5659 14.3438 36.5659 13.5 36.5659 12.6562Z" fill="#D59C7C"/>
<path fill-rule="evenodd" clip-rule="evenodd" d="M49.2222 12.6563C49.8023 12.6563 50.3823 12.6563 50.9624 12.6563C51.8214 12.6026 52.6653 12.6817 53.4937 12.8936C54.1073 13.5735 54.1073 14.259 53.4937 14.9502C52.6653 15.162 51.8214 15.2411 50.9624 15.1875C50.3823 15.1875 49.8023 15.1875 49.2222 15.1875C49.2222 14.3438 49.2222 13.5 49.2222 12.6563Z" fill="#DCA37A"/>
<path opacity="0.992" fill-rule="evenodd" clip-rule="evenodd" d="M26.9155 13.2891C26.9677 16.2171 26.9151 19.1174 26.7573 21.9902C25.919 21.4674 25.128 20.8872 24.3843 20.25C22.9907 17.8118 23.4126 15.7287 25.6499 14.001C26.0165 13.6597 26.4384 13.4224 26.9155 13.2891Z" fill="#A3C6FC"/>
<path fill-rule="evenodd" clip-rule="evenodd" d="M38.1479 15.1875C41.8393 15.1875 45.5308 15.1875 49.2222 15.1875C49.8023 15.1875 50.3823 15.1875 50.9624 15.1875C50.9624 15.6094 50.9624 16.0312 50.9624 16.4531C49.855 16.4531 48.7476 16.4531 47.6401 16.4531C46.7436 16.4531 45.8472 16.4531 44.9507 16.4531C44.0541 16.4531 43.1578 16.4531 42.2612 16.4531C41.3647 16.4531 40.4683 16.4531 39.5718 16.4531C39.0972 16.4531 38.6226 16.4531 38.1479 16.4531C38.1479 16.0312 38.1479 15.6094 38.1479 15.1875Z" fill="#B5DBFB"/>
<path fill-rule="evenodd" clip-rule="evenodd" d="M33.7182 16.4531C33.7182 18.1407 33.7182 19.8281 33.7182 21.5156C31.9296 21.9004 30.6902 21.2676 30.0005 19.6172C29.9214 18.5639 29.8951 17.5091 29.9214 16.4531C31.187 16.4531 32.4526 16.4531 33.7182 16.4531Z" fill="#FCA482"/>
<path fill-rule="evenodd" clip-rule="evenodd" d="M33.7183 16.4531C34.6148 16.4531 35.5112 16.4531 36.4077 16.4531C36.4077 18.1407 36.4077 19.8281 36.4077 21.5156C35.5112 21.5156 34.6148 21.5156 33.7183 21.5156C33.7183 19.8281 33.7183 18.1407 33.7183 16.4531Z" fill="#FBAB7D"/>
<path fill-rule="evenodd" clip-rule="evenodd" d="M36.4077 16.4531C36.9878 16.4531 37.5678 16.4531 38.1479 16.4531C38.6226 16.4531 39.0972 16.4531 39.5718 16.4531C39.5718 18.1407 39.5718 19.8281 39.5718 21.5156C38.517 21.5156 37.4625 21.5156 36.4077 21.5156C36.4077 19.8281 36.4077 18.1407 36.4077 16.4531Z" fill="#FAB279"/>
<path fill-rule="evenodd" clip-rule="evenodd" d="M39.5718 16.4531C40.4683 16.4531 41.3647 16.4531 42.2612 16.4531C42.2612 18.1407 42.2612 19.8281 42.2612 21.5156C41.3647 21.5156 40.4683 21.5156 39.5718 21.5156C39.5718 19.8281 39.5718 18.1407 39.5718 16.4531Z" fill="#F9B875"/>
<path fill-rule="evenodd" clip-rule="evenodd" d="M42.2612 16.4531C43.1578 16.4531 44.0541 16.4531 44.9507 16.4531C44.9507 18.1407 44.9507 19.8281 44.9507 21.5156C44.0541 21.5156 43.1578 21.5156 42.2612 21.5156C42.2612 19.8281 42.2612 18.1407 42.2612 16.4531Z" fill="#F8BE71"/>
<path fill-rule="evenodd" clip-rule="evenodd" d="M44.9507 16.4531C45.8472 16.4531 46.7436 16.4531 47.6401 16.4531C47.6401 18.1407 47.6401 19.8281 47.6401 21.5156C46.7964 21.5156 45.9526 21.5156 45.1089 21.5156C45.0562 21.5156 45.0034 21.5156 44.9507 21.5156C44.9507 19.8281 44.9507 18.1407 44.9507 16.4531Z" fill="#F8C46E"/>
<path fill-rule="evenodd" clip-rule="evenodd" d="M47.6401 16.4531C48.7476 16.4531 49.855 16.4531 50.9624 16.4531C51.5425 16.4531 52.1225 16.4531 52.7026 16.4531C52.7653 17.6797 52.6862 18.8926 52.4653 20.0918C52.0716 20.7771 51.5179 21.2517 50.8042 21.5156C49.7495 21.5156 48.6949 21.5156 47.6401 21.5156C47.6401 19.8281 47.6401 18.1407 47.6401 16.4531Z" fill="#F6CC69"/>
<path fill-rule="evenodd" clip-rule="evenodd" d="M0.812012 20.25C7.87842 20.25 14.9448 20.25 22.0112 20.25C22.0112 22.7812 22.0112 25.3125 22.0112 27.8438C14.9448 27.8438 7.87842 27.8438 0.812012 27.8438C0.812012 25.3125 0.812012 22.7812 0.812012 20.25Z" fill="#CA927F"/>
<path fill-rule="evenodd" clip-rule="evenodd" d="M58.2397 20.25C61.0347 20.25 63.8295 20.25 66.6245 20.25C66.6245 22.7812 66.6245 25.3125 66.6245 27.8438C59.8745 27.8438 53.1246 27.8438 46.3745 27.8438C46.3745 26.8945 46.3745 25.9453 46.3745 24.9961C47.9415 24.7659 49.4709 24.4495 50.9624 24.0469C53.7107 23.3587 56.1364 22.0931 58.2397 20.25Z" fill="#D79F7B"/>
<path fill-rule="evenodd" clip-rule="evenodd" d="M66.6245 20.25C71.687 20.25 76.7495 20.25 81.812 20.25C81.812 22.7812 81.812 25.3125 81.812 27.8438C76.7495 27.8438 71.687 27.8438 66.6245 27.8438C66.6245 25.3125 66.6245 22.7812 66.6245 20.25Z" fill="#DCA379"/>
<path fill-rule="evenodd" clip-rule="evenodd" d="M33.7183 21.5156C34.6148 21.5156 35.5112 21.5156 36.4077 21.5156C37.4625 21.5156 38.517 21.5156 39.5718 21.5156C40.4683 21.5156 41.3647 21.5156 42.2612 21.5156C43.1578 21.5156 44.0541 21.5156 44.9507 21.5156C45.0034 21.5156 45.0562 21.5156 45.1089 21.5156C45.1089 22.7286 45.1089 23.9414 45.1089 25.1543C42.8961 25.31 40.6813 25.3364 38.4644 25.2334C36.836 25.1508 35.2539 24.9135 33.7183 24.5215C33.7183 23.5196 33.7183 22.5175 33.7183 21.5156Z" fill="#B1D5FA"/>
<path fill-rule="evenodd" clip-rule="evenodd" d="M45.1089 21.5156C45.9526 21.5156 46.7964 21.5156 47.6401 21.5156C48.6949 21.5156 49.7495 21.5156 50.8042 21.5156C50.9605 22.3288 51.0132 23.1726 50.9624 24.0469C49.4709 24.4495 47.9415 24.7659 46.3745 24.9961C45.9415 24.9804 45.5196 25.0333 45.1089 25.1543C45.1089 23.9414 45.1089 22.7286 45.1089 21.5156Z" fill="#B7DCFB"/>
<path fill-rule="evenodd" clip-rule="evenodd" d="M22.0112 20.25C22.8022 20.25 23.5933 20.25 24.3843 20.25C25.128 20.8872 25.919 21.4674 26.7573 21.9902C28.8901 23.2992 31.2103 24.1431 33.7183 24.5215C35.2539 24.9135 36.836 25.1508 38.4644 25.2334C40.6813 25.3364 42.8961 25.31 45.1089 25.1543C45.5196 25.0333 45.9415 24.9804 46.3745 24.9961C46.3745 25.9453 46.3745 26.8945 46.3745 27.8438C38.2535 27.8438 30.1323 27.8438 22.0112 27.8438C22.0112 25.3125 22.0112 22.7812 22.0112 20.25Z" fill="#D0987E"/>
<path fill-rule="evenodd" clip-rule="evenodd" d="M10.6206 34.1719C11.4116 34.1719 12.2026 34.1719 12.9937 34.1719C12.9673 38.4964 12.9937 42.8207 13.0728 47.1445C13.2175 47.2755 13.3229 47.4337 13.3892 47.6191C13.4946 48.7792 13.4946 49.9395 13.3892 51.0996C13.2508 51.5291 12.9607 51.74 12.519 51.7324C12.4685 50.111 12.5212 48.5025 12.6772 46.9072C12.0951 46.7448 11.5941 46.8765 11.1743 47.3027C10.9997 47.9704 10.9206 48.6558 10.937 49.3594C10.9634 49.9395 10.9897 50.5195 11.0161 51.0996C11.1796 51.5003 11.4696 51.7639 11.8862 51.8906C12.0444 56.108 12.0971 60.3268 12.0444 64.5469C11.5698 64.5469 11.0952 64.5469 10.6206 64.5469C10.4108 59.5181 10.3053 54.4556 10.3042 49.3594C10.3053 44.2632 10.4108 39.2007 10.6206 34.1719Z" fill="#737B81"/>
<path fill-rule="evenodd" clip-rule="evenodd" d="M12.9936 34.1719C13.3628 34.1719 13.7319 34.1719 14.1011 34.1719C14.1011 44.2969 14.1011 54.4219 14.1011 64.5469C13.4155 64.5469 12.73 64.5469 12.0444 64.5469C12.0971 60.3268 12.0444 56.108 11.8862 51.8906C11.4696 51.7639 11.1796 51.5003 11.0161 51.0996C10.9897 50.5195 10.9634 49.9395 10.937 49.3594C10.9206 48.6558 10.9997 47.9704 11.1743 47.3027C11.5941 46.8765 12.0951 46.7448 12.6772 46.9072C12.5212 48.5025 12.4685 50.111 12.519 51.7324C12.9607 51.74 13.2508 51.5291 13.3891 51.0996C13.4946 49.9395 13.4946 48.7792 13.3891 47.6191C13.3229 47.4337 13.2174 47.2755 13.0727 47.1445C12.9936 42.8207 12.9673 38.4964 12.9936 34.1719Z" fill="#687075"/>
<path fill-rule="evenodd" clip-rule="evenodd" d="M14.1011 34.1719C14.7339 34.1719 15.3667 34.1719 15.9995 34.1719C15.9995 34.6992 15.9995 35.2266 15.9995 35.7539C15.9995 37.1777 15.9995 38.6016 15.9995 40.0254C15.9995 41.6074 15.9995 43.1895 15.9995 44.7715C15.9995 45.5098 15.9995 46.248 15.9995 46.9863C15.9995 47.9882 15.9995 48.9903 15.9995 49.9922C15.9995 50.5723 15.9995 51.1523 15.9995 51.7324C15.9995 52.4179 15.9995 53.1036 15.9995 53.7891C15.9995 54.5274 15.9995 55.2656 15.9995 56.0039C15.9995 57.3222 15.9995 58.6407 15.9995 59.959C15.9995 60.9082 15.9995 61.8574 15.9995 62.8066C15.9995 63.3868 15.9995 63.9667 15.9995 64.5469C15.3667 64.5469 14.7339 64.5469 14.1011 64.5469C14.1011 54.4219 14.1011 44.2969 14.1011 34.1719Z" fill="#5D6569"/>
<path fill-rule="evenodd" clip-rule="evenodd" d="M15.9995 34.1719C29.4995 34.1719 42.9996 34.1719 56.4995 34.1719C56.4995 34.6992 56.4995 35.2266 56.4995 35.7539C42.9996 35.7539 29.4995 35.7539 15.9995 35.7539C15.9995 35.2266 15.9995 34.6992 15.9995 34.1719Z" fill="#88F5FE"/>
<path fill-rule="evenodd" clip-rule="evenodd" d="M56.4995 34.1719C57.1323 34.1719 57.7651 34.1719 58.3979 34.1719C58.3979 41.6601 58.3979 49.1485 58.3979 56.6367C57.7011 56.5624 57.0683 56.7206 56.4995 57.1113C56.4995 56.7422 56.4995 56.373 56.4995 56.0039C56.4995 55.2656 56.4995 54.5274 56.4995 53.7891C56.4995 53.1036 56.4995 52.4179 56.4995 51.7324C56.4995 51.1523 56.4995 50.5723 56.4995 49.9922C56.4995 48.9903 56.4995 47.9882 56.4995 46.9863C56.4995 46.248 56.4995 45.5098 56.4995 44.7715C56.4995 43.1895 56.4995 41.6074 56.4995 40.0254C56.4995 38.6016 56.4995 37.1777 56.4995 35.7539C56.4995 35.2266 56.4995 34.6992 56.4995 34.1719Z" fill="#7F888E"/>
<path fill-rule="evenodd" clip-rule="evenodd" d="M58.3979 34.1719C59.0308 34.1719 59.6636 34.1719 60.2964 34.1719C60.2964 38.3907 60.2964 42.6093 60.2964 46.8281C60.8643 46.8351 61.2598 47.0988 61.4829 47.6191C61.5884 48.7792 61.5884 49.9395 61.4829 51.0996C61.1307 51.7895 60.577 52.0268 59.8218 51.8115C59.9778 50.2162 60.0304 48.6078 59.98 46.9863C59.5383 46.9787 59.2483 47.1896 59.1099 47.6191C59.0751 50.7421 59.1542 53.8535 59.3472 56.9531C59.0183 56.8786 58.7019 56.7732 58.3979 56.6367C58.3979 49.1485 58.3979 41.6601 58.3979 34.1719Z" fill="#757D83"/>
<path fill-rule="evenodd" clip-rule="evenodd" d="M60.2964 34.1718C61.0657 34.1214 61.8041 34.1741 62.5112 34.33C62.1955 42.5022 62.0901 50.7287 62.1948 59.0097C61.7729 58.6933 61.3511 58.3769 60.9292 58.0605C60.4019 57.6914 59.8745 57.3222 59.3472 56.9531C59.1542 53.8534 59.0751 50.742 59.1099 47.6191C59.2483 47.1896 59.5383 46.9787 59.98 46.9863C60.0305 48.6077 59.9778 50.2162 59.8218 51.8115C60.5771 52.0268 61.1308 51.7895 61.4829 51.0996C61.5884 49.9395 61.5884 48.7792 61.4829 47.6191C61.2599 47.0988 60.8643 46.835 60.2964 46.8281C60.2964 42.6093 60.2964 38.3906 60.2964 34.1718Z" fill="#697175"/>
<path fill-rule="evenodd" clip-rule="evenodd" d="M62.5112 34.3301C63.2374 34.5549 63.7383 35.0295 64.0142 35.7539C64.0933 36.9129 64.1195 38.073 64.0933 39.2344C64.0933 41.4492 64.0933 43.6641 64.0933 45.8789C64.0933 50.7305 64.0933 55.582 64.0933 60.4336C63.4604 59.959 62.8276 59.4844 62.1948 59.0098C62.0901 50.7288 62.1955 42.5022 62.5112 34.3301Z" fill="#5F676B"/>
<path fill-rule="evenodd" clip-rule="evenodd" d="M10.6206 34.1719C10.4108 39.2007 10.3053 44.2632 10.3042 49.3594C10.3053 54.4556 10.4108 59.5181 10.6206 64.5469C9.57538 64.4781 8.86346 63.9508 8.48487 62.9648C8.37939 53.8946 8.37939 44.8242 8.48487 35.7539C8.86346 34.768 9.57538 34.2407 10.6206 34.1719Z" fill="#818B91"/>
<path fill-rule="evenodd" clip-rule="evenodd" d="M15.9995 35.7539C29.4995 35.7539 42.9996 35.7539 56.4995 35.7539C56.4995 37.1777 56.4995 38.6016 56.4995 40.0254C54.5484 40.0254 52.5971 40.0254 50.646 40.0254C50.9747 39.3408 51.2385 38.6289 51.437 37.8896C51.241 36.943 50.6609 36.5739 49.6968 36.7822C49.2114 37.0401 48.895 37.4356 48.7476 37.9688C48.4161 38.6849 48.047 39.3706 47.6401 40.0254C45.6082 39.9733 43.6042 40.0262 41.6284 40.1836C41.1518 39.7349 40.6245 39.3658 40.0464 39.0762C39.2396 38.5426 38.343 38.2261 37.3569 38.127C35.4137 37.9751 33.4624 37.9222 31.5034 37.9688C30.6069 37.9688 29.7105 37.9688 28.814 37.9688C27.7431 37.9401 26.7412 38.1512 25.8081 38.6016C24.8409 38.937 23.9972 39.4642 23.2769 40.1836C20.8788 40.026 18.4531 39.9732 15.9995 40.0254C15.9995 38.6016 15.9995 37.1777 15.9995 35.7539Z" fill="#85EEFD"/>
<path fill-rule="evenodd" clip-rule="evenodd" d="M45.1089 36.7031C45.1089 37.5468 45.1089 38.3907 45.1089 39.2344C44.687 39.2344 44.2652 39.2344 43.8433 39.2344C43.8433 38.3907 43.8433 37.5468 43.8433 36.7031C44.2652 36.7031 44.687 36.7031 45.1089 36.7031Z" fill="#FDABAA"/>
<path fill-rule="evenodd" clip-rule="evenodd" d="M45.1089 36.7031C45.5308 36.7031 45.9526 36.7031 46.3745 36.7031C46.3745 37.5468 46.3745 38.3907 46.3745 39.2344C45.9526 39.2344 45.5308 39.2344 45.1089 39.2344C45.1089 38.3907 45.1089 37.5468 45.1089 36.7031Z" fill="#FBC1B9"/>
<path fill-rule="evenodd" clip-rule="evenodd" d="M50.646 40.0254C50.0659 41.0801 49.4859 42.1347 48.9058 43.1894C48.9577 41.4209 48.905 39.6807 48.7476 37.9687C48.895 37.4356 49.2114 37.0401 49.6968 36.7822C50.6609 36.5739 51.241 36.9429 51.437 37.8896C51.2385 38.6289 50.9747 39.3408 50.646 40.0254Z" fill="#F9BEB8"/>
<path fill-rule="evenodd" clip-rule="evenodd" d="M28.814 37.9688C28.814 40.5 28.814 43.0313 28.814 45.5625C27.9174 45.5625 27.021 45.5625 26.1245 45.5625C26.1245 44.7188 26.1245 43.8749 26.1245 43.0313C26.9682 43.0313 27.8121 43.0313 28.6558 43.0313C28.6558 42.1876 28.6558 41.3437 28.6558 40.5C27.8121 40.5 26.9682 40.5 26.1245 40.5C26.2177 39.7927 26.1123 39.1599 25.8081 38.6016C26.7412 38.1512 27.7431 37.9401 28.814 37.9688Z" fill="#F7C46E"/>
<path fill-rule="evenodd" clip-rule="evenodd" d="M28.814 37.9688C29.7105 37.9688 30.6069 37.9688 31.5034 37.9688C31.5034 38.8124 31.5034 39.6563 31.5034 40.5C31.2959 40.8548 31.1905 41.2768 31.187 41.7656C31.1905 42.2545 31.2959 42.6764 31.5034 43.0312C31.5034 43.8749 31.5034 44.7188 31.5034 45.5625C30.6069 45.5625 29.7105 45.5625 28.814 45.5625C28.814 43.0312 28.814 40.5 28.814 37.9688Z" fill="#F8BE71"/>
<path fill-rule="evenodd" clip-rule="evenodd" d="M31.5034 37.9687C33.4624 37.9222 35.4137 37.9751 37.3569 38.1269C37.3569 38.9179 37.3569 39.709 37.3569 40.5C36.9878 40.5 36.6186 40.5 36.2495 40.5C36.2495 41.3437 36.2495 42.1875 36.2495 43.0312C36.6186 43.0312 36.9878 43.0312 37.3569 43.0312C37.3569 43.8749 37.3569 44.7188 37.3569 45.5625C35.4058 45.5625 33.4545 45.5625 31.5034 45.5625C31.5034 44.7188 31.5034 43.8749 31.5034 43.0312C32.2418 43.0312 32.9799 43.0312 33.7183 43.0312C33.7183 42.1875 33.7183 41.3437 33.7183 40.5C32.9799 40.5 32.2418 40.5 31.5034 40.5C31.5034 39.6563 31.5034 38.8124 31.5034 37.9687Z" fill="#FAB378"/>
<path fill-rule="evenodd" clip-rule="evenodd" d="M37.3569 38.127C38.343 38.2261 39.2396 38.5426 40.0464 39.0762C40.0464 41.2383 40.0464 43.4003 40.0464 45.5625C39.1498 45.5625 38.2535 45.5625 37.3569 45.5625C37.3569 44.7188 37.3569 43.8749 37.3569 43.0312C37.8315 43.0312 38.3062 43.0312 38.7808 43.0312C38.7808 42.1876 38.7808 41.3437 38.7808 40.5C38.3062 40.5 37.8315 40.5 37.3569 40.5C37.3569 39.709 37.3569 38.918 37.3569 38.127Z" fill="#FBAB7E"/>
<path fill-rule="evenodd" clip-rule="evenodd" d="M48.7476 37.9688C48.905 39.6807 48.9576 41.4209 48.9058 43.1895C48.6643 44.0724 48.0842 44.4151 47.1655 44.2178C46.5844 43.8202 46.3209 43.2665 46.3745 42.5566C46.8766 41.7631 47.2986 40.9194 47.6401 40.0254C48.047 39.3706 48.4161 38.6849 48.7476 37.9688Z" fill="#FBACAB"/>
<path fill-rule="evenodd" clip-rule="evenodd" d="M25.8081 38.6016C26.1123 39.1599 26.2177 39.7927 26.1245 40.5C26.1245 41.3437 26.1245 42.1876 26.1245 43.0312C26.1245 43.8749 26.1245 44.7188 26.1245 45.5625C24.437 45.5625 22.7496 45.5625 21.062 45.5625C21.062 45.2988 21.062 45.0352 21.062 44.7715C21.3363 43.0101 22.0747 41.4807 23.2769 40.1836C23.9972 39.4642 24.8409 38.937 25.8081 38.6016Z" fill="#F6CC69"/>
<path fill-rule="evenodd" clip-rule="evenodd" d="M40.0464 39.0762C40.6245 39.3658 41.1518 39.7349 41.6284 40.1836C42.3372 40.9441 42.9173 41.7878 43.3687 42.7148C43.5469 43.3958 43.7052 44.0812 43.8433 44.7715C43.8433 45.0352 43.8433 45.2988 43.8433 45.5625C42.5776 45.5625 41.312 45.5625 40.0464 45.5625C40.0464 43.4003 40.0464 41.2383 40.0464 39.0762Z" fill="#FBA582"/>
<path fill-rule="evenodd" clip-rule="evenodd" d="M47.6401 40.0254C47.2986 40.9194 46.8766 41.7631 46.3745 42.5566C45.3427 42.5055 44.3408 42.5582 43.3687 42.7148C42.9173 41.7877 42.3372 40.944 41.6284 40.1836C43.6042 40.0261 45.6082 39.9733 47.6401 40.0254Z" fill="#82E3FC"/>
<path fill-rule="evenodd" clip-rule="evenodd" d="M26.1245 40.5C26.9682 40.5 27.8121 40.5 28.6558 40.5C28.6558 41.3437 28.6558 42.1876 28.6558 43.0312C27.8121 43.0312 26.9682 43.0312 26.1245 43.0312C26.1245 42.1876 26.1245 41.3437 26.1245 40.5Z" fill="#D59C7C"/>
<path fill-rule="evenodd" clip-rule="evenodd" d="M31.5034 40.5C32.2418 40.5 32.9799 40.5 33.7183 40.5C33.7183 41.3437 33.7183 42.1876 33.7183 43.0312C32.9799 43.0312 32.2418 43.0312 31.5034 43.0312C31.2959 42.6764 31.1905 42.2545 31.187 41.7656C31.1905 41.2768 31.2959 40.8548 31.5034 40.5Z" fill="#D59C7C"/>
<path fill-rule="evenodd" clip-rule="evenodd" d="M37.3569 40.5C37.8315 40.5 38.3062 40.5 38.7808 40.5C38.7808 41.3437 38.7808 42.1876 38.7808 43.0312C38.3062 43.0312 37.8315 43.0312 37.3569 43.0312C36.9878 43.0312 36.6186 43.0312 36.2495 43.0312C36.2495 42.1876 36.2495 41.3437 36.2495 40.5C36.6186 40.5 36.9878 40.5 37.3569 40.5Z" fill="#D59C7C"/>
<path opacity="0.983" fill-rule="evenodd" clip-rule="evenodd" d="M64.0933 39.2344C66.1474 40.1559 68.1513 41.158 70.105 42.2402C70.105 46.0371 70.105 49.834 70.105 53.6309C68.101 51.0469 66.0972 48.4628 64.0933 45.8789C64.0933 43.6641 64.0933 41.4492 64.0933 39.2344Z" fill="#FDD2BA"/>
<path opacity="0.996" fill-rule="evenodd" clip-rule="evenodd" d="M70.105 42.2402C70.7652 42.4518 71.3717 42.7682 71.9243 43.1895C72.413 43.9656 72.8613 44.7566 73.269 45.5625C73.269 57.3751 73.269 69.1874 73.269 81C72.2143 81 71.1597 81 70.105 81C70.0532 74.555 70.1059 68.1213 70.2632 61.6992C70.6335 61.3308 71.0555 61.0144 71.5288 60.75C71.7133 59.065 71.7395 57.3774 71.6079 55.6875C71.0281 55.0534 70.5271 54.3679 70.105 53.6309C70.105 49.834 70.105 46.0371 70.105 42.2402Z" fill="#FDCAB2"/>
<path fill-rule="evenodd" clip-rule="evenodd" d="M15.9995 40.0254C18.4531 39.9732 20.8788 40.0261 23.2769 40.1836C22.0747 41.4808 21.3363 43.0101 21.062 44.7715C19.3745 44.7715 17.6871 44.7715 15.9995 44.7715C15.9995 43.1895 15.9995 41.6075 15.9995 40.0254Z" fill="#7FE0FD"/>
<path fill-rule="evenodd" clip-rule="evenodd" d="M50.646 40.0254C52.5971 40.0254 54.5484 40.0254 56.4995 40.0254C56.4995 41.6074 56.4995 43.1895 56.4995 44.7715C52.2807 44.7715 48.0621 44.7715 43.8433 44.7715C43.7052 44.0812 43.5469 43.3958 43.3687 42.7148C44.3408 42.5582 45.3427 42.5055 46.3745 42.5566C46.3209 43.2665 46.5844 43.8202 47.1655 44.2178C48.0842 44.4151 48.6643 44.0724 48.9058 43.1895C49.4859 42.1347 50.0659 41.0801 50.646 40.0254Z" fill="#7FDEFD"/>
<path fill-rule="evenodd" clip-rule="evenodd" d="M52.7026 40.5C53.1246 40.5 53.5463 40.5 53.9683 40.5C53.9683 41.3437 53.9683 42.1876 53.9683 43.0312C53.5463 43.0312 53.1246 43.0312 52.7026 43.0312C52.7026 42.1876 52.7026 41.3437 52.7026 40.5Z" fill="#FBC1B9"/>
<path fill-rule="evenodd" clip-rule="evenodd" d="M52.7026 40.5C52.7026 41.3437 52.7026 42.1876 52.7026 43.0312C52.2807 43.0312 51.8589 43.0312 51.437 43.0312C51.437 42.1876 51.437 41.3437 51.437 40.5C51.8589 40.5 52.2807 40.5 52.7026 40.5Z" fill="#FDABAA"/>
<path fill-rule="evenodd" clip-rule="evenodd" d="M15.9995 44.7715C17.6871 44.7715 19.3745 44.7715 21.062 44.7715C21.062 45.0352 21.062 45.2988 21.062 45.5625C22.7496 45.5625 24.437 45.5625 26.1245 45.5625C27.021 45.5625 27.9174 45.5625 28.814 45.5625C29.7105 45.5625 30.6069 45.5625 31.5034 45.5625C33.4545 45.5625 35.4058 45.5625 37.3569 45.5625C38.2535 45.5625 39.1498 45.5625 40.0464 45.5625C41.312 45.5625 42.5776 45.5625 43.8433 45.5625C43.8433 45.2988 43.8433 45.0352 43.8433 44.7715C48.0621 44.7715 52.2807 44.7715 56.4995 44.7715C56.4995 45.5098 56.4995 46.248 56.4995 46.9863C52.5444 46.9863 48.5894 46.9863 44.6343 46.9863C44.2695 46.9083 43.9004 46.8557 43.5269 46.8281C42.6001 46.7772 41.7036 46.8299 40.8374 46.9863C40.7319 46.9863 40.6265 46.9863 40.521 46.9863C39.384 46.9349 38.2766 46.9878 37.1987 47.1445C36.1723 46.856 35.1177 46.7504 34.0347 46.8281C33.1381 46.8281 32.2418 46.8281 31.3452 46.8281C30.5015 46.8281 29.6577 46.8281 28.814 46.8281C27.9174 46.8281 27.021 46.8281 26.1245 46.8281C25.2808 46.8281 24.437 46.8281 23.5933 46.8281C22.4768 46.787 21.3694 46.8397 20.271 46.9863C18.8472 46.9863 17.4233 46.9863 15.9995 46.9863C15.9995 46.248 15.9995 45.5098 15.9995 44.7715Z" fill="#7BD7FD"/>
<path opacity="0.997" fill-rule="evenodd" clip-rule="evenodd" d="M73.269 45.5625C74.3478 47.0854 75.3499 48.6674 76.2749 50.3086C76.1169 60.5124 76.0642 70.7429 76.1167 81C75.1675 81 74.2183 81 73.269 81C73.269 69.1874 73.269 57.3751 73.269 45.5625Z" fill="#FDC4AC"/>
<path fill-rule="evenodd" clip-rule="evenodd" d="M23.5933 46.8281C23.5933 47.6718 23.5933 48.5157 23.5933 49.3593C22.4677 49.4266 21.3602 49.3475 20.271 49.122C19.6469 48.4106 19.6469 47.6987 20.271 46.9863C21.3694 46.8396 22.4768 46.787 23.5933 46.8281Z" fill="#FD1F4F"/>
<path fill-rule="evenodd" clip-rule="evenodd" d="M23.5933 46.8281C24.437 46.8281 25.2808 46.8281 26.1245 46.8281C26.1245 47.6718 26.1245 48.5157 26.1245 49.3594C25.2808 49.3594 24.437 49.3594 23.5933 49.3594C23.5933 48.5157 23.5933 47.6718 23.5933 46.8281Z" fill="#FF3B5D"/>
<path fill-rule="evenodd" clip-rule="evenodd" d="M26.1245 46.8281C27.021 46.8281 27.9174 46.8281 28.814 46.8281C28.814 47.6718 28.814 48.5157 28.814 49.3594C27.9174 49.3594 27.021 49.3594 26.1245 49.3594C26.1245 48.5157 26.1245 47.6718 26.1245 46.8281Z" fill="#FF546A"/>
<path fill-rule="evenodd" clip-rule="evenodd" d="M28.814 46.8281C29.6577 46.8281 30.5015 46.8281 31.3452 46.8281C31.3452 47.6718 31.3452 48.5157 31.3452 49.3594C30.5015 49.3594 29.6577 49.3594 28.814 49.3594C28.814 48.5157 28.814 47.6718 28.814 46.8281Z" fill="#FF6D76"/>
<path fill-rule="evenodd" clip-rule="evenodd" d="M31.3452 46.8281C32.2418 46.8281 33.1381 46.8281 34.0347 46.8281C34.0347 47.6718 34.0347 48.5157 34.0347 49.3594C33.1381 49.3594 32.2418 49.3594 31.3452 49.3594C31.3452 48.5157 31.3452 47.6718 31.3452 46.8281Z" fill="#FF8683"/>
<path fill-rule="evenodd" clip-rule="evenodd" d="M34.0347 46.828C35.1177 46.7504 36.1723 46.8559 37.1987 47.1445C37.6351 47.8388 37.5824 48.498 37.0405 49.122C36.053 49.3387 35.0511 49.4178 34.0347 49.3593C34.0347 48.5156 34.0347 47.6717 34.0347 46.828Z" fill="#FDA292"/>
<path fill-rule="evenodd" clip-rule="evenodd" d="M40.8374 46.9863C41.7036 46.8298 42.6001 46.7772 43.5269 46.8281C43.5269 47.6718 43.5269 48.5157 43.5269 49.3594C42.6001 49.4103 41.7036 49.3576 40.8374 49.2012C40.9956 49.2012 41.1538 49.2012 41.312 49.2012C41.312 48.4628 41.312 47.7246 41.312 46.9863C41.1538 46.9863 40.9956 46.9863 40.8374 46.9863Z" fill="#53E183"/>
<path fill-rule="evenodd" clip-rule="evenodd" d="M43.5269 46.8281C43.9004 46.8557 44.2695 46.9083 44.6343 46.9863C45.5019 48.3622 45.1328 49.1532 43.5269 49.3594C43.5269 48.5157 43.5269 47.6718 43.5269 46.8281Z" fill="#20E2A2"/>
<path fill-rule="evenodd" clip-rule="evenodd" d="M15.9995 46.9863C17.4233 46.9863 18.8472 46.9863 20.271 46.9863C19.6469 47.6987 19.6469 48.4106 20.271 49.122C21.3602 49.3475 22.4676 49.4266 23.5933 49.3594C24.437 49.3594 25.2808 49.3594 26.1245 49.3594C27.021 49.3594 27.9174 49.3594 28.814 49.3594C29.6577 49.3594 30.5015 49.3594 31.3452 49.3594C32.2418 49.3594 33.1381 49.3594 34.0347 49.3594C35.0511 49.4179 36.053 49.3388 37.0405 49.122C37.5824 48.4981 37.6351 47.8389 37.1987 47.1445C38.2766 46.9877 39.384 46.9349 40.521 46.9863C40.0122 47.5609 39.9331 48.1937 40.2837 48.8847C40.4128 49.094 40.5974 49.1994 40.8374 49.2012C41.7036 49.3576 42.6001 49.4103 43.5269 49.3594C45.1328 49.1532 45.5019 48.3622 44.6343 46.9863C48.5894 46.9863 52.5444 46.9863 56.4995 46.9863C56.4995 47.9882 56.4995 48.9903 56.4995 49.9922C42.9996 49.9922 29.4995 49.9922 15.9995 49.9922C15.9995 48.9903 15.9995 47.9882 15.9995 46.9863Z" fill="#78CFFE"/>
<path fill-rule="evenodd" clip-rule="evenodd" d="M40.521 46.9863C40.6265 46.9863 40.7319 46.9863 40.8374 46.9863C40.9956 46.9863 41.1538 46.9863 41.312 46.9863C41.312 47.7247 41.312 48.4628 41.312 49.2012C41.1538 49.2012 40.9956 49.2012 40.8374 49.2012C40.5974 49.1994 40.4128 49.0941 40.2837 48.8848C39.9331 48.1937 40.0122 47.5609 40.521 46.9863Z" fill="#86E06C"/>
<path fill-rule="evenodd" clip-rule="evenodd" d="M15.9995 49.9922C29.4995 49.9922 42.9996 49.9922 56.4995 49.9922C56.4995 50.5723 56.4995 51.1523 56.4995 51.7324C52.7026 51.7324 48.9058 51.7324 45.1089 51.7324C45.0394 51.1619 44.723 50.8193 44.1597 50.7041C38.6756 50.625 33.1911 50.5986 27.7065 50.625C25.3329 50.5986 22.9598 50.625 20.5874 50.7041C20.1139 50.8875 19.8502 51.2301 19.7964 51.7324C18.5308 51.7324 17.2651 51.7324 15.9995 51.7324C15.9995 51.1523 15.9995 50.5723 15.9995 49.9922Z" fill="#75CAFE"/>
<path fill-rule="evenodd" clip-rule="evenodd" d="M27.7066 50.625C27.7066 51.4687 27.7066 52.3126 27.7066 53.1563C25.3329 53.1827 22.9598 53.1563 20.5874 53.0772C20.046 52.8028 19.7823 52.3547 19.7964 51.7324C19.8502 51.2301 20.1139 50.8875 20.5874 50.7041C22.9598 50.625 25.3329 50.5986 27.7066 50.625Z" fill="#CA9380"/>
<path fill-rule="evenodd" clip-rule="evenodd" d="M27.7065 50.625C33.1911 50.5986 38.6756 50.625 44.1597 50.7041C44.723 50.8193 45.0394 51.162 45.1089 51.7324C45.1464 52.4459 44.83 52.8943 44.1597 53.0772C38.6756 53.1563 33.1911 53.1827 27.7065 53.1563C27.7065 52.3126 27.7065 51.4687 27.7065 50.625Z" fill="#D69E7B"/>
<path opacity="0.997" fill-rule="evenodd" clip-rule="evenodd" d="M76.2749 50.3086C77.2914 51.8519 78.2406 53.4339 79.1226 55.0547C79.1226 63.7032 79.1226 72.3515 79.1226 81C78.1207 81 77.1186 81 76.1167 81C76.0642 70.7429 76.1169 60.5124 76.2749 50.3086Z" fill="#FCBEA6"/>
<path fill-rule="evenodd" clip-rule="evenodd" d="M15.9995 51.7324C17.2651 51.7324 18.5308 51.7324 19.7964 51.7324C19.7823 52.3546 20.046 52.8028 20.5874 53.0771C22.9598 53.1562 25.3329 53.1827 27.7065 53.1562C33.1911 53.1827 38.6756 53.1562 44.1597 53.0771C44.83 52.8943 45.1464 52.4459 45.1089 51.7324C48.9058 51.7324 52.7026 51.7324 56.4995 51.7324C56.4995 52.4179 56.4995 53.1036 56.4995 53.7891C42.9996 53.7891 29.4995 53.7891 15.9995 53.7891C15.9995 53.1036 15.9995 52.4179 15.9995 51.7324Z" fill="#73C3FE"/>
<path fill-rule="evenodd" clip-rule="evenodd" d="M15.9995 53.7891C29.4995 53.7891 42.9996 53.7891 56.4995 53.7891C56.4995 54.5274 56.4995 55.2656 56.4995 56.0039C52.2807 56.0039 48.0621 56.0039 43.8433 56.0039C43.8433 55.4766 43.8433 54.9492 43.8433 54.4219C42.1557 54.4219 40.4683 54.4219 38.7808 54.4219C37.8842 54.4219 36.9878 54.4219 36.0913 54.4219C35.1948 54.4219 34.2984 54.4219 33.4019 54.4219C32.5053 54.4219 31.6089 54.4219 30.7124 54.4219C29.6577 54.4219 28.6031 54.4219 27.5483 54.4219C26.6518 54.4219 25.7554 54.4219 24.8589 54.4219C23.5933 54.4219 22.3276 54.4219 21.062 54.4219C21.062 54.9492 21.062 55.4766 21.062 56.0039C19.3745 56.0039 17.6871 56.0039 15.9995 56.0039C15.9995 55.2656 15.9995 54.5274 15.9995 53.7891Z" fill="#70BFFF"/>
<path fill-rule="evenodd" clip-rule="evenodd" d="M24.8589 54.4219C24.8589 56.1094 24.8589 57.7968 24.8589 59.4844C22.2281 59.8065 20.9625 58.6464 21.062 56.0039C21.062 55.4766 21.062 54.9492 21.062 54.4219C22.3276 54.4219 23.5933 54.4219 24.8589 54.4219Z" fill="#FBA482"/>
<path fill-rule="evenodd" clip-rule="evenodd" d="M24.8589 54.4219C25.7554 54.4219 26.6518 54.4219 27.5483 54.4219C27.5483 56.1094 27.5483 57.7968 27.5483 59.4844C26.6518 59.4844 25.7554 59.4844 24.8589 59.4844C24.8589 57.7968 24.8589 56.1094 24.8589 54.4219Z" fill="#FBAB7D"/>
<path fill-rule="evenodd" clip-rule="evenodd" d="M27.5483 54.4219C28.6031 54.4219 29.6577 54.4219 30.7124 54.4219C30.7124 56.1094 30.7124 57.7968 30.7124 59.4844C29.6577 59.4844 28.6031 59.4844 27.5483 59.4844C27.5483 57.7968 27.5483 56.1094 27.5483 54.4219Z" fill="#FAB279"/>
<path fill-rule="evenodd" clip-rule="evenodd" d="M30.7124 54.4219C31.6089 54.4219 32.5053 54.4219 33.4019 54.4219C33.4019 56.1094 33.4019 57.7968 33.4019 59.4844C32.5053 59.4844 31.6089 59.4844 30.7124 59.4844C30.7124 57.7968 30.7124 56.1094 30.7124 54.4219Z" fill="#F9B875"/>
<path fill-rule="evenodd" clip-rule="evenodd" d="M33.4019 54.4219C34.2984 54.4219 35.1948 54.4219 36.0913 54.4219C36.0913 56.1094 36.0913 57.7968 36.0913 59.4844C35.1948 59.4844 34.2984 59.4844 33.4019 59.4844C33.4019 57.7968 33.4019 56.1094 33.4019 54.4219Z" fill="#F8BE71"/>
<path fill-rule="evenodd" clip-rule="evenodd" d="M36.0913 54.4219C36.9878 54.4219 37.8842 54.4219 38.7808 54.4219C38.7808 56.1094 38.7808 57.7968 38.7808 59.4844C37.8842 59.4844 36.9878 59.4844 36.0913 59.4844C36.0913 57.7968 36.0913 56.1094 36.0913 54.4219Z" fill="#F8C46E"/>
<path fill-rule="evenodd" clip-rule="evenodd" d="M38.7808 54.4219C40.4683 54.4219 42.1557 54.4219 43.8433 54.4219C43.8433 54.9492 43.8433 55.4766 43.8433 56.0039C43.9037 56.7739 43.7982 57.5122 43.5269 58.2188C43.1595 58.8229 42.6322 59.2184 41.9448 59.4053C40.8915 59.4844 39.8368 59.5106 38.7808 59.4844C38.7808 57.7968 38.7808 56.1094 38.7808 54.4219Z" fill="#F6CC69"/>
<path fill-rule="evenodd" clip-rule="evenodd" d="M43.8433 56.0039C48.0621 56.0039 52.2807 56.0039 56.4995 56.0039C56.4995 56.373 56.4995 56.7422 56.4995 57.1113C56.0124 57.4396 55.6433 57.8615 55.3921 58.377C51.4642 58.2191 47.5091 58.1664 43.5269 58.2188C43.7982 57.5122 43.9037 56.7739 43.8433 56.0039Z" fill="#6EB8FE"/>
<path opacity="0.995" fill-rule="evenodd" clip-rule="evenodd" d="M79.1226 55.0547C80.0191 56.4258 80.9155 57.7968 81.812 59.168C81.812 66.4453 81.812 73.7227 81.812 81C80.9155 81 80.0191 81 79.1226 81C79.1226 72.3515 79.1226 63.7032 79.1226 55.0547Z" fill="#FCB8A1"/>
<path opacity="0.994" fill-rule="evenodd" clip-rule="evenodd" d="M58.3979 56.6367C58.7019 56.7733 59.0183 56.8786 59.3472 56.9531C59.8745 57.3222 60.4019 57.6915 60.9292 58.0606C60.9292 61.0664 60.9292 64.0723 60.9292 67.0781C60.1366 66.2852 59.3983 65.4415 58.7144 64.5469C57.9716 63.7518 57.2334 62.9607 56.4995 62.1738C55.9298 61.6021 55.5606 60.9166 55.3921 60.1172C55.3921 59.5371 55.3921 58.9571 55.3921 58.377C55.6433 57.8615 56.0124 57.4396 56.4995 57.1113C57.0683 56.7206 57.7011 56.5624 58.3979 56.6367Z" fill="#FDE4CB"/>
<path fill-rule="evenodd" clip-rule="evenodd" d="M15.9995 56.0039C17.6871 56.0039 19.3745 56.0039 21.062 56.0039C20.9625 58.6464 22.2281 59.8065 24.8589 59.4844C25.7554 59.4844 26.6518 59.4844 27.5483 59.4844C28.6031 59.4844 29.6577 59.4844 30.7124 59.4844C31.6089 59.4844 32.5053 59.4844 33.4019 59.4844C34.2984 59.4844 35.1948 59.4844 36.0913 59.4844C36.9878 59.4844 37.8842 59.4844 38.7808 59.4844C39.8368 59.5106 40.8915 59.4844 41.9448 59.4053C42.6322 59.2184 43.1595 58.8229 43.5269 58.2188C47.5091 58.1664 51.4642 58.2191 55.3921 58.377C55.3921 58.9571 55.3921 59.5371 55.3921 60.1172C42.2725 59.9595 29.1416 59.9068 15.9995 59.959C15.9995 58.6407 15.9995 57.3222 15.9995 56.0039Z" fill="#6CB3FE"/>
<path opacity="0.985" fill-rule="evenodd" clip-rule="evenodd" d="M60.9292 58.0605C61.3511 58.377 61.7729 58.6934 62.1948 59.0098C62.8276 59.4844 63.4604 59.959 64.0933 60.4336C65.0129 61.0259 65.9094 61.6587 66.7827 62.332C66.733 66.136 66.7859 69.9329 66.9409 73.7227C64.883 71.5592 62.8791 69.3444 60.9292 67.0781C60.9292 64.0723 60.9292 61.0664 60.9292 58.0605Z" fill="#FDD9C0"/>
<path fill-rule="evenodd" clip-rule="evenodd" d="M15.9995 59.9589C29.1416 59.9067 42.2725 59.9594 55.3921 60.1171C55.5606 60.9165 55.9298 61.602 56.4995 62.1738C56.4995 62.3847 56.4995 62.5957 56.4995 62.8066C42.9996 62.8066 29.4995 62.8066 15.9995 62.8066C15.9995 61.8574 15.9995 60.9082 15.9995 59.9589Z" fill="#68ACFE"/>
<path opacity="0.994" fill-rule="evenodd" clip-rule="evenodd" d="M70.2632 61.6992C70.1059 68.1213 70.0532 74.555 70.105 81C69.3666 81 68.6285 81 67.8901 81C67.9165 78.89 67.8901 76.7806 67.811 74.6719C67.4883 74.376 67.1983 74.0596 66.9409 73.7227C66.7859 69.9329 66.733 66.136 66.7827 62.332C67.1194 62.6331 67.4885 62.8967 67.8901 63.123C68.6637 62.6051 69.4548 62.1305 70.2632 61.6992Z" fill="#FDD0B8"/>
<path fill-rule="evenodd" clip-rule="evenodd" d="M15.9995 62.8066C29.4995 62.8066 42.9996 62.8066 56.4995 62.8066C56.4995 63.3868 56.4995 63.9667 56.4995 64.5469C42.9996 64.5469 29.4995 64.5469 15.9995 64.5469C15.9995 63.9667 15.9995 63.3868 15.9995 62.8066Z" fill="#66A6FF"/>
<path fill-rule="evenodd" clip-rule="evenodd" d="M56.4995 62.1738C57.2334 62.9607 57.9716 63.7517 58.7144 64.5469C57.976 64.5469 57.2378 64.5469 56.4995 64.5469C56.4995 63.9667 56.4995 63.3868 56.4995 62.8066C56.4995 62.5958 56.4995 62.3847 56.4995 62.1738Z" fill="#848C92"/>
</svg>
