<svg width="31" height="31" viewBox="0 0 31 31" fill="none" xmlns="http://www.w3.org/2000/svg">
<path opacity="0.995" fill-rule="evenodd" clip-rule="evenodd" d="M13.8477 0.09375C14.2774 0.09375 14.7071 0.09375 15.1368 0.09375C15.1368 2.06641 15.1368 4.03906 15.1368 6.01172C11.7034 6.12598 9.08621 7.6299 7.28522 10.5234C5.55242 9.57193 3.83366 8.59541 2.12897 7.59375C4.79249 3.17589 8.69873 0.675894 13.8477 0.09375Z" fill="#FF4B25"/>
<path fill-rule="evenodd" clip-rule="evenodd" d="M15.1368 0.09375C15.5664 0.09375 15.9962 0.09375 16.4258 0.09375C19.5706 0.416287 22.3636 1.5784 24.8047 3.58008C25.34 3.97484 25.467 4.47288 25.1856 5.07422C24.1602 6.09961 23.1348 7.125 22.1094 8.15039C21.7861 8.3165 21.454 8.33607 21.1133 8.20898C19.3897 6.76512 17.3976 6.03269 15.1368 6.01172C15.1368 4.03906 15.1368 2.06641 15.1368 0.09375Z" fill="#D93F21"/>
<path opacity="0.994" fill-rule="evenodd" clip-rule="evenodd" d="M2.12897 7.59375C3.83366 8.59541 5.55242 9.57193 7.28522 10.5234C5.78821 13.2697 5.66126 16.0822 6.90436 18.9609C7.02119 19.2037 7.14817 19.4381 7.28522 19.6641C5.56807 20.6399 3.84932 21.6165 2.12897 22.5938C1.01842 20.6879 0.354352 18.6371 0.13678 16.4414C0.13678 15.543 0.13678 14.6445 0.13678 13.7461C0.354352 11.5504 1.01842 9.49963 2.12897 7.59375Z" fill="#FED400"/>
<path opacity="0.992" fill-rule="evenodd" clip-rule="evenodd" d="M30.1368 14.039C30.1368 14.8789 30.1368 15.7188 30.1368 16.5586C29.5333 21.6556 27.0333 25.5033 22.6368 28.1015C21.6609 26.3844 20.6844 24.6657 19.7071 22.9453C21.5253 21.8693 22.8143 20.3459 23.5743 18.375C21.2109 18.3848 18.8477 18.375 16.4845 18.3457C16.1675 18.2436 15.9428 18.0385 15.8106 17.7305C15.7715 16.1875 15.7715 14.6445 15.8106 13.1015C15.9149 12.8606 16.0809 12.6751 16.3087 12.5449C20.6218 12.4478 24.9381 12.4282 29.2579 12.4863C29.5106 12.5628 29.7157 12.7093 29.8731 12.9258C29.9993 13.2949 30.0872 13.666 30.1368 14.039Z" fill="#167DE6"/>
<path opacity="0.995" fill-rule="evenodd" clip-rule="evenodd" d="M7.28522 19.6641C9.08621 22.5576 11.7034 24.0615 15.1368 24.1758C15.1368 26.1485 15.1368 28.1211 15.1368 30.0938C14.7071 30.0938 14.2774 30.0938 13.8477 30.0938C8.69873 29.5116 4.79249 27.0116 2.12897 22.5938C3.84932 21.6165 5.56807 20.6399 7.28522 19.6641Z" fill="#12B346"/>
<path fill-rule="evenodd" clip-rule="evenodd" d="M19.7071 22.9453C20.6844 24.6657 21.6609 26.3844 22.6368 28.1016C20.7137 29.2243 18.6434 29.8884 16.4258 30.0938C15.9962 30.0938 15.5664 30.0938 15.1368 30.0938C15.1368 28.1211 15.1368 26.1485 15.1368 24.1758C16.7767 24.1858 18.3001 23.7756 19.7071 22.9453Z" fill="#0F993E"/>
</svg>
