<svg width="71" height="71" viewBox="0 0 71 71" fill="none" xmlns="http://www.w3.org/2000/svg">
<path fill-rule="evenodd" clip-rule="evenodd" d="M32.6675 0.5C34.7183 0.5 36.769 0.5 38.8198 0.5C46.4543 1.24236 53.1536 4.11345 58.9175 9.11328C66.6232 18.7235 68.9246 29.5243 65.8218 41.5156C62.3878 52.5142 55.3468 60.1932 44.6987 64.5527C31.6715 68.9723 19.8225 66.8987 9.15186 58.332C4.38852 52.6772 1.60857 46.1602 0.812012 38.7812C0.812012 36.6393 0.812012 34.4974 0.812012 32.3555C2.22489 20.5223 7.96708 11.4761 18.0386 5.2168C22.5958 2.61142 27.4722 1.03915 32.6675 0.5Z" fill="#4EB96E"/>
<path opacity="0.989" fill-rule="evenodd" clip-rule="evenodd" d="M58.9175 9.11328C65.8499 15.3214 69.8148 23.0688 70.812 32.3555C70.812 34.4518 70.812 36.5482 70.812 38.6445C69.3233 50.9008 63.2621 60.1293 52.6284 66.3301C48.3256 68.6126 43.7684 70.0026 38.9565 70.5C36.8146 70.5 34.6727 70.5 32.5308 70.5C23.1505 69.4333 15.3575 65.3774 9.15186 58.332C19.8225 66.8987 31.6715 68.9723 44.6987 64.5527C55.3468 60.1932 62.3878 52.5142 65.8218 41.5156C68.9246 29.5243 66.6232 18.7235 58.9175 9.11328Z" fill="#24AE5F"/>
<path fill-rule="evenodd" clip-rule="evenodd" d="M15.9878 18.6835C19.936 18.4373 23.24 19.7588 25.8999 22.6484C26.3714 23.7576 26.0296 24.3955 24.8745 24.5625C21.8328 23.6731 18.8705 23.8782 15.9878 25.1777C15.0395 25.7164 14.128 26.3088 13.2534 26.955C12.001 27.0684 11.5225 26.4987 11.8179 25.246C14.1983 23.0881 17.001 21.8804 20.2261 21.623C18.8474 21.1917 17.4345 20.9637 15.9878 20.9394C15.0777 20.1638 15.0777 19.4118 15.9878 18.6835Z" fill="#2C3F50"/>
<path fill-rule="evenodd" clip-rule="evenodd" d="M45.519 18.6836C46.4772 18.6609 47.4342 18.6836 48.3901 18.7519C48.9864 19.0563 49.1914 19.5348 49.0054 20.1875C48.8458 20.5293 48.5952 20.7799 48.2534 20.9394C46.8361 20.9022 45.4689 21.13 44.1519 21.623C47.3587 21.9312 50.1615 23.1388 52.5601 25.2461C52.8335 26.5673 52.3095 27.137 50.9878 26.955C47.5419 24.1459 43.6683 23.3483 39.3667 24.5625C38.3082 24.3131 38.012 23.675 38.478 22.6484C40.3813 20.5237 42.7283 19.202 45.519 18.6836Z" fill="#2C3F50"/>
<path fill-rule="evenodd" clip-rule="evenodd" d="M45.519 41.1055C45.1089 41.1055 44.6987 41.1055 44.2886 41.1055C40.547 40.5562 36.8099 40.579 33.0776 41.1739C29.8061 41.8189 28.1655 43.8014 28.1558 47.1212C28.2528 47.9597 28.4352 48.78 28.7026 49.5821C23.3411 48.0714 19.8548 44.6534 18.2437 39.3282C17.9403 38.3444 17.8036 37.3417 17.8335 36.3204C17.9408 36.0762 18.1002 35.8711 18.312 35.7051C27.4154 35.4782 36.5299 35.4327 45.6558 35.5684C46.3443 35.7593 46.6632 36.215 46.6128 36.9356C46.4288 38.3785 46.0641 39.7684 45.519 41.1055Z" fill="#802D40"/>
<path fill-rule="evenodd" clip-rule="evenodd" d="M44.2886 41.1055C40.7806 45.935 36.041 48.0541 30.0698 47.463C29.43 47.3485 28.7921 47.2345 28.1558 47.1212C28.1655 43.8014 29.8061 41.8189 33.0776 41.1739C36.8099 40.579 40.547 40.5562 44.2886 41.1055Z" fill="#F97A75"/>
<path fill-rule="evenodd" clip-rule="evenodd" d="M44.2886 41.1055C44.6987 41.1055 45.1089 41.1055 45.519 41.1055C43.233 46.1936 39.3137 49.133 33.7612 49.9238C32.0514 50.0843 30.3653 49.9704 28.7026 49.582C28.4352 48.7799 28.2528 47.9596 28.1558 47.1211C28.7921 47.2344 29.43 47.3485 30.0698 47.4629C36.041 48.0541 40.7806 45.9349 44.2886 41.1055Z" fill="#FB5363"/>
</svg>
