<svg width="22" height="22" viewBox="0 0 22 22" fill="none" xmlns="http://www.w3.org/2000/svg">
<path d="M21.5192 10.2308L11.7692 0.480849C11.6685 0.379309 11.5486 0.298716 11.4166 0.243716C11.2846 0.188717 11.143 0.1604 11 0.1604C10.857 0.1604 10.7154 0.188717 10.5834 0.243716C10.4514 0.298716 10.3316 0.379309 10.2308 0.480849L0.480842 10.2308C0.330521 10.3832 0.228692 10.5766 0.188203 10.7868C0.147715 10.997 0.170381 11.2144 0.253342 11.4117C0.334614 11.6095 0.472628 11.7789 0.649992 11.8984C0.827355 12.0179 1.03613 12.0823 1.25001 12.0833H2.33334V19.9917C2.35309 20.4984 2.57278 20.9767 2.94433 21.3219C3.31587 21.667 3.80902 21.8509 4.31584 21.8333H7.20834C7.49566 21.8333 7.77121 21.7192 7.97437 21.516C8.17754 21.3129 8.29167 21.0373 8.29167 20.75V15.4417C8.29167 15.1544 8.40581 14.8788 8.60898 14.6756C8.81214 14.4725 9.08769 14.3583 9.37501 14.3583H12.625C12.9123 14.3583 13.1879 14.4725 13.391 14.6756C13.5942 14.8788 13.7083 15.1544 13.7083 15.4417V20.75C13.7083 21.0373 13.8225 21.3129 14.0256 21.516C14.2288 21.7192 14.5044 21.8333 14.7917 21.8333H17.6842C18.191 21.8509 18.6841 21.667 19.0557 21.3219C19.4272 20.9767 19.6469 20.4984 19.6667 19.9917V12.0833H20.75C20.9639 12.0823 21.1727 12.0179 21.35 11.8984C21.5274 11.7789 21.6654 11.6095 21.7467 11.4117C21.8296 11.2144 21.8523 10.997 21.8118 10.7868C21.7713 10.5766 21.6695 10.3832 21.5192 10.2308Z" fill="#94A3B8"/>
</svg>
