<svg width="31" height="31" viewBox="0 0 31 31" fill="none" xmlns="http://www.w3.org/2000/svg">
<path opacity="0.993" fill-rule="evenodd" clip-rule="evenodd" d="M13.7891 0.09375C14.6875 0.09375 15.586 0.09375 16.4844 0.09375C21.7371 0.731771 25.6922 3.32943 28.3497 7.88672C29.3278 9.73055 29.9236 11.6837 30.1368 13.7461C30.1368 14.6445 30.1368 15.543 30.1368 16.4414C29.4988 21.6941 26.9011 25.6492 22.3438 28.3066C20.5 29.2848 18.5468 29.8805 16.4844 30.0938C15.586 30.0938 14.6875 30.0938 13.7891 30.0938C8.53643 29.4557 4.58133 26.8581 1.92389 22.3008C0.945713 20.457 0.350008 18.5038 0.13678 16.4414C0.13678 15.543 0.13678 14.6445 0.13678 13.7461C0.774801 8.4934 3.37246 4.5383 7.92975 1.88086C9.77358 0.902684 11.7267 0.306978 13.7891 0.09375ZM14.7266 6.89062C16.0531 6.78287 16.8148 7.37859 17.0118 8.67773C16.8651 9.7827 16.2303 10.3588 15.1075 10.4062C13.9873 10.3505 13.3721 9.76459 13.2618 8.64844C13.3292 7.70279 13.8175 7.11686 14.7266 6.89062ZM14.7852 11.8711C15.6195 11.7758 16.2738 12.0687 16.7481 12.75C16.904 13.0028 17.0016 13.2762 17.0411 13.5703C17.0802 16.3242 17.0802 19.0781 17.0411 21.832C16.8337 22.8989 16.1892 23.4653 15.1075 23.5312C14.0574 23.4383 13.4323 22.8719 13.2325 21.832C13.1934 19.0781 13.1934 16.3242 13.2325 13.5703C13.3979 12.6728 13.9155 12.1065 14.7852 11.8711Z" fill="black"/>
</svg>
