<svg width="81" height="71" viewBox="0 0 81 71" fill="none" xmlns="http://www.w3.org/2000/svg">
<path fill-rule="evenodd" clip-rule="evenodd" d="M50.4639 0.968722C49.8601 1.20695 49.3394 1.5715 48.9016 2.06232C46.8664 2.05488 45.3823 2.99225 44.4491 4.87442C44.3449 5.60349 44.3449 6.33255 44.4491 7.06162C45.1389 8.94973 46.2586 10.538 47.808 11.8266C51.1457 14.5631 54.8952 16.5159 59.0564 17.6851C52.8145 17.1938 47.2423 15.0327 42.34 11.2017C40.7662 9.89973 39.5945 8.31143 38.8249 6.4367C38.2614 4.49546 38.8082 2.95922 40.4653 1.82798C42.2852 0.937899 44.2121 0.495258 46.2457 0.500038C47.6602 0.600759 49.0663 0.756987 50.4639 0.968722Z" fill="#FEF0AF"/>
<path fill-rule="evenodd" clip-rule="evenodd" d="M56.2443 1.59352C55.231 1.64794 54.2415 1.88228 53.276 2.29655C52.549 2.75619 52.3147 3.40714 52.5729 4.2494C53.216 5.46535 54.1274 6.42875 55.3069 7.13962C56.1432 7.56161 56.9764 7.97822 57.8066 8.38944C57.7138 8.46198 57.6096 8.48802 57.4941 8.46756C54.2416 8.02624 51.5076 6.62019 49.2922 4.2494C48.8128 3.57139 48.6827 2.84233 48.9016 2.06221C49.3393 1.57139 49.86 1.20684 50.4639 0.968611C52.4505 0.653249 54.3772 0.861548 56.2443 1.59352Z" fill="#FE9A08"/>
<path opacity="0.99" fill-rule="evenodd" clip-rule="evenodd" d="M56.2443 1.59375C58.2416 2.21466 59.986 3.25619 61.478 4.71831C61.6958 5.01319 61.8779 5.32565 62.0248 5.65568C62.4449 7.34969 61.7679 8.31309 59.9938 8.5459C59.1321 8.6736 58.2987 8.64756 57.4942 8.46778C57.6096 8.48825 57.7138 8.46221 57.8066 8.38967C56.9764 7.97845 56.1433 7.56183 55.307 7.13985C54.1274 6.42898 53.216 5.46558 52.573 4.24963C52.3147 3.40737 52.5491 2.75641 53.276 2.29678C54.2415 1.88251 55.231 1.64816 56.2443 1.59375Z" fill="#FDB441"/>
<path opacity="0.996" fill-rule="evenodd" clip-rule="evenodd" d="M48.9016 2.0623C48.6827 2.84242 48.8129 3.57148 49.2922 4.24949C51.5077 6.62029 54.2417 8.02634 57.4942 8.46765C58.2987 8.64742 59.1321 8.67347 59.9938 8.54576C61.7679 8.31295 62.4449 7.34956 62.0248 5.65555C64.2198 7.04348 65.9644 8.86614 67.2584 11.1235C68.3442 13.8047 67.589 15.7576 64.9931 16.9821C63.0506 17.6257 61.0718 17.8601 59.0564 17.6851C54.8952 16.5159 51.1457 14.563 47.808 11.8266C46.2586 10.538 45.1389 8.94971 44.4491 7.0616C44.3449 6.33253 44.3449 5.60347 44.4491 4.8744C45.3823 2.99223 46.8664 2.05486 48.9016 2.0623Z" fill="#FFF2DD"/>
<path opacity="0.971" fill-rule="evenodd" clip-rule="evenodd" d="M14.3752 2.68722C14.9669 2.58011 15.4616 2.73633 15.8594 3.1559C16.4062 5.23894 16.953 7.32199 17.4998 9.40502C17.2289 10.1365 16.7082 10.3709 15.9375 10.108C14.0489 9.63591 12.1742 9.11516 10.3133 8.54577C10.1256 8.40477 9.99541 8.2225 9.92273 7.99897C10.2699 5.27281 11.7541 3.50223 14.3752 2.68722Z" fill="#67CA44"/>
<path opacity="0.974" fill-rule="evenodd" clip-rule="evenodd" d="M27.4983 9.71753C30.4806 10.1999 32.3031 11.9185 32.9663 14.8731C32.8767 15.1166 32.7726 15.351 32.6539 15.5761C30.5265 16.1991 28.3915 16.7979 26.2485 17.3727C25.675 17.3199 25.3626 17.0074 25.3112 16.4353C25.8336 14.3975 26.3804 12.3665 26.9516 10.3424C27.0593 10.0534 27.2415 9.84507 27.4983 9.71753Z" fill="#FB2A39"/>
<path opacity="0.963" fill-rule="evenodd" clip-rule="evenodd" d="M16.5624 20.1848C16.9883 20.1479 17.3528 20.2781 17.656 20.5754C19.4526 22.372 21.2492 24.1686 23.0459 25.9653C23.3699 26.4794 23.3439 26.974 22.9677 27.4494C20.5018 28.6682 18.2886 28.3298 16.3281 26.4339C15.2422 24.8282 15.0339 23.1097 15.7031 21.2784C15.8542 20.7908 16.1406 20.4263 16.5624 20.1848Z" fill="#FE9800"/>
<path opacity="0.989" fill-rule="evenodd" clip-rule="evenodd" d="M70.9298 36.9013C69.7257 37.3234 68.6843 38.0003 67.8052 38.9322C66.2306 35.9517 64.5121 35.8477 62.6497 38.6198C62.6758 35.5989 62.6497 32.5784 62.5716 29.5585C61.7725 28.6876 61.0435 28.7396 60.3844 29.7148C60.4064 33.2915 60.2763 36.8327 59.9938 40.3383C59.7659 40.3278 59.5576 40.3798 59.3689 40.4945C59.415 37.9361 58.1652 36.478 55.6194 36.1201C54.8185 36.1311 54.1154 36.3915 53.5104 36.9013C53.4271 36.3656 53.2968 35.8449 53.1198 35.339C53.5141 35.116 53.9306 34.9337 54.3696 34.7922C53.5538 33.7328 53.0851 32.535 52.9636 31.1989C53.0778 29.6565 53.9109 28.8493 55.4632 28.7774C56.09 28.8452 56.689 29.0014 57.2598 29.2461C57.137 27.0712 57.8922 25.2746 59.5251 23.8562C61.763 22.7623 63.5596 23.2569 64.915 25.3404C65.546 26.5627 65.8585 27.8646 65.8524 29.2461C68.8516 28.1851 70.2055 29.2267 69.9143 32.3707C69.6884 33.239 69.2978 34.0201 68.7426 34.7141C69.8426 35.085 70.5717 35.8141 70.9298 36.9013Z" fill="#68C944"/>
<path fill-rule="evenodd" clip-rule="evenodd" d="M62.6497 38.6198C62.3883 39.3264 62.206 40.0555 62.1029 40.807C61.4568 40.4165 60.7537 40.2603 59.9938 40.3383C60.2763 36.8327 60.4064 33.2914 60.3844 29.7148C61.0435 28.7396 61.7725 28.6876 62.5716 29.5585C62.6497 32.5784 62.6758 35.5989 62.6497 38.6198Z" fill="#7ED160"/>
<path fill-rule="evenodd" clip-rule="evenodd" d="M53.1198 35.3388C53.2968 35.8446 53.4271 36.3653 53.5104 36.901C54.1154 36.3913 54.8185 36.1308 55.6195 36.1199C58.1652 36.4778 59.415 37.9359 59.3689 40.4943C59.2925 40.7279 59.1885 40.9363 59.0565 41.1192C58.3106 40.5105 57.4773 40.0158 56.5568 39.635C47.7618 35.9134 39.013 35.9915 30.3105 39.8694C30.1858 39.9408 30.1338 40.045 30.1543 40.1818C27.7396 39.0598 25.943 39.6847 24.7644 42.0566C24.6866 42.5748 24.6605 43.0955 24.6863 43.6189C21.8737 45.9634 20.1032 48.9317 19.3745 52.5239C17.604 52.5239 15.8334 52.5239 14.0628 52.5239C13.12 49.5187 14.2136 47.6439 17.3436 46.8996C16.8843 46.3027 16.676 45.6258 16.7187 44.8687C17.0485 42.1139 18.5846 40.9161 21.3274 41.2754C21.2621 40.4998 21.2621 39.7186 21.3274 38.932C21.5656 38.1518 21.9562 37.4747 22.4991 36.901C24.0001 35.9292 25.5363 35.8771 27.1078 36.7448C27.6574 34.0104 29.2978 32.8907 32.029 33.3859C32.6886 33.5462 33.2354 33.8848 33.6694 34.4014C34.7814 32.4676 36.4218 31.8166 38.5906 32.4485C39.2303 32.8015 39.8032 33.2442 40.3091 33.7765C41.8172 32.1213 43.5877 31.7827 45.6209 32.761C46.182 33.2173 46.6246 33.7641 46.9488 34.4014C48.4583 33.0371 50.0987 32.8549 51.87 33.8546C52.3783 34.2838 52.7948 34.7785 53.1198 35.3388Z" fill="#D88A55"/>
<path fill-rule="evenodd" clip-rule="evenodd" d="M20.3119 35.8075C16.3914 37.5065 15.0895 40.4228 16.4062 44.5562C16.1622 44.5198 15.9539 44.4156 15.7813 44.2438C14.8086 43.7398 13.7671 43.4273 12.6568 43.3064C12.1714 39.3424 13.8378 36.8169 17.6561 35.7294C18.5472 35.622 19.4324 35.648 20.3119 35.8075Z" fill="#FB2C3A"/>
<path opacity="0.994" fill-rule="evenodd" clip-rule="evenodd" d="M20.3119 35.8076C21.1282 36.0074 21.8571 36.3719 22.4991 36.9012C21.9562 37.4749 21.5656 38.152 21.3274 38.9322C21.2621 39.7188 21.2621 40.4999 21.3274 41.2756C18.5846 40.9163 17.0484 42.1141 16.7186 44.8688C16.5624 44.8168 16.4582 44.7126 16.4062 44.5564C15.0895 40.4229 16.3913 37.5066 20.3119 35.8076Z" fill="#FC4754"/>
<path opacity="0.991" fill-rule="evenodd" clip-rule="evenodd" d="M70.9298 36.9013C73.7385 36.2478 75.3528 37.3414 75.7729 40.1821C75.6063 41.9473 74.8772 43.4315 73.5857 44.6346C75.6126 45.3289 76.2114 46.6568 75.3823 48.6184C74.3729 49.5526 73.2012 50.1776 71.8672 50.4931C72.1304 51.1432 72.2346 51.8201 72.1796 52.5241C70.3327 52.6795 68.4579 52.7316 66.5554 52.6803C67.3626 50.9328 67.1022 49.3705 65.7743 47.9935C67.5834 46.4192 69.328 44.7528 71.0079 42.9942C71.4024 41.6814 70.9076 41.1346 69.5237 41.3538C67.6174 43.2862 65.6907 45.1868 63.7433 47.0561C63.5597 47.0903 63.4035 47.0383 63.2746 46.8999C64.4924 44.1732 63.7113 42.2726 60.9312 41.1976C60.2732 41.163 59.6482 41.1369 59.0565 41.1195C59.1885 40.9365 59.2925 40.7281 59.3689 40.4945C59.5576 40.3799 59.7659 40.3278 59.9938 40.3383C60.7537 40.2604 61.4567 40.4166 62.1029 40.807C62.206 40.0555 62.3883 39.3264 62.6497 38.6198C64.5121 35.8477 66.2306 35.9517 67.8052 38.9323C68.6843 38.0004 69.7257 37.3234 70.9298 36.9013Z" fill="#037B4E"/>
<path fill-rule="evenodd" clip-rule="evenodd" d="M59.0564 41.1194C59.6482 41.1369 60.2731 41.163 60.9312 41.1975C63.7112 42.2725 64.4924 44.1732 63.2746 46.8998C63.4035 47.0383 63.5597 47.0903 63.7433 47.0561C64.4654 47.2459 65.1423 47.5583 65.7742 47.9934C67.1022 49.3704 67.3626 50.9327 66.5554 52.6803C49.0578 52.6803 31.5603 52.6803 14.0627 52.6803C14.0627 52.6283 14.0627 52.5761 14.0627 52.524C15.8333 52.524 17.604 52.524 19.3745 52.524C20.1031 48.9319 21.8737 45.9636 24.6863 43.6191C24.9534 44.3507 25.4741 44.585 26.2485 44.3221C26.7527 43.8378 27.039 43.2389 27.1078 42.5255C27.3801 42.155 27.7447 41.9466 28.2014 41.9005C28.7708 42.0526 29.2656 42.3389 29.6856 42.7598C31.0152 42.941 31.51 42.3942 31.1697 41.1194C30.8515 40.7748 30.5131 40.4623 30.1542 40.182C30.1338 40.0452 30.1858 39.941 30.3105 39.8696C39.013 35.9917 47.7618 35.9136 56.5568 39.6352C57.4773 40.016 58.3106 40.5107 59.0564 41.1194Z" fill="#E99B58"/>
<path fill-rule="evenodd" clip-rule="evenodd" d="M39.0592 37.6824C41.4723 37.5723 42.8784 38.6918 43.2774 41.0414C43.3321 42.1587 42.8112 42.6274 41.7151 42.4474C41.211 41.9631 40.9246 41.3643 40.8559 40.6508C39.9254 39.7765 39.0661 39.8546 38.2781 40.8851C36.7255 40.982 36.2829 40.331 36.9502 38.9323C37.559 38.3294 38.262 37.9129 39.0592 37.6824Z" fill="#C57A44"/>
<path fill-rule="evenodd" clip-rule="evenodd" d="M30.1543 40.1821C30.5131 40.4624 30.8515 40.7748 31.1698 41.1195C31.51 42.3943 31.0153 42.9411 29.6856 42.7599C29.2657 42.339 28.7709 42.0526 28.2014 41.9006C27.7448 41.9467 27.3801 42.1551 27.1078 42.5255C27.0391 43.239 26.7527 43.8378 26.2486 44.3221C25.4742 44.5851 24.9535 44.3507 24.6863 43.6191C24.6605 43.0958 24.6866 42.575 24.7644 42.0568C25.943 39.685 27.7396 39.0601 30.1543 40.1821Z" fill="#C57A44"/>
<path fill-rule="evenodd" clip-rule="evenodd" d="M65.7743 47.9934C65.1423 47.5583 64.4654 47.2458 63.7433 47.056C65.6907 45.1867 67.6174 43.2861 69.5237 41.3537C70.9076 41.1345 71.4024 41.6813 71.0079 42.9941C69.328 44.7527 67.5834 46.4191 65.7743 47.9934Z" fill="#036841"/>
<path fill-rule="evenodd" clip-rule="evenodd" d="M51.4013 41.588C53.5172 41.2788 55.0534 42.0599 56.01 43.9314C56.1148 45.1279 55.568 45.6227 54.3696 45.4156C53.9431 45.0828 53.6307 44.6661 53.4323 44.1657C52.8594 43.8533 52.2866 43.8533 51.7137 44.1657C51.4393 44.6104 51.1268 45.0269 50.7764 45.4156C49.4048 45.7105 48.8581 45.1637 49.136 43.7752C49.6684 42.7998 50.4236 42.0707 51.4013 41.588Z" fill="#C57A44"/>
<path fill-rule="evenodd" clip-rule="evenodd" d="M12.6568 43.3066C13.7671 43.4276 14.8086 43.74 15.7813 44.244C12.9257 44.6169 11.077 46.1792 10.2352 48.9309C10.1095 50.1436 10.1876 51.3414 10.4696 52.5241C9.48012 52.5241 8.49067 52.5241 7.50123 52.5241C7.44916 52.5241 7.39707 52.5241 7.345 52.5241C5.92848 49.2692 6.60546 46.5352 9.37597 44.3221C10.4034 43.7452 11.497 43.4066 12.6568 43.3066Z" fill="#FE9903"/>
<path fill-rule="evenodd" clip-rule="evenodd" d="M15.7812 44.2439C15.9539 44.4157 16.1621 44.52 16.4062 44.5564C16.4582 44.7126 16.5624 44.8168 16.7186 44.8688C16.676 45.6259 16.8842 46.3028 17.3435 46.8998C14.2135 47.644 13.1199 49.5188 14.0627 52.524C14.0627 52.576 14.0627 52.6282 14.0627 52.6802C12.2922 52.6802 10.5216 52.6802 8.75098 52.6802C8.3002 52.728 7.88359 52.676 7.50116 52.524C8.4906 52.524 9.48005 52.524 10.4695 52.524C10.1875 51.3413 10.1094 50.1435 10.2352 48.9307C11.077 46.1791 12.9257 44.6168 15.7812 44.2439Z" fill="#FCB341"/>
<path fill-rule="evenodd" clip-rule="evenodd" d="M34.8411 45.3375C36.7623 45.1392 38.1944 45.8683 39.1374 47.5246C39.4238 48.9046 38.877 49.4514 37.497 49.165C37.1466 48.7763 36.8341 48.3598 36.5596 47.9152C36.0338 47.6217 35.5129 47.6217 34.9973 47.9152C34.651 48.4555 34.2345 48.9241 33.7475 49.3213C32.8495 49.4972 32.3288 49.1325 32.1852 48.2277C32.6169 46.8332 33.5022 45.8697 34.8411 45.3375Z" fill="#C57A44"/>
<path opacity="0.996" fill-rule="evenodd" clip-rule="evenodd" d="M72.1796 52.5239C74.2112 52.4979 76.2421 52.5239 78.2725 52.6021C79.1492 52.8284 79.8262 53.3231 80.3035 54.0862C80.3035 54.8674 80.3035 55.6485 80.3035 56.4296C79.968 57.1031 79.4473 57.5979 78.7412 57.9138C76.2942 57.9919 73.8465 58.018 71.3985 57.9919C53.9529 57.9919 36.5076 57.9919 19.0621 57.9919C15.7813 57.9919 12.5005 57.9919 9.21969 57.9919C9.11554 57.9919 9.0114 57.9919 8.90724 57.9919C7.16466 56.9549 6.72201 55.4968 7.5793 53.6175C7.9665 53.2834 8.35707 52.9709 8.75101 52.6802C10.5216 52.6802 12.2922 52.6802 14.0628 52.6802C31.5603 52.6802 49.0578 52.6802 66.5554 52.6802C68.4579 52.7314 70.3327 52.6794 72.1796 52.5239Z" fill="#E9F5FE"/>
<path fill-rule="evenodd" clip-rule="evenodd" d="M7.34496 52.5239C7.39703 52.5239 7.44912 52.5239 7.50119 52.5239C7.88362 52.676 8.30023 52.728 8.75101 52.6802C8.35707 52.9709 7.9665 53.2834 7.5793 53.6175C6.72202 55.4968 7.16466 56.9549 8.90724 57.9919C6.56324 58.018 4.21982 57.9919 1.87698 57.9138C1.17083 57.5979 0.650072 57.1031 0.314697 56.4296C0.314697 55.6485 0.314697 54.8674 0.314697 54.0862C0.791982 53.3231 1.46897 52.8284 2.34566 52.6021C4.01129 52.5239 5.67771 52.4979 7.34496 52.5239Z" fill="#D8ECFD"/>
<path fill-rule="evenodd" clip-rule="evenodd" d="M9.21973 57.9919C12.5005 57.9919 15.7813 57.9919 19.0621 57.9919C23.0712 63.9792 28.4872 68.1452 35.3098 70.4902C32.0286 70.5163 28.7478 70.4902 25.4674 70.4121C18.6243 68.124 13.2084 63.9839 9.21973 57.9919Z" fill="#C4E2FE"/>
<path opacity="0.998" fill-rule="evenodd" clip-rule="evenodd" d="M19.0621 57.9919C36.5076 57.9919 53.953 57.9919 71.3985 57.9919C67.4098 63.9839 61.9939 68.124 55.1508 70.4121C48.5373 70.4902 41.9237 70.5163 35.3098 70.4902C28.4872 68.1452 23.0712 63.9792 19.0621 57.9919Z" fill="#D7ECFE"/>
</svg>
