<svg width="87" height="71" viewBox="0 0 87 71" fill="none" xmlns="http://www.w3.org/2000/svg">
<path d="M1.84806 0.688593C1.56448 0.805363 1.24753 1.05558 1.14744 1.25576C0.897223 1.72284 0.897223 20.2725 1.14744 21.4902C2.09828 26.0109 6.83578 28.8967 11.3898 27.7124C12.8077 27.3287 13.9254 26.6781 15.0597 25.5438C16.194 24.4261 16.8446 23.2918 17.2116 21.9073C17.5619 20.5894 17.8121 1.88965 17.4952 1.28912C17.2116 0.788681 16.2774 0.388329 15.777 0.588505C15.5601 0.671911 15.2432 0.905451 15.0597 1.10563C14.7427 1.45593 14.7261 1.73952 14.676 9.51302C14.6426 18.1039 14.6426 18.1039 13.7752 18.5543C12.9578 18.9713 12.1738 18.8546 11.5399 18.2207L10.9728 17.6535V9.61311C10.9728 4.17499 10.9227 1.47262 10.7893 1.23908C10.539 0.788681 9.60488 0.421692 8.97099 0.538462C8.68741 0.605186 8.32042 0.838726 8.13693 1.07226C7.81998 1.47262 7.8033 1.77288 7.8033 9.42962C7.8033 17.0697 7.78662 17.3866 7.46967 17.9204C6.76906 19.0714 4.76729 19.0881 4.16677 17.9204C4.01663 17.6368 3.94991 15.4015 3.93323 9.49634L3.88318 1.43925L3.46615 1.0389C2.91567 0.505098 2.48195 0.40501 1.84806 0.688593Z" fill="black"/>
<path d="M82.6191 0.738533C82.0019 1.12221 80.7341 3.69113 80.217 5.62617C79.8834 6.81055 75.8632 36.5534 75.8632 37.7711C75.8632 38.1715 76.0133 38.4717 76.3469 38.822C76.814 39.2891 76.8974 39.3058 78.4154 39.3058C79.7666 39.3058 80.0669 39.3559 80.5506 39.6895C81.2012 40.1232 81.3347 40.4902 81.3513 42.0916L81.368 43.3093H80.7508C79.8167 43.326 78.7657 43.8598 78.4321 44.5104C78.1485 45.0275 78.1318 45.7948 78.1819 55.8203C78.1986 61.7422 78.2653 66.7633 78.3153 66.9968C78.4655 67.6474 78.9659 68.2646 79.5998 68.5649C80.0335 68.7651 80.6841 68.8318 82.3689 68.8318C84.8211 68.8318 85.4549 68.665 86.0722 67.7975C86.4225 67.2971 86.4225 67.2971 86.3391 56.3208C86.2557 45.7948 86.239 45.3278 85.922 44.7106C85.7385 44.3269 85.3549 43.9599 84.9712 43.7597L84.3373 43.4261L84.4541 38.3216C84.9211 16.7359 85.1547 1.85619 85.0546 1.55592C84.6876 0.605087 83.4699 0.204735 82.6191 0.738533Z" fill="black"/>
<path d="M43.0176 7.96159C33.4425 8.71225 24.7015 14.6842 20.4644 23.3752C13.842 36.9871 19.3802 53.3182 32.9254 60.1242C42.2169 64.7949 53.3267 63.8441 61.6507 57.672C66.6384 53.9687 70.325 48.5807 71.9264 42.6254C72.6604 39.873 72.9106 37.5543 72.8105 34.4682C72.6604 30.3813 71.8263 26.945 70.1081 23.3752C67.6726 18.2873 62.8517 13.383 57.7806 10.8308C53.2766 8.56212 48.1054 7.56124 43.0176 7.96159ZM50.0071 12.8659C54.4777 13.8501 58.0642 15.8185 61.3838 19.1047C65.0537 22.7746 67.1055 26.7615 67.9562 31.966C68.3065 34.0512 68.1731 38.1048 67.706 40.1399C65.8544 48.2637 60.116 54.6193 52.3425 57.1549C49.9404 57.9389 48.0888 58.2225 45.2529 58.2225C41.4329 58.2225 38.3468 57.5052 35.094 55.8704C28.6717 52.6509 24.3679 47.0793 22.7998 39.9731C22.4662 38.5218 22.3995 37.7378 22.4162 35.3857C22.4162 31.1653 23.0834 28.3128 24.9184 24.7931C28.2046 18.4708 34.3934 13.9335 41.3995 12.6991C43.2178 12.3821 48.2556 12.4822 50.0071 12.8659Z" fill="black"/>
<path d="M41.9167 15.8853C31.8745 17.5701 24.6014 27.0951 25.6357 37.204C26.4864 45.6114 32.2915 52.4007 40.4153 54.4692C49.3565 56.7379 58.7148 52.4841 62.8684 44.2602C68.8737 32.3831 61.5506 17.9871 48.4391 15.8686C46.6041 15.5683 43.7182 15.5683 41.9167 15.8853ZM46.4206 19.5552C46.9711 20.1557 46.9878 21.1065 46.454 21.7237C46.1037 22.1241 45.9202 22.1741 44.4189 22.3076C42.4171 22.4744 40.8657 22.9248 39.0808 23.8423C38.0466 24.3761 37.3793 24.8932 36.1616 26.1276C35.2942 26.995 34.3266 28.146 34.0097 28.6798C33.0922 30.2312 32.4917 32.1663 32.2748 34.1847C32.1247 35.6527 32.0079 36.0864 31.7244 36.4033C31.2072 36.9538 30.5733 37.0706 29.8894 36.7369C29.1054 36.3699 28.9386 35.8361 29.0553 34.1346C29.3056 30.2646 31.0571 26.5613 33.943 23.7755C36.9957 20.8063 40.7823 19.1715 44.6357 19.1381C45.9202 19.1214 46.0536 19.1548 46.4206 19.5552Z" fill="black"/>
<path d="M6.46877 37.6211V44.5939L7.3362 44.377C8.6707 44.0267 10.2721 44.0934 11.8568 44.5772C12.1237 44.6606 12.1404 44.2602 12.1404 37.6544V30.6649L11.5232 30.8318C10.7225 31.0653 7.92004 31.0653 7.10266 30.8318L6.46877 30.6649V37.6211Z" fill="black"/>
<path d="M6.75237 47.3797C5.75149 47.6466 4.83401 48.3805 4.35025 49.3147L3.96658 50.032V58.8898V67.7476L4.46702 68.615C4.83401 69.2656 5.201 69.6326 5.85158 69.9996C6.70232 70.5 6.73569 70.5 9.22121 70.5C11.2897 70.5 11.8402 70.4333 12.3907 70.1831C13.2581 69.7827 13.8586 69.1989 14.2923 68.3648C14.6426 67.6975 14.6426 67.464 14.6426 58.8564V50.032L14.259 49.298C13.7585 48.3472 12.7076 47.5632 11.64 47.3296C10.5057 47.0794 7.75325 47.1128 6.75237 47.3797Z" fill="black"/>
</svg>
