<svg width="71" height="71" viewBox="0 0 71 71" fill="none" xmlns="http://www.w3.org/2000/svg">
<path opacity="0.998" fill-rule="evenodd" clip-rule="evenodd" d="M32.6675 0.5C34.7638 0.5 36.8602 0.5 38.9565 0.5C45.7519 1.19991 51.8587 3.61527 57.2769 7.74609C64.9171 18.375 66.4894 29.8594 61.9937 42.1992C56.4451 54.7648 46.8519 62.0336 33.2144 64.0059C23.9686 64.8583 15.6516 62.5112 8.26318 56.9648C8.20866 56.996 8.18588 57.0417 8.19482 57.1016C3.96888 51.6727 1.50794 45.5204 0.812012 38.6445C0.812012 36.5482 0.812012 34.4518 0.812012 32.3555C2.30054 20.0996 8.36173 10.8711 18.9956 4.66992C23.2983 2.38744 27.8555 0.997465 32.6675 0.5Z" fill="#FED05A"/>
<path fill-rule="evenodd" clip-rule="evenodd" d="M57.2769 7.74609C65.1778 14.06 69.6895 22.2632 70.812 32.3555C70.812 34.4518 70.812 36.5482 70.812 38.6445C69.3234 50.9005 63.2623 60.1291 52.6284 66.3301C48.3257 68.6126 43.7685 70.0025 38.9565 70.5C36.8602 70.5 34.7638 70.5 32.6675 70.5C22.6256 69.4221 14.4681 64.9559 8.19482 57.1016C8.18588 57.0417 8.20866 56.996 8.26318 56.9648C15.6516 62.5112 23.9686 64.8583 33.2144 64.0059C46.8519 62.0336 56.4451 54.7648 61.9936 42.1992C66.4894 29.8594 64.9171 18.375 57.2769 7.74609Z" fill="#FFC344"/>
<path fill-rule="evenodd" clip-rule="evenodd" d="M23.5073 24.6992C27.1349 24.6576 28.7983 26.435 28.4976 30.0312C27.6279 32.5371 25.8734 33.5625 23.2339 33.1074C20.4571 31.9062 19.5685 29.8782 20.5679 27.0234C21.2846 25.9034 22.2644 25.1286 23.5073 24.6992Z" fill="#7A6D78"/>
<path fill-rule="evenodd" clip-rule="evenodd" d="M46.3394 24.6992C49.8098 24.6379 51.5188 26.3242 51.4663 29.7578C50.3594 32.8927 48.2403 33.8725 45.1089 32.6973C42.9366 31.0854 42.4581 29.0573 43.6734 26.6133C44.3654 25.6876 45.2541 25.0495 46.3394 24.6992Z" fill="#7B6D78"/>
<path fill-rule="evenodd" clip-rule="evenodd" d="M19.8159 45.2071C30.4801 45.1842 41.1442 45.2071 51.8081 45.2754C52.5175 45.6737 52.6771 46.2434 52.2866 46.9844C52.1841 47.07 52.0701 47.1383 51.9448 47.1895C41.1896 47.2807 30.4345 47.2807 19.6792 47.1895C19.1717 46.8459 19.0123 46.3674 19.2007 45.7539C19.3917 45.5393 19.5968 45.3569 19.8159 45.2071Z" fill="#F6AB31"/>
</svg>
