<svg width="31" height="19" viewBox="0 0 31 19" fill="none" xmlns="http://www.w3.org/2000/svg">
<path opacity="0.985" fill-rule="evenodd" clip-rule="evenodd" d="M30.729 8.68369C30.729 8.95715 30.729 9.23055 30.729 9.504C28.4789 12.749 25.5492 15.1807 21.9399 16.7989C16.1349 18.9986 10.7247 18.276 5.70944 14.631C3.79973 13.1608 2.13958 11.4518 0.728973 9.504C0.728973 9.23055 0.728973 8.95715 0.728973 8.68369C2.97906 5.43865 5.90874 3.00701 9.51804 1.38877C15.3231 -0.810911 20.7332 -0.0882571 25.7485 3.55674C27.6582 5.02691 29.3184 6.73592 30.729 8.68369ZM15.0844 2.82432C17.7118 2.70719 19.7333 3.74236 21.1489 5.92978C22.4299 8.40607 22.2541 10.7693 20.6216 13.0196C18.5904 15.273 16.1392 15.8883 13.268 14.8653C10.6172 13.5589 9.35743 11.4203 9.48874 8.44932C10.0364 5.25525 11.9016 3.38025 15.0844 2.82432Z" fill="black"/>
<path opacity="0.981" fill-rule="evenodd" clip-rule="evenodd" d="M15.0844 5.69543C17.0479 5.49955 18.3663 6.31987 19.0395 8.15637C19.3679 9.71098 18.9089 10.9707 17.6626 11.9357C16.4553 12.6318 15.2248 12.6708 13.9712 12.0529C12.4311 10.948 11.9721 9.49283 12.5942 7.68762C13.1226 6.63838 13.9527 5.97428 15.0844 5.69543Z" fill="black"/>
</svg>
