<svg width="31" height="31" viewBox="0 0 31 31" fill="none" xmlns="http://www.w3.org/2000/svg">
<path opacity="0.975" fill-rule="evenodd" clip-rule="evenodd" d="M29.4985 0.09375C29.7329 0.09375 29.9673 0.09375 30.2017 0.09375C30.2888 0.17013 30.3865 0.238489 30.4946 0.298828C30.5648 0.416914 30.6429 0.524336 30.729 0.621094C30.729 0.855469 30.729 1.08984 30.729 1.32422C21.2713 10.8698 11.7791 20.3913 2.25244 29.8887C2.14425 29.949 2.0466 30.0173 1.95947 30.0938C1.7251 30.0938 1.49072 30.0938 1.25635 30.0938C1.16922 30.0173 1.07157 29.949 0.963379 29.8887C0.893267 29.7706 0.815142 29.6631 0.729004 29.5664C0.729004 29.332 0.729004 29.0977 0.729004 28.8633C0.805384 28.7762 0.873743 28.6785 0.934082 28.5703C3.12239 26.3918 5.30012 24.2043 7.46729 22.0078C4.87547 20.1778 2.62937 17.9903 0.729004 15.4453C0.729004 15.2109 0.729004 14.9766 0.729004 14.7422C2.92949 11.8092 5.58573 9.37752 8.69775 7.44727C10.5141 6.38297 12.4672 5.71888 14.5571 5.45508C16.2974 5.29908 17.9966 5.4944 19.6548 6.04102C20.5731 6.38361 21.4715 6.75469 22.3501 7.1543C24.7088 4.76617 27.0917 2.41266 29.4985 0.09375ZM15.6704 8.94141C16.9759 8.96982 18.1673 9.35068 19.2446 10.084C19.3004 10.1261 19.3101 10.1749 19.2739 10.2305C18.9003 10.6237 18.5097 10.9948 18.1021 11.3438C16.7774 10.611 15.4004 10.5035 13.9712 11.0215C11.8818 12.1046 11.0322 13.8136 11.4224 16.1484C11.5398 16.6185 11.7254 17.058 11.979 17.4668C11.6301 17.8744 11.2589 18.2651 10.8657 18.6387C10.8266 18.6778 10.7876 18.6778 10.7485 18.6387C9.52135 16.7948 9.2967 14.832 10.0747 12.75C11.2018 10.3946 13.067 9.12504 15.6704 8.94141Z" fill="black"/>
<path opacity="0.982" fill-rule="evenodd" clip-rule="evenodd" d="M30.729 14.7422C30.729 14.9766 30.729 15.211 30.729 15.4453C28.4194 18.5657 25.5874 21.0951 22.2329 23.0332C18.6729 25.0094 14.9815 25.3024 11.1587 23.9121C11.0212 23.8704 10.904 23.802 10.8071 23.707C11.7438 22.7411 12.6911 21.7841 13.6489 20.8359C16.7113 21.7358 19.1527 20.8764 20.9731 18.2578C21.9115 16.5822 22.0775 14.8341 21.4712 13.0137C22.7212 11.7637 23.9712 10.5137 25.2212 9.26368C25.326 9.23322 25.4237 9.25273 25.5142 9.32228C27.4877 10.9147 29.226 12.7214 30.729 14.7422Z" fill="black"/>
<path opacity="0.938" fill-rule="evenodd" clip-rule="evenodd" d="M20.0063 14.4492C20.3082 16.6082 19.4684 18.1805 17.4868 19.166C16.7111 19.4762 15.9104 19.5641 15.0845 19.4297C16.7263 17.7683 18.367 16.1081 20.0063 14.4492Z" fill="black"/>
</svg>
