<svg width="31" height="31" viewBox="0 0 31 31" fill="none" xmlns="http://www.w3.org/2000/svg">
<path opacity="0.99" fill-rule="evenodd" clip-rule="evenodd" d="M14.3813 0.09375C15.2797 0.09375 16.1782 0.09375 17.0766 0.09375C22.3292 0.731713 26.2843 3.32937 28.9418 7.88672C29.9201 9.73072 30.5157 11.6838 30.7289 13.7461C30.7289 14.6445 30.7289 15.543 30.7289 16.4414C30.091 21.694 27.4933 25.6491 22.936 28.3066C21.092 29.2849 19.1389 29.8805 17.0766 30.0938C16.1782 30.0938 15.2797 30.0938 14.3813 30.0938C9.12871 29.4558 5.17364 26.8581 2.51605 22.3008C1.53785 20.4568 0.942142 18.5037 0.728943 16.4414C0.728943 15.543 0.728943 14.6445 0.728943 13.7461C1.36688 8.49357 3.96454 4.53851 8.52191 1.88086C10.3659 0.902654 12.319 0.306949 14.3813 0.09375ZM15.0844 6.12891C17.6113 6.00984 19.3788 7.10361 20.3871 9.41016C20.493 9.7357 20.5711 10.0677 20.6215 10.4062C20.641 11.4804 20.6606 12.5547 20.6801 13.6289C21.3637 13.8438 21.8129 14.2929 22.0278 14.9766C22.0669 17.125 22.0669 19.2734 22.0278 21.4219C21.8164 22.1215 21.3574 22.561 20.6508 22.7402C17.3696 22.7793 14.0883 22.7793 10.8071 22.7402C10.1005 22.561 9.64152 22.1215 9.43011 21.4219C9.39103 19.2734 9.39103 17.125 9.43011 14.9766C9.64498 14.2929 10.0942 13.8438 10.7778 13.6289C10.7973 12.5547 10.8169 11.4804 10.8364 10.4062C11.1573 8.60109 12.1436 7.30225 13.7953 6.50977C14.2213 6.345 14.6511 6.21803 15.0844 6.12891Z" fill="black"/>
<path opacity="0.973" fill-rule="evenodd" clip-rule="evenodd" d="M15.3774 8.64839C16.8267 8.58529 17.7349 9.24939 18.102 10.6406C18.1313 11.6365 18.1411 12.6326 18.1313 13.6289C16.5297 13.6289 14.9281 13.6289 13.3266 13.6289C13.3168 12.6326 13.3266 11.6365 13.3559 10.6406C13.598 9.52929 14.2718 8.86525 15.3774 8.64839Z" fill="black"/>
<path opacity="0.956" fill-rule="evenodd" clip-rule="evenodd" d="M15.436 16.207C16.8797 16.2345 17.4753 16.9571 17.2231 18.375C17.094 18.6897 16.8889 18.9436 16.6079 19.1367C16.5493 19.7214 16.5298 20.3073 16.5493 20.8945C16.0024 20.8945 15.4555 20.8945 14.9086 20.8945C14.9281 20.3073 14.9086 19.7214 14.85 19.1367C14.1219 18.5481 13.9559 17.8254 14.352 16.9688C14.6267 16.5858 14.9881 16.3319 15.436 16.207Z" fill="black"/>
</svg>
