<svg width="32" height="31" viewBox="0 0 32 31" fill="none" xmlns="http://www.w3.org/2000/svg">
<path opacity="0.994" fill-rule="evenodd" clip-rule="evenodd" d="M14.894 0.09375C15.5581 0.09375 16.2222 0.09375 16.8862 0.09375C20.8933 0.770473 23.4225 3.07516 24.4741 7.00781C24.5744 7.49103 24.633 7.97936 24.6499 8.47266C24.6792 9.42949 24.689 10.3865 24.6792 11.3438C25.3826 11.334 26.0857 11.3438 26.7886 11.373C26.9351 11.4414 27.0425 11.5488 27.1108 11.6953C27.1499 17.1836 27.1499 22.6719 27.1108 28.1602C26.8169 29.1474 26.1821 29.7919 25.2065 30.0938C18.9956 30.0938 12.7847 30.0938 6.57373 30.0938C5.59813 29.7919 4.96336 29.1474 4.66944 28.1602C4.63037 22.6719 4.63037 17.1836 4.66944 11.6953C4.7378 11.5488 4.84522 11.4414 4.9917 11.373C5.69456 11.3438 6.39768 11.334 7.10108 11.3438C7.09129 10.3865 7.10108 9.42949 7.13037 8.47266C7.33246 5.44021 8.6899 3.0867 11.2026 1.41211C12.3497 0.720645 13.5802 0.281193 14.894 0.09375ZM15.187 3.90234C17.5803 3.746 19.3284 4.72257 20.4312 6.83203C20.5956 7.20826 20.7128 7.59891 20.7827 8.00391C20.8642 9.1152 20.8935 10.2285 20.8706 11.3438C17.5503 11.3438 14.23 11.3438 10.9097 11.3438C10.8868 10.2285 10.9161 9.1152 10.9976 8.00391C11.5193 5.73404 12.9158 4.36685 15.187 3.90234ZM15.5386 16.3828C17.2357 16.3614 18.1732 17.1915 18.3511 18.873C18.3305 19.6662 18.0082 20.3009 17.3843 20.7773C17.4614 21.9599 17.5688 23.1416 17.7065 24.3223C17.7411 24.6584 17.6043 24.8928 17.2964 25.0254C16.3589 25.0645 15.4214 25.0645 14.4839 25.0254C14.3032 24.9793 14.1763 24.8719 14.103 24.7031C14.1544 23.4792 14.2618 22.2585 14.4253 21.041C14.4155 20.9531 14.4058 20.8652 14.396 20.7773C13.4655 19.9853 13.2116 19.0087 13.6343 17.8477C14.0423 17.0581 14.6771 16.5698 15.5386 16.3828Z" fill="black"/>
</svg>
