<svg width="19" height="19" viewBox="0 0 19 19" fill="none" xmlns="http://www.w3.org/2000/svg">
<path fill-rule="evenodd" clip-rule="evenodd" d="M1.36952 14.4568L0.0478417 17.9813C-0.00291019 18.1169 -0.0135485 18.2643 0.0171975 18.4058C0.0479436 18.5473 0.118774 18.677 0.221231 18.7793C0.323687 18.8817 0.453438 18.9524 0.594989 18.983C0.736539 19.0136 0.883906 19.0028 1.01949 18.9519L4.54297 17.6302C4.94626 17.4792 5.31254 17.2436 5.61721 16.9392L15.8235 6.73304C15.8235 6.73304 15.4675 5.66585 14.4013 4.59867C13.3351 3.53249 12.2669 3.17642 12.2669 3.17642L2.06054 13.3826C1.75618 13.6873 1.52057 14.0535 1.36952 14.4568ZM13.6901 1.75317L15.0812 0.362104C15.3307 0.112658 15.6636 -0.0462633 16.0116 0.012075C16.5015 0.0925415 17.2508 0.335953 17.9569 1.04305C18.664 1.75015 18.9075 2.49849 18.9879 2.98833C19.0463 3.33635 18.8873 3.66928 18.6379 3.91872L17.2458 5.30979C17.2458 5.30979 16.8907 4.24361 15.8235 3.17743C14.7573 2.10923 13.6901 1.75317 13.6901 1.75317Z" fill="#475569"/>
</svg>
