<svg width="82" height="65" viewBox="0 0 82 65" fill="none" xmlns="http://www.w3.org/2000/svg">
<path opacity="0.991" fill-rule="evenodd" clip-rule="evenodd" d="M81.812 19.3691C81.812 31.9199 81.812 44.4708 81.812 57.0215C80.7149 61.2561 78.0254 63.8665 73.7437 64.8525C52.1225 64.9581 30.5015 64.9581 8.88037 64.8525C4.59856 63.8665 1.9091 61.2561 0.812012 57.0215C0.812012 44.4708 0.812012 31.9199 0.812012 19.3691C1.87408 14.9061 4.669 12.243 9.19678 11.3799C12.4676 11.3535 15.7371 11.2744 19.0054 11.1426C20.6882 8.53713 22.402 5.95314 24.147 3.39063C25.7725 1.66813 27.75 0.58708 30.0796 0.147465C37.5678 0.0419909 45.0562 0.0419909 52.5444 0.147465C54.874 0.58708 56.8515 1.66813 58.4771 3.39063C60.222 5.95314 61.9358 8.53713 63.6187 11.1426C66.887 11.2744 70.1564 11.3535 73.4272 11.3799C77.955 12.243 80.75 14.9061 81.812 19.3691ZM39.0972 13.5156C48.4633 13.0429 55.556 16.7871 60.3755 24.7481C64.5367 33.2557 63.7984 41.3241 58.1606 48.9531C51.9105 55.8876 44.2377 58.2343 35.1421 55.9932C26.3363 52.9887 21.1947 46.8979 19.7173 37.7207C19.0637 28.2432 22.7815 21.045 30.8706 16.126C33.4849 14.7884 36.227 13.9183 39.0972 13.5156ZM66.6245 19.3691C68.1547 19.3429 69.684 19.3691 71.2124 19.4482C73.5185 20.4079 74.0196 21.9635 72.7153 24.1152C72.3592 24.4122 71.9637 24.6495 71.5288 24.8272C69.8413 24.9327 68.1539 24.9327 66.4663 24.8272C64.8488 24.2556 64.1896 23.1219 64.4888 21.4258C64.8711 20.384 65.5831 19.6985 66.6245 19.3691Z" fill="black"/>
<path opacity="0.985" fill-rule="evenodd" clip-rule="evenodd" d="M39.8882 23.0078C45.0276 22.6642 49.0091 24.6153 51.8325 28.8613C54.6017 34.3652 53.9425 39.4013 49.855 43.9697C45.4239 47.7313 40.5723 48.3642 35.3003 45.8682C29.9812 42.4127 28.1092 37.5875 29.6841 31.3926C31.4936 26.656 34.895 23.8612 39.8882 23.0078Z" fill="black"/>
</svg>
