<svg width="71" height="67" viewBox="0 0 71 67" fill="none" xmlns="http://www.w3.org/2000/svg">
<path opacity="0.992" fill-rule="evenodd" clip-rule="evenodd" d="M23.0971 0.794681C26.2281 0.499576 29.2001 1.04705 32.0132 2.43711C36.9122 5.30257 40.6924 9.23911 43.3538 14.247C48.7128 24.804 50.3813 35.91 48.3593 47.5648C44.9081 60.5049 36.4873 66.7357 23.0971 66.2572C11.4275 65.0693 4.31033 58.7342 1.74557 47.2519C0.169842 37.8646 1.00409 28.6878 4.24832 19.7217C6.79984 12.4802 11.31 6.82294 17.7788 2.74995C19.4558 1.77856 21.2287 1.1268 23.0971 0.794681ZM21.2201 10.4928C22.3757 10.6691 22.7668 11.2948 22.3932 12.3699C18.5012 14.542 15.6335 17.6704 13.79 21.7552C13.2592 23.0349 12.7899 24.3383 12.3823 25.6657C11.3669 26.6127 10.6108 26.4303 10.1141 25.1183C11.4071 20.3405 13.8576 16.2736 17.466 12.9174C18.6476 11.9885 19.8989 11.1803 21.2201 10.4928Z" fill="black"/>
<path opacity="0.987" fill-rule="evenodd" clip-rule="evenodd" d="M50.6274 1.4203C55.6183 1.02363 59.7635 2.69212 63.0629 6.4258C67.222 11.2298 69.7248 16.8088 70.5712 23.1629C71.5591 31.7387 70.7248 40.1334 68.0684 48.3468C65.7554 54.6211 61.8187 59.6006 56.2586 63.2851C50.7438 66.3665 44.9562 67.0181 38.8958 65.2404C45.2753 60.8075 49.264 54.7593 50.862 47.0955C51.7955 42.639 51.952 38.155 51.3313 33.6432C50.7613 27.0353 49.0929 20.7262 46.3258 14.7162C44.5796 11.4576 42.468 8.45953 39.9907 5.7219C43.2871 3.62486 46.8327 2.19099 50.6274 1.4203Z" fill="black"/>
</svg>
