<svg width="82" height="81" viewBox="0 0 82 81" fill="none" xmlns="http://www.w3.org/2000/svg">
<path opacity="0.989" fill-rule="evenodd" clip-rule="evenodd" d="M7.93115 0C12.5718 0 17.2125 0 21.853 0C22.8492 0.461107 23.3238 1.25212 23.2769 2.37305C23.3436 3.4798 22.869 4.24445 21.853 4.66699C17.7397 4.71972 13.6265 4.77247 9.51318 4.8252C7.09231 5.08398 5.80031 6.42871 5.63721 8.85938C5.58448 12.9199 5.53173 16.9804 5.479 21.041C5.05646 22.057 4.29182 22.5316 3.18506 22.4648C2.06413 22.5118 1.27312 22.0372 0.812012 21.041C0.812012 16.4004 0.812012 11.7598 0.812012 7.11914C1.76123 3.32227 4.13428 0.949219 7.93115 0Z" fill="#00347A"/>
<path opacity="0.991" fill-rule="evenodd" clip-rule="evenodd" d="M60.771 0C65.4116 0 70.0523 0 74.6929 0C78.4898 0.949219 80.8628 3.32227 81.812 7.11914C81.812 11.7598 81.812 16.4004 81.812 21.041C81.3509 22.0372 80.5598 22.5118 79.439 22.4648C78.3322 22.5316 77.5676 22.057 77.145 21.041C77.0924 16.9804 77.0395 12.9199 76.9868 8.85938C76.8237 6.42871 75.5317 5.08398 73.1109 4.8252C68.9976 4.77247 64.8843 4.71972 60.771 4.66699C59.755 4.24445 59.2804 3.4798 59.3472 2.37305C59.3002 1.25212 59.7748 0.461107 60.771 0Z" fill="#001636"/>
<path fill-rule="evenodd" clip-rule="evenodd" d="M28.3394 12.6562C30.0715 13.4363 30.5197 14.7019 29.6841 16.4531C29.3519 16.9225 28.9035 17.2125 28.3394 17.3232C25.3193 17.3272 22.3134 17.4326 19.3218 17.6396C18.9394 17.9027 18.6494 18.2454 18.4517 18.668C18.399 21.5683 18.3461 24.4688 18.2935 27.3691C17.7627 28.8083 16.7344 29.362 15.2085 29.0303C14.4934 28.7104 13.9661 28.2094 13.6265 27.5273C13.6001 24.2574 13.6265 20.9879 13.7056 17.7187C14.4175 15.1084 16.0786 13.4473 18.689 12.7353C21.9054 12.6562 25.1221 12.6299 28.3394 12.6562Z" fill="#02367B"/>
<path fill-rule="evenodd" clip-rule="evenodd" d="M28.3394 12.6562C32.6635 12.6562 36.9878 12.6562 41.312 12.6562C41.312 21.1465 41.312 29.6367 41.312 38.127C32.0836 38.127 22.8549 38.127 13.6265 38.127C13.6265 34.5938 13.6265 31.0605 13.6265 27.5273C13.9661 28.2094 14.4934 28.7104 15.2085 29.0303C16.7344 29.362 17.7627 28.8083 18.2935 27.3691C18.3461 24.4688 18.399 21.5683 18.4517 18.668C18.6494 18.2454 18.9394 17.9027 19.3218 17.6396C22.3134 17.4326 25.3193 17.3272 28.3394 17.3232C28.9035 17.2125 29.3519 16.9225 29.6841 16.4531C30.5197 14.7019 30.0715 13.4363 28.3394 12.6562Z" fill="#EBF8FC"/>
<path fill-rule="evenodd" clip-rule="evenodd" d="M41.312 12.6562C45.5835 12.6562 49.855 12.6562 54.1265 12.6562C52.5131 13.5197 52.1176 14.7853 52.9399 16.4531C53.2465 16.8654 53.642 17.1554 54.1265 17.3232C57.0796 17.3759 60.0327 17.4288 62.9858 17.4814C63.4084 17.6792 63.7511 17.9692 64.0142 18.3516C64.2213 21.396 64.3268 24.4546 64.3306 27.5273C65.048 29.0061 66.1819 29.4544 67.7319 28.8721C68.3655 28.5302 68.7873 28.0292 68.9976 27.3691C68.9976 30.9551 68.9976 34.541 68.9976 38.127C59.7691 38.127 50.5405 38.127 41.312 38.127C41.312 29.6367 41.312 21.1465 41.312 12.6562Z" fill="#D8F2FB"/>
<path fill-rule="evenodd" clip-rule="evenodd" d="M54.1265 12.6562C57.3964 12.6299 60.666 12.6562 63.9351 12.7353C66.5454 13.4473 68.2066 15.1084 68.9185 17.7187C68.9976 20.9352 69.024 24.1519 68.9976 27.3691C68.7873 28.0292 68.3656 28.5302 67.7319 28.8721C66.1819 29.4544 65.048 29.0061 64.3306 27.5273C64.3268 24.4546 64.2213 21.396 64.0142 18.3516C63.7511 17.9692 63.4084 17.6792 62.9859 17.4814C60.0327 17.4288 57.0797 17.3759 54.1265 17.3232C53.6421 17.1554 53.2466 16.8654 52.94 16.4531C52.1176 14.7853 52.5131 13.5197 54.1265 12.6562Z" fill="#011838"/>
<path opacity="0.999" fill-rule="evenodd" clip-rule="evenodd" d="M13.6265 38.127C22.8549 38.127 32.0835 38.127 41.312 38.127C41.312 39.709 41.312 41.291 41.312 42.8731C32.0835 42.8731 22.8549 42.8731 13.6265 42.8731C9.88195 42.8995 6.13781 42.8731 2.39404 42.794C1.37814 42.3714 0.903529 41.6068 0.970211 40.5C0.903529 39.3932 1.37814 38.6286 2.39404 38.2061C6.13781 38.127 9.88195 38.1006 13.6265 38.127Z" fill="#58B254"/>
<path fill-rule="evenodd" clip-rule="evenodd" d="M41.312 38.127C50.5405 38.127 59.7691 38.127 68.9976 38.127C72.7421 38.1006 76.4863 38.127 80.23 38.2061C81.246 38.6286 81.7206 39.3932 81.6538 40.5C81.7206 41.6068 81.246 42.3714 80.23 42.794C76.4863 42.8731 72.7421 42.8995 68.9976 42.8731C59.7691 42.8731 50.5405 42.8731 41.312 42.8731C41.312 41.291 41.312 39.709 41.312 38.127Z" fill="#00A962"/>
<path fill-rule="evenodd" clip-rule="evenodd" d="M13.6265 42.873C22.8549 42.873 32.0836 42.873 41.312 42.873C41.312 51.2578 41.312 59.6426 41.312 68.0273C36.9878 68.0273 32.6635 68.0273 28.3394 68.0273C30.0214 67.2275 30.4697 65.9618 29.6841 64.2305C29.3519 63.7611 28.9035 63.4711 28.3394 63.3604C25.3193 63.3564 22.3134 63.251 19.3218 63.0439C18.9394 62.7809 18.6494 62.4382 18.4517 62.0156C18.399 59.0624 18.3461 56.1094 18.2935 53.1563C17.44 51.5886 16.2007 51.1931 14.5757 51.9697C14.1611 52.3042 13.8447 52.6997 13.6265 53.1563C13.6265 49.7285 13.6265 46.3008 13.6265 42.873Z" fill="#EBF8FC"/>
<path fill-rule="evenodd" clip-rule="evenodd" d="M41.312 42.873C50.5405 42.873 59.7691 42.873 68.9976 42.873C68.9976 46.3008 68.9976 49.7285 68.9976 53.1563C68.111 51.6041 66.8454 51.2086 65.2007 51.9697C64.7884 52.2763 64.4984 52.6718 64.3306 53.1563C64.3268 56.229 64.2213 59.2876 64.0142 62.332C63.7511 62.7144 63.4084 63.0044 62.9858 63.2022C60.0327 63.2548 57.0796 63.3077 54.1265 63.3604C52.5084 64.1935 52.1129 65.4327 52.9399 67.0781C53.2744 67.4928 53.6699 67.8092 54.1265 68.0273C49.855 68.0273 45.5835 68.0273 41.312 68.0273C41.312 59.6426 41.312 51.2578 41.312 42.873Z" fill="#D8F2FB"/>
<path fill-rule="evenodd" clip-rule="evenodd" d="M28.3394 68.0274C25.1221 68.0538 21.9054 68.0274 18.689 67.9483C16.0786 67.2364 14.4175 65.5753 13.7056 62.9649C13.6265 59.6958 13.6001 56.4262 13.6265 53.1563C13.8447 52.6997 14.1611 52.3042 14.5757 51.9698C16.2007 51.1932 17.4399 51.5887 18.2935 53.1563C18.3461 56.1095 18.399 59.0625 18.4517 62.0157C18.6494 62.4382 18.9394 62.7809 19.3218 63.044C22.3134 63.2511 25.3193 63.3565 28.3394 63.3604C28.9035 63.4712 29.3519 63.7611 29.6841 64.2305C30.4697 65.9619 30.0214 67.2275 28.3394 68.0274Z" fill="#02367B"/>
<path fill-rule="evenodd" clip-rule="evenodd" d="M68.9976 53.1563C69.024 56.4262 68.9976 59.6958 68.9185 62.9649C68.2065 65.5752 66.5454 67.2364 63.9351 67.9483C60.6659 68.0274 57.3964 68.0538 54.1265 68.0274C53.6699 67.8092 53.2744 67.4928 52.9399 67.0782C52.1129 65.4327 52.5084 64.1935 54.1265 63.3604C57.0796 63.3077 60.0327 63.2549 62.9858 63.2022C63.4084 63.0044 63.7511 62.7144 64.0142 62.3321C64.2212 59.2876 64.3268 56.2291 64.3306 53.1563C64.4984 52.6719 64.7884 52.2764 65.2007 51.9698C66.8454 51.2086 68.111 51.6041 68.9976 53.1563Z" fill="#011838"/>
<path opacity="0.99" fill-rule="evenodd" clip-rule="evenodd" d="M21.853 81.0001C17.2125 81.0001 12.5718 81.0001 7.93115 81.0001C4.13428 80.0509 1.76123 77.6778 0.812012 73.8809C0.812012 69.2404 0.812012 64.5996 0.812012 59.9591C1.27312 58.9629 2.06413 58.4882 3.18506 58.5352C4.29182 58.4685 5.05646 58.9431 5.479 59.9591C5.53173 64.0197 5.58448 68.0801 5.63721 72.1407C5.80031 74.5713 7.09231 75.9161 9.51318 76.1749C13.6265 76.2276 17.7397 76.2804 21.853 76.3331C22.869 76.7556 23.3436 77.5202 23.2769 78.627C23.3238 79.7479 22.8492 80.5389 21.853 81.0001Z" fill="#00347A"/>
<path opacity="0.991" fill-rule="evenodd" clip-rule="evenodd" d="M81.812 59.9591C81.812 64.5996 81.812 69.2404 81.812 73.8809C80.8628 77.6778 78.4898 80.0509 74.6929 81.0001C70.0523 81.0001 65.4116 81.0001 60.771 81.0001C59.7748 80.5389 59.3002 79.7479 59.3472 78.627C59.2804 77.5202 59.755 76.7556 60.771 76.3331C64.8843 76.2804 68.9976 76.2276 73.1109 76.1749C75.5317 75.9161 76.8237 74.5713 76.9868 72.1407C77.0395 68.0801 77.0924 64.0197 77.145 59.9591C77.5676 58.9431 78.3322 58.4685 79.439 58.5352C80.5598 58.4882 81.3509 58.9629 81.812 59.9591Z" fill="#001636"/>
</svg>
