<svg width="82" height="81" viewBox="0 0 82 81" fill="none" xmlns="http://www.w3.org/2000/svg">
<path opacity="0.986" fill-rule="evenodd" clip-rule="evenodd" d="M2.68986 0.0786576C7.26235 0.04859 11.8345 0.0786576 16.4061 0.168896C18.0272 0.976189 18.5988 2.2696 18.1207 4.04916C17.7899 4.86131 17.2183 5.43282 16.4061 5.76369C13.1581 5.85391 9.90952 5.884 6.66037 5.85393C6.69043 9.10308 6.66035 12.3517 6.57013 15.5997C5.76283 17.2208 4.46942 17.7923 2.68986 17.3142C1.87772 16.9834 1.3062 16.4119 0.975329 15.5997C0.855005 11.0276 0.855005 6.45552 0.975329 1.88343C1.34031 1.06767 1.91183 0.466088 2.68986 0.0786576Z" fill="black"/>
<path opacity="0.986" fill-rule="evenodd" clip-rule="evenodd" d="M66.2179 0.0786576C70.7905 0.04859 75.3625 0.0786576 79.9342 0.168896C80.7463 0.499765 81.3179 1.07128 81.6487 1.88343C81.7691 6.45552 81.7691 11.0276 81.6487 15.5997C80.8414 17.2208 79.5479 17.7923 77.7684 17.3142C76.9563 16.9834 76.3847 16.4119 76.0539 15.5997C75.9637 12.3517 75.9335 9.10308 75.9637 5.85393C72.7145 5.884 69.4659 5.85391 66.2179 5.76369C64.5968 4.9564 64.0253 3.66299 64.5034 1.88343C64.8683 1.06767 65.4399 0.466088 66.2179 0.0786576Z" fill="black"/>
<path opacity="0.996" fill-rule="evenodd" clip-rule="evenodd" d="M14.2404 11.6292C17.8505 11.5991 21.46 11.6292 25.069 11.7194C25.8812 12.0503 26.4528 12.6218 26.7836 13.434C26.8738 21.495 26.904 29.5564 26.8738 37.6179C28.799 37.6179 30.7239 37.6179 32.6491 37.6179C32.619 29.5564 32.6491 21.495 32.7393 13.434C33.2459 12.173 34.1783 11.5714 35.5367 11.6292C36.8952 11.5714 37.8275 12.173 38.3341 13.434C38.4244 21.495 38.4545 29.5564 38.4244 37.6179C40.3495 37.6179 42.2745 37.6179 44.1996 37.6179C44.1695 29.5564 44.1996 21.495 44.2899 13.434C44.6207 12.6218 45.1923 12.0503 46.0044 11.7194C49.614 11.5991 53.2235 11.5991 56.8331 11.7194C57.6452 12.0503 58.2168 12.6218 58.5476 13.434C58.6378 21.495 58.668 29.5564 58.6378 37.6179C60.563 37.6179 62.488 37.6179 64.4131 37.6179C64.383 29.5564 64.4131 21.495 64.5033 13.434C65.0099 12.173 65.9423 11.5714 67.3008 11.6292C68.6592 11.5714 69.5915 12.173 70.0981 13.434C70.1884 21.495 70.2185 29.5564 70.1884 37.6179C73.4375 37.5878 76.6861 37.6179 79.9342 37.7082C81.5552 38.5154 82.1268 39.8089 81.6487 41.5884C81.3179 42.4006 80.7463 42.9722 79.9342 43.303C54.186 43.4233 28.438 43.4233 2.68986 43.303C1.06878 42.4957 0.497258 41.2022 0.975325 39.4227C1.30619 38.6106 1.87771 38.039 2.68986 37.7082C5.93789 37.6179 9.18648 37.5878 12.4356 37.6179C12.4055 29.5564 12.4356 21.495 12.5259 13.434C12.8909 12.6182 13.4624 12.0166 14.2404 11.6292Z" fill="black"/>
<path opacity="0.994" fill-rule="evenodd" clip-rule="evenodd" d="M14.2404 49.1685C17.8505 49.1384 21.46 49.1685 25.069 49.2588C25.8812 49.5896 26.4528 50.1612 26.7836 50.9733C26.904 56.508 26.904 62.0425 26.7836 67.5772C26.4528 68.3894 25.8812 68.9609 25.069 69.2918C21.4595 69.4121 17.8499 69.4121 14.2404 69.2918C13.4283 68.9609 12.8567 68.3894 12.5259 67.5772C12.4055 62.0425 12.4055 56.508 12.5259 50.9733C12.8908 50.1575 13.4624 49.556 14.2404 49.1685Z" fill="black"/>
<path opacity="0.984" fill-rule="evenodd" clip-rule="evenodd" d="M34.4539 49.1686C36.2334 48.7805 37.5269 49.3821 38.3341 50.9733C38.4545 56.508 38.4545 62.0425 38.3341 67.5772C37.8275 68.8382 36.8952 69.4398 35.5367 69.382C34.1783 69.4398 33.2459 68.8382 32.7393 67.5772C32.619 62.0425 32.619 56.508 32.7393 50.9733C33.1043 50.1576 33.6758 49.556 34.4539 49.1686Z" fill="black"/>
<path opacity="0.994" fill-rule="evenodd" clip-rule="evenodd" d="M46.0044 49.1685C49.6145 49.1384 53.224 49.1685 56.833 49.2588C57.6452 49.5896 58.2168 50.1612 58.5476 50.9733C58.668 56.508 58.668 62.0425 58.5476 67.5772C58.2168 68.3894 57.6452 68.9609 56.833 69.2918C53.2235 69.4121 49.614 69.4121 46.0044 69.2918C45.1923 68.9609 44.6207 68.3894 44.2899 67.5772C44.1695 62.0425 44.1695 56.508 44.2899 50.9733C44.6548 50.1575 45.2264 49.556 46.0044 49.1685Z" fill="black"/>
<path opacity="0.984" fill-rule="evenodd" clip-rule="evenodd" d="M66.2179 49.1686C67.9974 48.7805 69.2909 49.3821 70.0982 50.9733C70.2185 56.508 70.2185 62.0425 70.0982 67.5772C69.5916 68.8382 68.6592 69.4398 67.3008 69.382C65.9423 69.4398 65.01 68.8382 64.5034 67.5772C64.383 62.0425 64.383 56.508 64.5034 50.9733C64.8683 50.1576 65.4399 49.556 66.2179 49.1686Z" fill="black"/>
<path opacity="0.986" fill-rule="evenodd" clip-rule="evenodd" d="M2.68986 63.6067C4.46937 63.2186 5.7628 63.8202 6.57013 65.4114C6.66035 68.6595 6.69043 71.9081 6.66037 75.1572C9.90952 75.1271 13.1581 75.1572 16.4061 75.2475C18.0272 76.0547 18.5988 77.3482 18.1207 79.1277C17.7899 79.9399 17.2183 80.5114 16.4061 80.8423C11.8341 80.9626 7.26195 80.9626 2.68986 80.8423C1.87772 80.5114 1.3062 79.9399 0.975329 79.1277C0.855005 74.5557 0.855005 69.9835 0.975329 65.4114C1.34031 64.5957 1.91183 63.9942 2.68986 63.6067Z" fill="black"/>
<path opacity="0.986" fill-rule="evenodd" clip-rule="evenodd" d="M77.7684 63.6067C79.5479 63.2186 80.8414 63.8202 81.6487 65.4114C81.7691 69.9835 81.7691 74.5557 81.6487 79.1277C81.3179 79.9399 80.7463 80.5114 79.9342 80.8423C75.3621 80.9626 70.7899 80.9626 66.2179 80.8423C64.5968 80.035 64.0253 78.7415 64.5034 76.962C64.8342 76.1498 65.4057 75.5783 66.2179 75.2475C69.4659 75.1572 72.7145 75.1271 75.9637 75.1572C75.9335 71.9081 75.9637 68.6595 76.0539 65.4114C76.4188 64.5957 76.9904 63.9942 77.7684 63.6067Z" fill="black"/>
</svg>
