<svg width="42" height="41" viewBox="0 0 42 41" fill="none" xmlns="http://www.w3.org/2000/svg">
<path opacity="0.986" fill-rule="evenodd" clip-rule="evenodd" d="M21.8068 8.79968C21.7666 8.95226 21.7381 9.10875 21.7214 9.269C21.8313 10.1662 21.9451 11.0621 22.0627 11.9569C21.664 12.4409 21.2658 12.9245 20.8681 13.4075C20.409 12.9718 20.0107 12.4883 19.6735 11.9569C19.5514 7.87632 18.7834 3.92266 17.3696 0.0959764C18.9898 0.01068 20.6111 -0.0177606 22.2334 0.0106459C21.7748 2.9379 21.6325 5.86758 21.8068 8.79968Z" fill="#A55943"/>
<path opacity="0.992" fill-rule="evenodd" clip-rule="evenodd" d="M30.4251 6.83713C27.9345 7.37138 25.7443 8.49493 23.8547 10.2077C23.2686 10.8081 22.6713 11.3911 22.0627 11.957C21.9451 11.0622 21.8313 10.1662 21.7214 9.26905C21.7381 9.1088 21.7665 8.9523 21.8067 8.79973C23.4092 4.6891 26.3816 2.18607 30.7238 1.29065C30.8044 1.32524 30.8613 1.38212 30.8944 1.46131C30.98 3.27865 30.8236 5.07059 30.4251 6.83713Z" fill="#66BA69"/>
<path opacity="0.997" fill-rule="evenodd" clip-rule="evenodd" d="M19.6735 11.957C20.0107 12.4884 20.4089 12.9719 20.8681 13.4076C21.2658 12.9245 21.664 12.441 22.0627 11.957C22.6713 11.3911 23.2686 10.8081 23.8547 10.2077C25.7443 8.49495 27.9345 7.3714 30.4251 6.83715C33.5031 6.61601 36.0487 7.66844 38.0622 9.99437C40.9058 13.8038 41.9298 18.0703 41.1341 22.7939C40.1013 29.2268 37.2427 34.6737 32.5584 39.1347C29.9798 41.0671 27.1639 41.4938 24.1107 40.4147C23.0075 40.0186 21.9125 39.6062 20.8254 39.1774C19.1574 39.9135 17.4365 40.4967 15.663 40.9267C13.0312 41.2438 10.7273 40.5327 8.75118 38.7934C3.53834 33.5565 0.722431 27.2278 0.303467 19.8074C0.303518 16.1805 1.3986 12.9379 3.58869 10.0797C6.98296 6.45404 10.8655 5.8425 15.2363 8.2451C16.9084 9.2485 18.3875 10.4858 19.6735 11.957Z" fill="#EE534F"/>
</svg>
