<svg width="27" height="26" viewBox="0 0 27 26" fill="none" xmlns="http://www.w3.org/2000/svg">
<path d="M5.78125 25.1875H4.15625C3.83302 25.1875 3.52302 25.0591 3.29446 24.8305C3.0659 24.602 2.9375 24.292 2.9375 23.9688V16.6562C2.9375 16.333 3.0659 16.023 3.29446 15.7945C3.52302 15.5659 3.83302 15.4375 4.15625 15.4375H5.78125C6.10448 15.4375 6.41448 15.5659 6.64304 15.7945C6.8716 16.023 7 16.333 7 16.6562V23.9688C7 24.292 6.8716 24.602 6.64304 24.8305C6.41448 25.0591 6.10448 25.1875 5.78125 25.1875Z" fill="#94A3B8"/>
<path d="M17.1562 25.1875H15.5312C15.208 25.1875 14.898 25.0591 14.6695 24.8305C14.4409 24.602 14.3125 24.292 14.3125 23.9688V11.7812C14.3125 11.458 14.4409 11.148 14.6695 10.9195C14.898 10.6909 15.208 10.5625 15.5312 10.5625H17.1562C17.4795 10.5625 17.7895 10.6909 18.018 10.9195C18.2466 11.148 18.375 11.458 18.375 11.7812V23.9688C18.375 24.292 18.2466 24.602 18.018 24.8305C17.7895 25.0591 17.4795 25.1875 17.1562 25.1875Z" fill="#94A3B8"/>
<path d="M22.8438 25.1875H21.2188C20.8955 25.1875 20.5855 25.0591 20.357 24.8305C20.1284 24.602 20 24.292 20 23.9688V6.09375C20 5.77052 20.1284 5.46052 20.357 5.23196C20.5855 5.0034 20.8955 4.875 21.2188 4.875H22.8438C23.167 4.875 23.477 5.0034 23.7055 5.23196C23.9341 5.46052 24.0625 5.77052 24.0625 6.09375V23.9688C24.0625 24.292 23.9341 24.602 23.7055 24.8305C23.477 25.0591 23.167 25.1875 22.8438 25.1875Z" fill="#94A3B8"/>
<path d="M11.4688 25.1875H9.84375C9.52052 25.1875 9.21052 25.0591 8.98196 24.8305C8.7534 24.602 8.625 24.292 8.625 23.9688V2.03125C8.625 1.70802 8.7534 1.39802 8.98196 1.16946C9.21052 0.940904 9.52052 0.8125 9.84375 0.8125H11.4688C11.792 0.8125 12.102 0.940904 12.3305 1.16946C12.5591 1.39802 12.6875 1.70802 12.6875 2.03125V23.9688C12.6875 24.292 12.5591 24.602 12.3305 24.8305C12.102 25.0591 11.792 25.1875 11.4688 25.1875Z" fill="#94A3B8"/>
</svg>
