<svg width="54" height="71" viewBox="0 0 54 71" fill="none" xmlns="http://www.w3.org/2000/svg">
<path opacity="0.993" fill-rule="evenodd" clip-rule="evenodd" d="M26.4792 0.5C27.1172 0.5 27.7552 0.5 28.3932 0.5C29.0108 0.708168 29.5348 1.07275 29.9655 1.59375C36.1546 9.23116 41.8056 17.252 46.9186 25.6562C48.2347 27.9693 49.4423 30.3391 50.5417 32.7656C49.4169 32.9863 48.4142 33.4648 47.5338 34.2012C46.4292 35.3064 45.2442 36.3091 43.9792 37.209C41.24 38.5682 38.5056 38.5682 35.776 37.209C34.3689 36.1211 33.0017 34.9818 31.6745 33.791C29.3516 32.3757 26.8907 32.1023 24.2917 32.9707C23.5165 33.358 22.7873 33.8137 22.1042 34.3379C20.6224 36.0031 18.8451 37.2336 16.7721 38.0293C14.6095 38.5196 12.5587 38.2461 10.6198 37.209C9.35472 36.3091 8.16978 35.3064 7.06509 34.2012C6.18695 33.4659 5.18434 32.9874 4.05728 32.7656C7.0275 26.6343 10.4682 20.801 14.3795 15.2656C17.8664 10.4128 21.5351 5.69596 25.3854 1.11523C25.7407 0.869819 26.1054 0.664741 26.4792 0.5Z" fill="#CBF1FD"/>
<path fill-rule="evenodd" clip-rule="evenodd" d="M50.5417 32.7656C52.531 36.5303 53.5791 40.5408 53.6862 44.7969C53.4704 45.4918 53.3792 46.2209 53.4127 46.9844C52.9285 46.9416 52.4728 46.9872 52.0456 47.1211C51.1841 47.1315 50.3638 47.3137 49.5846 47.668C49.1525 47.8611 48.7423 48.0891 48.3542 48.3516C47.9016 48.6225 47.4915 48.9415 47.1237 49.3086C46.71 49.677 46.2998 50.0417 45.8932 50.4023C45.5252 50.7253 45.1605 51.0444 44.7995 51.3594C44.4299 51.5892 44.0654 51.817 43.7057 52.043C43.1095 52.2932 42.5171 52.5209 41.9284 52.7266C41.4727 52.7721 41.0169 52.8178 40.5612 52.8633C39.6449 52.8857 38.7334 52.8402 37.8268 52.7266C36.827 52.4773 35.9156 52.0443 35.0924 51.4277C33.9288 50.369 32.7439 49.3436 31.5378 48.3516C30.4908 47.6986 29.3515 47.2884 28.1198 47.1211C27.3643 47.0772 26.635 47.1227 25.9323 47.2578C25.3883 47.2909 24.8869 47.4276 24.4284 47.668C23.8603 47.8378 23.359 48.1112 22.9245 48.4883C22.518 48.7135 22.1534 48.9869 21.8307 49.3086C21.417 49.677 21.0069 50.0417 20.6003 50.4023C20.2302 50.7227 19.8655 51.0418 19.5065 51.3594C19.0678 51.6007 18.6576 51.8741 18.276 52.1797C17.7452 52.3108 17.2438 52.493 16.7721 52.7266C15.8639 52.8239 14.9525 52.8696 14.0377 52.8633C13.5322 52.8562 13.0308 52.8105 12.5338 52.7266C11.6657 52.4062 10.8454 51.9732 10.0729 51.4277C8.8598 50.3735 7.62933 49.3481 6.3815 48.3516C5.38796 47.6923 4.29421 47.2821 3.10025 47.1211C2.44482 47.0395 1.85238 47.1307 1.3229 47.3945C1.19882 46.7997 1.0621 46.2073 0.912749 45.6172C0.887196 41.071 1.93536 36.7871 4.05728 32.7656C5.18433 32.9874 6.18695 33.4659 7.06509 34.2012C8.16978 35.3064 9.35472 36.3091 10.6198 37.209C12.5587 38.2461 14.6095 38.5196 16.7721 38.0293C18.8451 37.2336 20.6224 36.0031 22.1042 34.3379C22.7873 33.8137 23.5165 33.358 24.2917 32.9707C26.8907 32.1023 29.3516 32.3757 31.6745 33.791C33.0017 34.9818 34.3689 36.1211 35.776 37.209C38.5056 38.5682 41.24 38.5682 43.9792 37.209C45.2442 36.3091 46.4292 35.3064 47.5338 34.2012C48.4142 33.4648 49.4169 32.9863 50.5417 32.7656Z" fill="#B3ECFC"/>
<path opacity="0.532" fill-rule="evenodd" clip-rule="evenodd" d="M53.6862 44.7969C53.7103 45.5324 53.6646 46.2615 53.5495 46.9844C53.0761 47.1186 52.5748 47.1642 52.0456 47.1211C52.4728 46.9872 52.9285 46.9416 53.4128 46.9844C53.3793 46.2209 53.4704 45.4918 53.6862 44.7969Z" fill="#C9EEFC"/>
<path opacity="0.601" fill-rule="evenodd" clip-rule="evenodd" d="M0.91275 45.6172C1.0621 46.2073 1.19882 46.7997 1.32291 47.3945C1.3405 47.6291 1.38607 47.8571 1.45963 48.0781C1.48679 49.144 1.71465 50.1465 2.14322 51.0859C4.56264 59.3159 9.71238 65.1264 17.5924 68.5176C18.4837 68.883 19.3952 69.1793 20.3268 69.4062C21.0715 69.6492 21.8463 69.8314 22.651 69.9531C22.651 69.9987 22.651 70.0443 22.651 70.0898C13.0165 68.2245 6.34007 62.7557 2.62173 53.6836C1.64102 51.0824 1.07137 48.3935 0.91275 45.6172Z" fill="#C5F0FD"/>
<path fill-rule="evenodd" clip-rule="evenodd" d="M3.10025 47.1211C10.6311 54.857 18.2417 62.5361 25.9323 70.1582C25.5246 70.2263 25.1144 70.2491 24.7018 70.2265C24.0658 70.1585 23.4277 70.1129 22.7878 70.0898C22.7422 70.0898 22.6966 70.0898 22.651 70.0898C22.651 70.0443 22.651 69.9986 22.651 69.9531C22.8833 69.975 23.1112 69.9523 23.3346 69.8847C16.0611 62.5883 8.76929 55.3194 1.45963 48.0781C1.38607 47.857 1.3405 47.6291 1.32291 47.3945C1.85238 47.1306 2.44482 47.0395 3.10025 47.1211Z" fill="#4ECFF9"/>
<path fill-rule="evenodd" clip-rule="evenodd" d="M28.1198 47.1211C33.5837 52.6535 39.0753 58.1679 44.5944 63.6641C44.6604 63.7937 44.6831 63.9304 44.6627 64.0743C44.6627 64.1654 44.6172 64.211 44.526 64.211C44.2657 64.2435 44.0833 64.3802 43.9792 64.6211C43.9792 64.7123 43.9336 64.7579 43.8424 64.7579C43.6908 64.7656 43.5541 64.8112 43.4323 64.8946C37.5989 59.0157 31.7657 53.1368 25.9323 47.2579C26.635 47.1228 27.3643 47.0772 28.1198 47.1211Z" fill="#98D4F5"/>
<path fill-rule="evenodd" clip-rule="evenodd" d="M3.10025 47.1211C4.29422 47.2821 5.38796 47.6923 6.3815 48.3516C6.36359 48.4526 6.38642 48.5438 6.44986 48.625C13.7007 55.853 20.924 63.0991 28.1198 70.3633C26.9553 70.4079 25.8161 70.3623 24.7018 70.2266C25.1144 70.2491 25.5246 70.2263 25.9323 70.1582C18.2417 62.5361 10.6311 54.8571 3.10025 47.1211Z" fill="#54CFF8"/>
<path fill-rule="evenodd" clip-rule="evenodd" d="M25.9323 47.2578C31.7657 53.1367 37.5989 59.0156 43.4323 64.8945C43.4323 64.9401 43.4323 64.9857 43.4323 65.0312C43.1219 65.3696 42.7573 65.6431 42.3385 65.8516C42.3564 65.7505 42.3336 65.6593 42.2702 65.5781C36.2954 59.6261 30.3482 53.6561 24.4284 47.668C24.8869 47.4276 25.3883 47.2909 25.9323 47.2578Z" fill="#92D3F5"/>
<path fill-rule="evenodd" clip-rule="evenodd" d="M28.1198 47.1211C29.3515 47.2884 30.4908 47.6986 31.5378 48.3516C36.1746 53.1936 40.8914 57.9788 45.6881 62.707C45.7292 62.9211 45.6608 63.1034 45.4831 63.2539C45.2552 63.5729 44.9817 63.8463 44.6628 64.0742C44.6831 63.9304 44.6604 63.7937 44.5944 63.6641C39.0753 58.1678 33.5837 52.6534 28.1198 47.1211Z" fill="#9FD4F4"/>
<path opacity="0.974" fill-rule="evenodd" clip-rule="evenodd" d="M53.5495 46.9844C53.5898 48.3827 53.362 49.7499 52.8659 51.0859C51.7721 49.9467 50.6784 48.8072 49.5846 47.668C50.3638 47.3137 51.1841 47.1315 52.0456 47.1211C52.5748 47.1642 53.0761 47.1186 53.5495 46.9844Z" fill="#DED8F1"/>
<path fill-rule="evenodd" clip-rule="evenodd" d="M24.4284 47.668C30.3482 53.6561 36.2954 59.6261 42.2702 65.5781C42.3336 65.6593 42.3564 65.7505 42.3385 65.8516C42.1298 65.8416 41.993 65.9328 41.9284 66.125C41.7196 66.115 41.5829 66.2062 41.5182 66.3984C41.4102 66.5216 41.2735 66.6128 41.1081 66.6719C35.2179 60.5765 29.2478 54.5381 23.1979 48.5566C23.1167 48.4932 23.0255 48.4704 22.9245 48.4883C23.359 48.1112 23.8603 47.8378 24.4284 47.668Z" fill="#8CD3F5"/>
<path opacity="0.987" fill-rule="evenodd" clip-rule="evenodd" d="M49.5846 47.668C50.6784 48.8072 51.7721 49.9467 52.8659 51.0859C52.7569 51.5949 52.6202 52.0963 52.4557 52.5898C50.99 51.2609 49.6228 49.8482 48.3542 48.3516C48.7423 48.0891 49.1525 47.8612 49.5846 47.668Z" fill="#D7D8F2"/>
<path fill-rule="evenodd" clip-rule="evenodd" d="M1.45963 48.0781C8.76929 55.3194 16.0611 62.5884 23.3346 69.8848C23.1112 69.9523 22.8833 69.975 22.651 69.9531C21.8463 69.8314 21.0715 69.6492 20.3268 69.4062C20.4706 69.4266 20.6074 69.4039 20.737 69.3379C14.5618 63.1627 8.38675 56.9877 2.21158 50.8125C2.1481 50.8937 2.12531 50.9849 2.14322 51.0859C1.71465 50.1465 1.48679 49.144 1.45963 48.0781Z" fill="#48CEF9"/>
<path fill-rule="evenodd" clip-rule="evenodd" d="M22.9245 48.4883C23.0255 48.4704 23.1167 48.4933 23.1979 48.5567C29.2478 54.5381 35.2179 60.5766 41.1081 66.6719C40.9694 66.8324 40.7872 66.9235 40.5612 66.9454C40.2878 67.0366 40.0143 67.1276 39.7409 67.2188C33.8164 61.2032 27.8463 55.2331 21.8307 49.3086C22.1534 48.9869 22.518 48.7135 22.9245 48.4883Z" fill="#86D2F6"/>
<path opacity="0.987" fill-rule="evenodd" clip-rule="evenodd" d="M48.3542 48.3516C49.6228 49.8482 50.99 51.2609 52.4557 52.5898C52.2736 53.0905 52.0914 53.5917 51.9088 54.0938C50.2682 52.5443 48.6731 50.9492 47.1237 49.3086C47.4915 48.9415 47.9016 48.6225 48.3542 48.3516Z" fill="#D1D7F2"/>
<path fill-rule="evenodd" clip-rule="evenodd" d="M6.38149 48.3516C7.62932 49.3481 8.85979 50.3735 10.0729 51.4277C10.8454 51.9732 11.6657 52.4062 12.5338 52.7266C18.3215 58.5599 24.1094 64.3932 29.8971 70.2266C29.3079 70.3059 28.7155 70.3515 28.1198 70.3633C20.924 63.0991 13.7007 55.853 6.44985 48.625C6.38641 48.5438 6.36358 48.4526 6.38149 48.3516Z" fill="#5ACFF8"/>
<path fill-rule="evenodd" clip-rule="evenodd" d="M21.8307 49.3086C27.8463 55.233 33.8164 61.2031 39.7409 67.2188C39.6953 67.3099 39.6497 67.401 39.6042 67.4922C39.4655 67.6527 39.2833 67.7437 39.0573 67.7656C38.7561 67.7798 38.4827 67.8709 38.237 68.0391C32.4036 62.1146 26.5247 56.2357 20.6003 50.4023C21.0069 50.0417 21.417 49.6771 21.8307 49.3086Z" fill="#80D2F6"/>
<path opacity="0.987" fill-rule="evenodd" clip-rule="evenodd" d="M47.1237 49.3086C48.6731 50.9492 50.2682 52.5443 51.9088 54.0938C51.6597 54.6628 51.3863 55.2096 51.0885 55.7344C49.3567 53.957 47.625 52.1797 45.8932 50.4023C46.2998 50.0417 46.71 49.6771 47.1237 49.3086Z" fill="#CAD7F2"/>
<path fill-rule="evenodd" clip-rule="evenodd" d="M20.6003 50.4023C26.5247 56.2357 32.4036 62.1146 38.237 68.0391C37.7556 68.2754 37.2544 68.4577 36.7331 68.5859C31.0364 62.7982 25.2942 57.056 19.5065 51.3594C19.8655 51.0418 20.2302 50.7227 20.6003 50.4023Z" fill="#79D1F6"/>
<path opacity="0.997" fill-rule="evenodd" clip-rule="evenodd" d="M45.8932 50.4023C47.625 52.1797 49.3567 53.957 51.0885 55.7344C50.9144 56.1801 50.6866 56.5902 50.4049 56.9648C48.4909 55.142 46.6223 53.2734 44.7995 51.3594C45.1605 51.0444 45.5252 50.7253 45.8932 50.4023Z" fill="#C4D6F3"/>
<path fill-rule="evenodd" clip-rule="evenodd" d="M20.3268 69.4062C19.3952 69.1793 18.4837 68.883 17.5924 68.5176C9.71237 65.1264 4.56263 59.3159 2.14321 51.0859C2.1253 50.9849 2.14809 50.8937 2.21157 50.8125C8.38674 56.9877 14.5618 63.1627 20.737 69.3379C20.6073 69.4039 20.4706 69.4266 20.3268 69.4062Z" fill="#40CEF9"/>
<path fill-rule="evenodd" clip-rule="evenodd" d="M19.5065 51.3594C25.2942 57.056 31.0364 62.7982 36.7331 68.5859C36.2614 68.8195 35.76 69.0017 35.2292 69.1328C29.6237 63.4362 23.9727 57.7852 18.276 52.1797C18.6576 51.8741 19.0678 51.6007 19.5065 51.3594Z" fill="#73D1F7"/>
<path opacity="0.995" fill-rule="evenodd" clip-rule="evenodd" d="M44.7995 51.3594C46.6223 53.2734 48.4909 55.142 50.4049 56.9648C50.2308 57.4105 50.003 57.8207 49.7213 58.1953C47.6216 56.2323 45.6164 54.1815 43.7057 52.043C44.0654 51.817 44.4299 51.5892 44.7995 51.3594Z" fill="#BED6F3"/>
<path fill-rule="evenodd" clip-rule="evenodd" d="M31.5378 48.3516C32.7439 49.3436 33.9288 50.369 35.0924 51.4277C35.9156 52.0443 36.827 52.4773 37.8268 52.7266C40.7386 55.7069 43.6781 58.669 46.6452 61.6133C46.7112 61.7429 46.7339 61.8796 46.7135 62.0234C46.4371 62.5733 46.0269 62.9835 45.4831 63.2539C45.6608 63.1034 45.7292 62.9211 45.6881 62.707C40.8914 57.9788 36.1746 53.1936 31.5378 48.3516Z" fill="#A5D4F4"/>
<path fill-rule="evenodd" clip-rule="evenodd" d="M18.276 52.1797C23.9727 57.7852 29.6237 63.4362 35.2292 69.1328C34.718 69.3518 34.1711 69.4886 33.5885 69.543C28.0286 63.892 22.4231 58.2865 16.7721 52.7266C17.2438 52.493 17.7452 52.3108 18.276 52.1797Z" fill="#6DD1F7"/>
<path fill-rule="evenodd" clip-rule="evenodd" d="M43.7057 52.043C45.6164 54.1815 47.6216 56.2323 49.7213 58.1953C49.4679 58.704 49.1489 59.1597 48.7643 59.5625C46.6572 57.2499 44.4697 54.994 42.2018 52.7949C42.1206 52.7315 42.0294 52.7087 41.9284 52.7266C42.5171 52.5209 43.1095 52.2932 43.7057 52.043Z" fill="#B8D6F3"/>
<path fill-rule="evenodd" clip-rule="evenodd" d="M12.5338 52.7266C13.0308 52.8105 13.5322 52.8562 14.0378 52.8633C14.2828 52.9739 14.5562 53.0422 14.8581 53.0684C20.491 58.6786 26.0965 64.3068 31.6745 69.9531C31.0904 70.0885 30.4979 70.1795 29.8971 70.2266C24.1094 64.3932 18.3216 58.5599 12.5338 52.7266Z" fill="#60D0F8"/>
<path fill-rule="evenodd" clip-rule="evenodd" d="M16.7721 52.7266C22.4231 58.2865 28.0286 63.892 33.5885 69.543C32.9928 69.8053 32.3549 69.9421 31.6745 69.9531C26.0965 64.3068 20.491 58.6786 14.8581 53.0684C14.5562 53.0422 14.2828 52.9739 14.0378 52.8633C14.9525 52.8696 15.8639 52.8239 16.7721 52.7266Z" fill="#67D0F7"/>
<path fill-rule="evenodd" clip-rule="evenodd" d="M37.8268 52.7266C38.7334 52.8402 39.6449 52.8857 40.5612 52.8633C40.4569 52.9683 40.3202 53.0366 40.151 53.0684C42.6348 55.5521 45.1184 58.0358 47.6022 60.5195C47.6682 60.6491 47.6909 60.7859 47.6706 60.9297C47.4526 61.3759 47.1337 61.7406 46.7135 62.0234C46.7339 61.8796 46.7112 61.7429 46.6452 61.6133C43.6781 58.669 40.7386 55.7069 37.8268 52.7266Z" fill="#ABD5F4"/>
<path fill-rule="evenodd" clip-rule="evenodd" d="M41.9284 52.7266C42.0294 52.7087 42.1206 52.7315 42.2018 52.795C44.4697 54.9941 46.6572 57.2499 48.7643 59.5625C48.4475 60.061 48.0829 60.5168 47.6706 60.9297C47.6909 60.7859 47.6682 60.6492 47.6022 60.5196C45.1184 58.0358 42.6348 55.5522 40.151 53.0684C40.3202 53.0367 40.4569 52.9683 40.5612 52.8633C41.0169 52.8178 41.4727 52.7721 41.9284 52.7266Z" fill="#B2D5F4"/>
<path opacity="0.02" fill-rule="evenodd" clip-rule="evenodd" d="M44.526 64.2109C44.4219 64.4518 44.2395 64.5886 43.9792 64.6211C44.0833 64.3802 44.2657 64.2435 44.526 64.2109Z" fill="#C7EFFD"/>
<path opacity="0.01" fill-rule="evenodd" clip-rule="evenodd" d="M43.8424 64.7578C43.7778 64.95 43.6411 65.0412 43.4323 65.0312C43.4323 64.9857 43.4323 64.9401 43.4323 64.8945C43.5541 64.8111 43.6908 64.7656 43.8424 64.7578Z" fill="#C6EEFD"/>
<path opacity="0.059" fill-rule="evenodd" clip-rule="evenodd" d="M42.3385 65.8516C42.2739 66.0438 42.1371 66.135 41.9284 66.125C41.993 65.9328 42.1298 65.8416 42.3385 65.8516Z" fill="#C8F0FD"/>
<path opacity="0.01" fill-rule="evenodd" clip-rule="evenodd" d="M41.9284 66.125C41.8637 66.3172 41.727 66.4084 41.5182 66.3984C41.5829 66.2062 41.7196 66.115 41.9284 66.125Z" fill="#C7EFFD"/>
<path opacity="0.235" fill-rule="evenodd" clip-rule="evenodd" d="M40.5612 66.9453C40.3102 67.2308 39.9912 67.413 39.6042 67.4922C39.6497 67.401 39.6953 67.3099 39.7409 67.2188C40.0143 67.1276 40.2878 67.0365 40.5612 66.9453Z" fill="#C3EEFD"/>
<path opacity="0.324" fill-rule="evenodd" clip-rule="evenodd" d="M39.0573 67.7656C36.2072 69.2019 33.1994 70.1132 30.0338 70.5C28.211 70.5 26.388 70.5 24.5651 70.5C23.9702 70.3759 23.3778 70.2391 22.7878 70.0898C23.4277 70.1129 24.0658 70.1585 24.7018 70.2266C25.8161 70.3623 26.9553 70.4079 28.1198 70.3633C28.7155 70.3515 29.3079 70.3059 29.8971 70.2266C30.4979 70.1795 31.0904 70.0885 31.6745 69.9531C32.3549 69.9421 32.9928 69.8053 33.5885 69.543C34.1711 69.4886 34.718 69.3518 35.2292 69.1328C35.76 69.0017 36.2614 68.8195 36.7331 68.5859C37.2544 68.4577 37.7556 68.2754 38.237 68.0391C38.4827 67.8709 38.7561 67.7798 39.0573 67.7656Z" fill="#C0EEFD"/>
</svg>
