<svg width="55" height="71" viewBox="0 0 55 71" fill="none" xmlns="http://www.w3.org/2000/svg">
<path opacity="0.993" fill-rule="evenodd" clip-rule="evenodd" d="M2.97935 0.5C19.5679 0.5 36.1565 0.5 52.745 0.5C54.4053 1.2213 55.1117 2.49734 54.8641 4.32812C52.0273 25.518 49.2019 46.7094 46.3876 67.9023C46.0898 69.1789 45.3378 70.0447 44.1317 70.5C33.2854 70.5 22.4389 70.5 11.5926 70.5C10.3865 70.0447 9.63455 69.1789 9.33678 67.9023C6.52246 46.7094 3.69694 25.518 0.860213 4.32812C0.612602 2.49734 1.31897 1.2213 2.97935 0.5ZM7.35435 6.51562C21.0262 6.51562 34.6981 6.51562 48.37 6.51562C47.4184 13.7694 46.4157 21.0155 45.3622 28.2539C43.5549 27.4642 41.732 26.7123 39.8934 25.998C36.0241 24.937 32.196 25.0737 28.409 26.4082C27.1947 26.9927 25.9642 27.5396 24.7176 28.0488C21.9123 28.8596 19.1324 28.7685 16.3778 27.7754C14.3347 26.5939 12.1472 25.8419 9.81529 25.5195C9.05103 19.177 8.23072 12.8424 7.35435 6.51562Z" fill="#48CEF9"/>
</svg>
